<svg width="95" height="52" viewBox="0 0 95 52" fill="none" xmlns="http://www.w3.org/2000/svg"><g clip-path="url(#a)"><path d="M47.202 22.5h47.759" stroke="#BF2E29" stroke-width="4" stroke-linecap="square" filter="url(#b)"/><path d="M23 0C10.273 0 0 10.273 0 23s10.273 23 23 23 23-10.273 23-23S35.727 0 23 0zm11.704 30.769a2.745 2.745 0 0 1 0 3.884c-.562.563-1.226.818-1.942.818-.715 0-1.43-.255-1.942-.818l-7.667-7.666-7.717 7.666c-.563.563-1.227.818-1.943.818-.715 0-1.43-.255-1.942-.818a2.746 2.746 0 0 1 0-3.884l7.718-7.718-7.718-7.667a2.746 2.746 0 0 1 0-3.884 2.746 2.746 0 0 1 3.885 0l7.717 7.718 7.718-7.718a2.746 2.746 0 0 1 3.885 0 2.746 2.746 0 0 1 0 3.884l-7.718 7.718 7.666 7.667z" fill="#BF2E29" filter="url(#c)"/></g><defs><filter id="b" x="43.202" y="20.5" width="55.758" height="10" filterUnits="userSpaceOnUse" color-interpolation-filters="sRGB"><feFlood flood-opacity="0" result="BackgroundImageFix"/><feColorMatrix in="SourceAlpha" type="matrix" values="0 0 0 0 0 0 0 0 0 0 0 0 0 0 0 0 0 0 127 0"/><feOffset dy="4"/><feGaussianBlur stdDeviation="1"/><feColorMatrix type="matrix" values="0 0 0 0 0 0 0 0 0 0 0 0 0 0 0 0 0 0 0.25 0"/><feBlend mode="normal" in2="BackgroundImageFix" result="effect1_dropShadow"/><feBlend mode="normal" in="SourceGraphic" in2="effect1_dropShadow" result="shape"/></filter><filter id="c" x="-2" y="0" width="50" height="52" filterUnits="userSpaceOnUse" color-interpolation-filters="sRGB"><feFlood flood-opacity="0" result="BackgroundImageFix"/><feColorMatrix in="SourceAlpha" type="matrix" values="0 0 0 0 0 0 0 0 0 0 0 0 0 0 0 0 0 0 127 0"/><feOffset dy="4"/><feGaussianBlur stdDeviation="1"/><feColorMatrix type="matrix" values="0 0 0 0 0 0 0 0 0 0 0 0 0 0 0 0 0 0 0.25 0"/><feBlend mode="normal" in2="BackgroundImageFix" result="effect1_dropShadow"/><feBlend mode="normal" in="SourceGraphic" in2="effect1_dropShadow" result="shape"/></filter><clipPath id="a"><path fill="#fff" d="M0 0h95v52H0z"/></clipPath></defs></svg>