<svg width="294" height="116" viewBox="0 0 294 116" fill="none" xmlns="http://www.w3.org/2000/svg">
<rect width="294" height="116" fill="white"/>
<path d="M208 20.0596C229.99 20.0896 251.97 20.0396 273.96 20.0896C273.94 42.3496 273.89 64.6196 273.98 86.8796C251.99 86.9496 230 86.8696 208.01 86.9196C207.99 64.6396 208 42.3496 208 20.0596ZM232.9 43.2196C232.78 48.0896 233.11 52.9696 232.79 57.8396C231.59 61.0196 228.08 59.2596 226.32 57.6596C225.42 58.7596 224.52 59.8596 223.63 60.9696C224.75 61.6796 225.84 62.4396 227.03 63.0396C230.86 64.8696 236.56 63.1096 237.34 58.5596C237.83 53.4596 237.35 48.3296 237.6 43.2196C236.03 43.2096 234.46 43.2196 232.9 43.2196ZM245.38 43.4396C242.02 44.4796 240.36 48.8196 242.16 51.8396C244.33 55.7296 250.65 54.0396 252.47 57.9096C250.76 61.6096 245.63 59.1796 243.15 57.4396C242.29 58.5196 241.45 59.6096 240.61 60.6896C244.2 63.0196 248.77 64.7696 252.98 63.0296C256.56 61.7396 258.08 56.5396 255.31 53.7796C252.57 51.1196 248.23 51.5196 245.36 49.0296C246.94 45.0596 251.28 47.0496 253.9 48.6696C254.63 47.4996 255.39 46.3396 256.13 45.1596C252.89 43.4496 248.99 41.8396 245.38 43.4396Z" fill="#FAC552"/>
<path d="M16.8299 57.88C20.7499 51.15 31.1899 49.88 36.6799 55.33C40.2699 58.74 41.2799 63.91 41.1899 68.68C32.8899 68.66 24.5999 68.65 16.2999 68.68C16.6399 72.15 17.1899 75.82 19.5199 78.58C22.9699 82.88 29.8299 83.38 34.2299 80.3C36.5699 78.64 37.6499 75.88 38.5199 73.27C39.1299 73.26 40.3599 73.23 40.9799 73.21C40.0799 76.96 38.2899 80.85 34.7599 82.77C28.7399 86.06 19.9399 84.72 16.4299 78.42C13.0899 72.16 13.1999 63.99 16.8299 57.88ZM20.3099 57.28C17.7699 59.66 17.0699 63.2 16.2999 66.44C23.8199 66.62 31.3499 66.46 38.8699 66.53C38.4099 63.13 37.5999 59.53 35.0299 57.07C31.1699 53.07 24.0899 53.27 20.3099 57.28Z" fill="#383838"/>
<path d="M80.3898 53.3C85.5898 50.64 92.7198 51.9 96.3398 56.62C99.4898 60.64 100.17 66.03 99.7298 70.98C99.3598 75.21 97.7198 79.62 94.1298 82.14C87.9898 86.41 77.9298 84.93 74.7198 77.67C75.1398 83.38 74.7898 89.11 75.0298 94.83C74.4198 94.88 73.1898 94.98 72.5798 95.03C72.5098 80.89 72.6398 66.75 72.5098 52.6C73.1498 52.61 74.4198 52.63 75.0598 52.63C74.9598 54.93 74.8698 57.22 74.7198 59.51C76.2898 57.19 77.7598 54.57 80.3898 53.3ZM82.5098 54.7C74.3598 57.8 73.8798 68.59 76.1898 75.72C78.6698 83.49 90.5198 84.49 94.8498 77.89C98.4398 72.34 98.3598 64.63 95.0498 58.96C92.5498 54.74 87.0498 53.21 82.5098 54.7Z" fill="#383838"/>
<path d="M122.33 57.3898C126.56 50.8698 137.06 50.0198 142.28 55.7498C145.54 59.1698 146.32 64.0398 146.47 68.5698C138.13 68.7898 129.78 68.5698 121.44 68.6898C121.84 71.8898 122.21 75.2798 124.2 77.9498C127.57 82.9398 135.35 83.6298 139.9 79.9098C141.9 78.2398 142.83 75.7298 143.65 73.3398C144.25 73.2798 145.45 73.1698 146.05 73.1098C145.39 77.2598 143.04 81.3998 139.1 83.1998C133.13 85.9098 124.94 84.4498 121.59 78.3998C118.16 71.9998 118.33 63.5198 122.33 57.3898ZM125.37 57.3798C122.91 59.7698 122.18 63.2398 121.5 66.4598C129.02 66.5798 136.54 66.4998 144.05 66.4998C143.54 63.0698 142.74 59.3898 140.07 56.9498C136.16 53.0098 129.08 53.3398 125.37 57.3798Z" fill="#383838"/>
<path d="M154.73 53.73C158.76 51.53 163.82 51.48 168.12 52.89C171.83 54.18 173.58 58.04 174 61.69C173.39 61.79 172.16 62 171.55 62.1C171.23 59.45 170.36 56.44 167.67 55.3C163.85 53.61 158.79 53.6 155.43 56.32C152.88 58.24 153.11 62.54 155.85 64.18C160.57 67.16 166.76 66.26 171.46 69.31C174.39 71.19 175.19 75.05 174.35 78.24C173.28 81.85 169.49 83.76 166 84.22C161.54 84.87 156.37 84.38 153.1 80.95C151.08 79.01 150.57 76.16 149.92 73.56C150.52 73.55 151.72 73.52 152.31 73.51C153.14 77.44 155.74 81.32 159.99 81.96C164.15 82.68 169.72 82.16 171.9 77.96C173.18 75.05 171.57 71.58 168.6 70.55C163.95 68.43 158.37 68.95 154.1 65.92C150.04 63.13 150.42 56.1 154.73 53.73Z" fill="#383838"/>
<path d="M182.96 53.8902C186.91 51.5102 191.98 51.5202 196.31 52.7802C200.29 54.0502 202.31 58.2302 202.3 62.2002C198.49 62.8702 200.22 57.7802 197.6 56.3402C193.56 53.1802 186.65 53.2602 183.1 57.1202C181.27 59.3202 182.03 62.9201 184.47 64.3401C189.18 67.0001 195.03 66.4302 199.72 69.1802C202.96 71.0402 203.64 75.3302 202.66 78.6602C201.28 82.1502 197.48 83.9202 193.95 84.2902C189.52 84.8502 184.37 84.2302 181.29 80.6402C179.41 78.7202 178.95 75.9801 178.44 73.4501C182.35 72.5101 181.02 77.8302 183.63 79.4102C187.28 82.9802 193.3 82.9402 197.67 80.7902C200.96 79.2802 201.88 74.3101 199.12 71.8801C194.29 68.0001 187.2 69.5702 182.33 65.7202C178.53 62.9202 178.93 56.3102 182.96 53.8902Z" fill="#383838"/>
<path d="M42.6805 52.4602C43.5005 52.5202 45.1405 52.6402 45.9505 52.7002C49.5005 56.7002 52.3205 61.3202 55.6105 65.5502C58.8405 61.3002 61.7605 56.8002 65.2005 52.7202C65.9805 52.6502 67.5405 52.5102 68.3305 52.4502C64.5605 57.4102 60.9305 62.4702 57.0805 67.3702C61.1805 72.8202 65.1305 78.3902 69.2705 83.8102C68.4805 83.7902 66.8905 83.7402 66.1005 83.7202C62.2905 79.1602 59.1605 74.0502 55.6105 69.2802C52.2705 73.7602 49.0705 78.3402 45.7205 82.8002C44.9705 84.2202 43.2705 83.7302 41.9805 83.8702C45.9605 78.3902 49.8505 72.8302 54.0605 67.5302C50.2805 62.4902 46.4805 57.4802 42.6805 52.4602Z" fill="#383838"/>
<path d="M104.89 52.5797C105.53 52.5897 106.79 52.5997 107.43 52.6097C107.34 54.7597 107.21 56.8997 107.11 59.0397C109.8 54.9397 114.24 52.3097 119.22 52.3997C119.22 52.9797 119.22 54.1297 119.22 54.7097C113.24 54.4197 107.6 59.2397 107.41 65.2897C107.25 71.3997 107.31 77.5297 107.43 83.6397C106.8 83.6997 105.53 83.8097 104.89 83.8597C104.9 73.4397 104.91 63.0097 104.89 52.5797Z" fill="#383838"/>
</svg>
