<svg width="72" height="80" viewBox="0 0 72 80" fill="none" xmlns="http://www.w3.org/2000/svg">
<g clip-path="url(#clip0)">
<path fill-rule="evenodd" clip-rule="evenodd" d="M42.3781 9.1606L58.8058 18.6458C59.2801 18.1439 59.8244 17.7132 60.4218 17.367C63.8287 15.4083 68.1744 16.5712 70.1533 19.9784C72.112 23.3856 70.9491 27.731 67.5419 29.7099C66.949 30.0514 66.31 30.3058 65.6446 30.4654V49.4427C66.3027 49.6025 66.9347 49.8552 67.5216 50.1932C70.9491 52.1721 72.112 56.5178 70.133 59.925C68.1744 63.3319 63.8084 64.4948 60.4012 62.5364C59.7412 62.1577 59.1466 61.675 58.6403 61.1068L42.3125 70.5336C42.5516 71.2577 42.6731 72.0154 42.6722 72.7779C42.6722 76.695 39.4897 79.8983 35.5521 79.8983C31.6144 79.8983 28.4319 76.7152 28.4319 72.7779C28.4319 72.0779 28.5325 71.4019 28.72 70.7633L12.2966 61.2809C11.8275 61.7728 11.2909 62.1955 10.7029 62.5364C7.27545 64.4948 2.92978 63.3319 0.971086 59.925C-0.987329 56.5178 0.17561 52.1721 3.58249 50.1932C4.1694 49.8552 4.80141 49.6024 5.45952 49.4424V30.4654C4.79415 30.3058 4.15517 30.0514 3.56221 29.7099C0.155056 27.7515 -1.00788 23.3856 0.95081 19.9784C2.9095 16.5712 7.27518 15.4083 10.6823 17.367C11.2765 17.7114 11.8181 18.1393 12.2905 18.6377L28.723 9.15005C28.5293 8.49258 28.4313 7.81065 28.4319 7.12525C28.4319 3.18814 31.6144 0.00512695 35.5521 0.00512695C39.4897 0.00512695 42.6722 3.18786 42.6722 7.12525C42.6722 7.83296 42.5694 8.51594 42.3781 9.1606ZM40.6666 12.0831L57.1335 21.5905C56.8713 22.5071 56.7961 23.467 56.9124 24.4133C57.0287 25.3595 57.3341 26.2727 57.8104 27.0985C58.8128 28.8422 60.4457 29.9982 62.258 30.4488V49.4496C62.1655 49.4721 62.0736 49.4968 61.9822 49.523L40.4752 12.2733C40.5402 12.2111 40.6041 12.1478 40.6666 12.0834V12.0831ZM30.6334 12.2775L9.12666 49.5266C9.03366 49.4997 8.94014 49.4747 8.84613 49.4516V30.4488C10.6584 29.9982 12.2913 28.8422 13.2937 27.0985C13.771 26.2711 14.0767 25.356 14.1925 24.4078C14.3083 23.4597 14.2319 22.4979 13.9678 21.5799L30.4301 12.0753C30.4965 12.1439 30.5642 12.2114 30.6334 12.2772V12.2775ZM37.5416 13.9648L59.0433 51.2056C58.5508 51.6755 58.1286 52.2141 57.7898 52.8046C57.4519 53.3915 57.1992 54.0235 57.0394 54.6816H14.0653C13.9053 54.0235 13.6524 53.3915 13.3143 52.8046C12.9743 52.2182 12.553 51.6829 12.0628 51.2147L33.5687 13.9665C34.2134 14.1522 34.8811 14.246 35.5521 14.2454C36.2428 14.2454 36.9103 14.1476 37.5416 13.9648ZM40.8176 67.9811L57.1777 58.5354C57.1286 58.3812 57.0848 58.2254 57.0463 58.0682H14.0562C14.0334 58.1607 14.0087 58.2524 13.9823 58.3437L30.4223 67.8358C31.0862 67.1455 31.8829 66.5967 32.7645 66.2223C33.6461 65.848 34.5943 65.656 35.5521 65.6577C36.5433 65.656 37.5239 65.8618 38.4308 66.262C39.3377 66.6621 40.1508 67.2477 40.8176 67.9811V67.9811Z" fill="#E535AB"/>
</g>
<defs>
<clipPath id="clip0">
<rect width="71.104" height="80" fill="white"/>
</clipPath>
</defs>
</svg>
