<svg width="104" height="100" viewBox="0 0 104 100" fill="none" xmlns="http://www.w3.org/2000/svg">
<path fill-rule="evenodd" clip-rule="evenodd" d="M56.0739 13.0002C55.4891 13.0002 54.9459 13.1257 54.4445 13.2928C55.5101 14.0031 56.0949 14.9432 56.3875 16.0085C56.4085 16.1549 56.4502 16.2594 56.4709 16.4055C56.4919 16.5309 56.5129 16.656 56.5129 16.7815C56.5963 18.6201 56.0322 18.8496 55.6352 19.9362C55.0293 21.336 55.1965 22.84 55.9278 24.0517C55.9905 24.1978 56.0739 24.365 56.1786 24.5111C55.3846 19.2259 59.7927 18.4319 60.6074 16.7815C60.6702 15.3399 59.4791 14.3791 58.5393 13.7105C57.6406 13.1674 56.8259 13.0002 56.0739 13.0002V13.0002ZM62.7176 14.1909C62.6335 14.6717 62.6966 14.5462 62.6755 14.7968C62.6549 14.9639 62.6549 15.1728 62.6338 15.3399C62.5921 15.5071 62.5504 15.6742 62.4877 15.8413C62.4457 16.0085 62.3833 16.1756 62.3206 16.3428C62.2368 16.5099 62.1744 16.6564 62.091 16.8232C62.028 16.9069 61.9863 16.9903 61.9236 17.0741L61.7981 17.2619C61.6937 17.4084 61.5893 17.5545 61.4849 17.6799C61.3594 17.8054 61.2553 17.9515 61.1089 18.0559V18.0769C60.9834 18.1813 60.8583 18.3065 60.7119 18.4112C60.2732 18.7452 59.7717 18.996 59.312 19.3093C59.1659 19.4137 59.0197 19.4975 58.8943 19.6229C58.7482 19.7273 58.6227 19.8318 58.4976 19.9569C58.3512 20.0823 58.2468 20.2078 58.1213 20.3539C58.0169 20.4793 57.8918 20.6254 57.808 20.7719C57.7036 20.918 57.5992 21.0642 57.5155 21.2106C57.432 21.3778 57.3693 21.5239 57.2859 21.691C57.2232 21.8582 57.1605 22.0046 57.1188 22.1714C57.063 22.3436 57.0141 22.5178 56.9723 22.6939C56.9516 22.7773 56.9516 22.8817 56.9306 22.9654C56.9096 23.0489 56.9096 23.1326 56.8889 23.216C56.8889 23.3831 56.8679 23.5713 56.8679 23.7384C56.8679 23.8636 56.8679 23.989 56.8889 24.1144C56.8889 24.2816 56.9099 24.4487 56.9516 24.6366C56.9726 24.8037 57.0144 24.9708 57.0561 25.138C57.1188 25.3051 57.1605 25.4723 57.2232 25.6391C57.2652 25.7438 57.3276 25.8483 57.3693 25.932L52.5645 24.0724C51.7498 23.8429 50.9558 23.6337 50.1411 23.4459L48.825 23.1323C47.5678 22.8816 46.2989 22.6934 45.0231 22.5684C44.981 22.5684 44.96 22.5474 44.9183 22.5474C43.6649 22.422 42.4322 22.3596 41.1788 22.3596C40.2597 22.3596 39.3405 22.4013 38.4421 22.464C37.1677 22.5474 35.8933 22.7146 34.6192 22.9234C34.3056 22.9654 33.992 23.0278 33.679 23.0906C33.0311 23.216 32.4046 23.3621 31.7987 23.5086L30.8586 23.7591C30.545 23.8846 30.2527 24.0307 29.9602 24.1561L29.2709 24.4697C29.2289 24.4904 29.1872 24.4904 29.1665 24.5111C28.9576 24.6155 28.7695 24.6993 28.5813 24.8037C28.5189 24.8247 28.4769 24.8457 28.4352 24.8664C28.2057 24.9708 27.9758 25.0959 27.7876 25.2007C27.6415 25.2634 27.4951 25.3468 27.3699 25.4095C27.3072 25.4516 27.2235 25.4933 27.1818 25.514C26.9936 25.6184 26.8058 25.7228 26.6386 25.8276C26.4505 25.9317 26.2833 26.0364 26.1372 26.1408C25.9911 26.2453 25.8446 26.3287 25.7195 26.4331C25.6985 26.4541 25.6775 26.4541 25.6568 26.4751C25.5314 26.5585 25.3852 26.663 25.2598 26.7674L25.2178 26.8094L24.9048 27.06C24.8628 27.0806 24.8208 27.1227 24.7794 27.1434C24.675 27.2271 24.5705 27.3315 24.4658 27.4149C24.4451 27.457 24.4034 27.4777 24.3824 27.4987C24.2569 27.6241 24.1318 27.7282 24.0064 27.8536C23.9854 27.8536 23.9854 27.8747 23.9644 27.8957C23.8392 28.0001 23.7138 28.1252 23.5884 28.2506C23.5677 28.2717 23.5677 28.2927 23.5467 28.2927C23.4371 28.3991 23.3326 28.5105 23.2334 28.6266C23.1914 28.6687 23.129 28.7104 23.0873 28.7521C22.9828 28.8775 22.8574 29.0026 22.732 29.1281C22.711 29.1701 22.6692 29.1908 22.6486 29.2325C22.4814 29.3996 22.335 29.5668 22.1678 29.7339L22.1054 29.7966C21.7711 30.1516 21.4158 30.5069 21.0398 30.8202C20.6694 31.1507 20.2787 31.4577 19.8698 31.7393C19.4647 32.0235 19.0464 32.2884 18.6164 32.5333C18.1901 32.7672 17.7506 32.9765 17.3003 33.1602C16.856 33.3489 16.4029 33.5161 15.9425 33.6613C15.0651 33.8494 14.1666 34.2044 13.3936 34.2671C13.2265 34.2671 13.0386 34.3092 12.8715 34.3299C12.6833 34.3719 12.5162 34.4136 12.3491 34.4553L11.848 34.6435C11.6805 34.7059 11.5133 34.7896 11.3462 34.873C11.2001 34.9774 11.0329 35.0612 10.8868 35.1656C10.7404 35.27 10.5942 35.3951 10.4688 35.5209C10.3227 35.6253 10.1765 35.7714 10.0511 35.8969C9.92565 36.043 9.80054 36.1684 9.69579 36.3146C9.59137 36.4817 9.46625 36.6282 9.38252 36.795C9.2781 36.9414 9.17367 37.1086 9.09026 37.2757C9.00621 37.4635 8.92312 37.6307 8.8604 37.8188C8.79446 37.9988 8.73173 38.1798 8.67224 38.362C8.63054 38.5291 8.58883 38.6963 8.56782 38.8631C8.56782 38.8844 8.54681 38.9051 8.54681 38.9261C8.5051 39.114 8.5051 39.3648 8.48409 39.49C8.4634 39.6364 8.44238 39.7615 8.44238 39.908C8.44238 39.9914 8.44238 40.0958 8.4634 40.1795C8.48441 40.3257 8.50543 40.4511 8.54713 40.5765C8.58883 40.7017 8.63054 40.8271 8.69326 40.9525V40.9732C8.75598 41.0987 8.83939 41.2241 8.9228 41.3495C9.00685 41.4746 9.09026 41.6001 9.19436 41.7255C9.29911 41.8299 9.42455 41.9551 9.54999 42.0598C9.6751 42.1849 9.80054 42.2893 9.94667 42.3941C10.4481 42.8328 10.5735 42.9789 11.2211 43.3132C11.3255 43.3759 11.4299 43.4176 11.5554 43.4804C11.5764 43.4804 11.5971 43.5011 11.6181 43.5011C11.6181 43.5431 11.6181 43.5638 11.6388 43.6058C11.6598 43.7729 11.7015 43.9401 11.7435 44.1069C11.7833 44.2789 11.8392 44.4468 11.9104 44.6083C11.9731 44.7338 12.0151 44.8592 12.0775 44.9846C12.0985 45.0264 12.1195 45.0681 12.1402 45.0891C12.2239 45.2562 12.3074 45.4023 12.3911 45.5485L12.7044 45.9872C12.8088 46.1126 12.9339 46.2587 13.0597 46.3842C13.1848 46.5096 13.3102 46.6137 13.4563 46.7395C13.4563 46.7395 13.4774 46.7602 13.4984 46.7602C13.6235 46.8646 13.7489 46.9693 13.8744 47.0528C14.0205 47.1572 14.1666 47.2409 14.3338 47.3243C14.4802 47.4081 14.6474 47.4915 14.8145 47.5539C14.9396 47.6169 15.0861 47.6586 15.2322 47.7003C15.2532 47.7213 15.2739 47.7213 15.3156 47.7423C15.3997 47.763 15.5038 47.784 15.5872 47.8047C15.5248 48.933 15.5038 49.9983 15.6712 50.3743C15.8587 50.7923 16.7782 49.5179 17.6973 48.0556C17.5719 49.4969 17.4885 51.1893 17.6973 51.6904C17.9272 52.2128 19.1806 50.5834 20.2669 48.7866C35.0789 45.3606 48.5955 55.5974 50.016 70.0538C49.7445 67.7975 46.9657 66.5441 45.6913 66.8574C45.0648 68.4034 43.9992 70.3881 42.2861 71.6208C42.4357 70.2257 42.3652 68.8158 42.0772 67.4426C41.6178 69.3645 40.7194 71.1611 39.4867 72.7071C37.5023 72.8532 35.5176 71.8924 34.473 70.4505C34.3893 70.3881 34.3686 70.263 34.3059 70.1789C34.2432 70.0328 34.1804 69.8867 34.1387 69.7405C34.0778 69.6004 34.0356 69.4529 34.0133 69.3018C33.9923 69.1554 33.9923 69.0092 33.9923 68.8421V68.5285C34.0133 68.3824 34.055 68.2362 34.0967 68.0901C34.1387 67.9437 34.1804 67.7975 34.2432 67.6514C34.3266 67.505 34.3893 67.3588 34.4937 67.2127C34.849 66.2098 34.849 65.3951 34.2015 64.9147C34.076 64.8327 33.9431 64.7626 33.8045 64.7056C33.7207 64.6849 33.6163 64.6432 33.5329 64.6221C33.4702 64.6011 33.4285 64.5801 33.3657 64.5594C33.2193 64.5174 33.0732 64.4757 32.927 64.455C32.7844 64.4137 32.6368 64.3926 32.4883 64.3923C32.3419 64.3713 32.1747 64.3503 32.0286 64.3503C31.9242 64.3503 31.8198 64.3716 31.715 64.3716C31.5482 64.3716 31.4021 64.3923 31.2559 64.434C31.1095 64.455 30.9633 64.476 30.8169 64.5177C30.6708 64.5597 30.5243 64.6015 30.3782 64.6638C30.2321 64.7266 30.1066 64.7893 29.9605 64.852C29.8351 64.9147 29.7096 64.9981 29.5635 65.0609C24.696 68.2362 27.5998 75.6736 30.9213 77.8255C29.6679 78.055 28.3935 78.3266 28.0385 78.5981L27.9965 78.6401C28.8952 79.1833 29.8351 79.643 30.8169 80.04C32.154 80.4784 33.5746 80.8754 34.2015 81.0425V81.0636C35.9323 81.4185 37.7022 81.5449 39.466 81.4396C48.7206 80.792 56.3041 73.7516 57.6829 64.476C57.725 64.6638 57.7667 64.831 57.8084 65.0191C57.8711 65.3951 57.9545 65.7918 57.9962 66.1891V66.2098C58.0382 66.398 58.0589 66.5861 58.0799 66.753V66.837C58.1009 67.0245 58.122 67.2127 58.122 67.3802C58.1427 67.6097 58.1633 67.8392 58.1633 68.0694V68.4037C58.1633 68.5081 58.1844 68.6332 58.1844 68.7377C58.1844 68.8631 58.1633 68.9885 58.1633 69.114V69.4062C58.1633 69.5527 58.1423 69.6778 58.1423 69.8243C58.1423 69.9077 58.1423 69.9914 58.1216 70.0958C58.1216 70.242 58.1006 70.3881 58.1006 70.5552C58.0796 70.6179 58.0796 70.6807 58.0796 70.7434C58.0589 70.9105 58.0379 71.057 58.0169 71.2238C58.0169 71.2865 58.0169 71.3492 57.9962 71.412C57.9752 71.6208 57.9335 71.809 57.9125 72.0178V72.0595C57.8708 72.2477 57.8291 72.4565 57.787 72.6447V72.7071L57.6619 73.2712C57.6619 73.2922 57.6409 73.3339 57.6409 73.3549C57.5989 73.5428 57.5572 73.7309 57.4948 73.9188V73.9815C57.4321 74.1907 57.3693 74.3785 57.3276 74.5667C57.3066 74.5873 57.3066 74.6084 57.3066 74.6084L57.1185 75.2349C57.035 75.4441 56.9723 75.6319 56.8889 75.8408C56.8052 76.0499 56.7425 76.2588 56.6591 76.4466C56.5753 76.6558 56.4919 76.8436 56.4082 77.0525H56.3875C56.3034 77.2406 56.2203 77.4495 56.1159 77.6376C56.0949 77.7003 56.0739 77.742 56.0532 77.7837C56.0322 77.8048 56.0322 77.8258 56.0112 77.8465C54.6533 80.5831 52.6479 82.9855 50.1408 84.8658C49.9737 84.9702 49.8065 85.0954 49.6397 85.2211C49.5977 85.2628 49.535 85.2835 49.4933 85.3255C49.3471 85.43 49.2007 85.5344 49.0338 85.6388L49.0962 85.7643H49.1173L49.9947 85.6388H50.0157C50.5588 85.5551 51.102 85.4507 51.6451 85.3462C51.7912 85.3252 51.9587 85.2835 52.1048 85.2418C52.2092 85.2208 52.2926 85.2001 52.3971 85.1791C52.5435 85.1584 52.6897 85.1164 52.8358 85.0957C52.9612 85.0536 53.0867 85.033 53.2121 84.9913C55.3012 84.4898 57.3276 83.8002 59.2706 82.9855C55.9488 87.5191 51.4986 91.1749 46.2968 93.5773C48.6996 93.4101 51.102 93.0135 53.4209 92.3449C61.8402 89.8588 68.9222 84.1972 73.1629 76.572C72.3021 81.409 70.3832 85.9959 67.5434 90.0049C69.568 88.6694 71.4386 87.1141 73.1212 85.3672C77.8008 80.4787 80.8718 74.2741 81.9164 67.6097C82.629 70.9159 82.8333 74.3115 82.5222 77.6793C97.6055 56.642 83.7756 34.8316 77.9887 29.0867C77.968 29.0447 77.947 29.024 77.947 28.9823C77.9263 29.003 77.9263 29.003 77.9263 29.024C77.9263 29.003 77.9263 29.003 77.9053 28.9819C77.9053 29.2328 77.8843 29.4834 77.8632 29.7342C77.8008 30.2147 77.7381 30.6744 77.6544 31.1341C77.55 31.5935 77.4249 32.0532 77.2994 32.5126C77.1508 32.965 76.9836 33.4111 76.7983 33.8498C76.6062 34.2827 76.3969 34.7078 76.1711 35.1242C75.9416 35.5209 75.6907 35.9389 75.4191 36.3149C75.1504 36.7035 74.8646 37.0799 74.5624 37.4432C74.2491 37.8192 73.9152 38.1535 73.5809 38.4874C73.3842 38.6675 73.1821 38.8418 72.975 39.0099C72.8079 39.156 72.6614 39.2814 72.4943 39.4276C72.1183 39.7201 71.7423 39.9917 71.3246 40.2423C70.9276 40.4931 70.5099 40.7437 70.0919 40.9529C69.6532 41.1617 69.2145 41.3495 68.7761 41.5377C68.3371 41.7048 67.8773 41.8513 67.4179 41.9764C66.956 42.1008 66.489 42.2054 66.0181 42.29C65.5377 42.3734 65.0573 42.4151 64.5975 42.4568C64.2632 42.4778 63.929 42.4988 63.5947 42.4988C63.1143 42.4988 62.6338 42.4568 62.1741 42.4148C61.6937 42.3734 61.2133 42.3107 60.7536 42.2063C60.2732 42.1222 59.8134 41.9971 59.3537 41.851H59.333C59.7927 41.8089 60.2521 41.7672 60.7119 41.6838C61.1832 41.6015 61.6503 41.4968 62.1117 41.3702C62.5712 41.2461 63.0243 41.0998 63.4696 40.9318C63.929 40.7647 64.3677 40.5558 64.7854 40.3467C65.2244 40.1378 65.6214 39.908 66.0391 39.6574C66.4361 39.3858 66.8328 39.1143 67.2091 38.8217C67.5833 38.5307 67.9391 38.2167 68.2744 37.8816C68.6297 37.568 68.9429 37.213 69.2562 36.858C69.5616 36.4922 69.8542 36.1158 70.1336 35.7297C70.1756 35.6673 70.2173 35.5836 70.2591 35.5209C70.4679 35.1866 70.6767 34.8523 70.8649 34.518C71.0947 34.1039 71.3039 33.6787 71.4918 33.2439C71.6805 32.8066 71.8477 32.3604 71.9929 31.9068C72.1393 31.4681 72.2438 31.0083 72.3482 30.5489C72.4319 30.0685 72.5153 29.6088 72.557 29.1491C72.5991 28.6687 72.6408 28.1883 72.6408 27.7285C72.6408 27.3942 72.6197 27.06 72.5987 26.7257C72.5573 26.2453 72.4946 25.7859 72.4319 25.3258C72.3495 24.8546 72.2449 24.3876 72.1183 23.9263C71.9722 23.4876 71.8261 23.0282 71.6589 22.5895C71.4918 22.1507 71.2829 21.712 71.0738 21.294C70.8442 20.8763 70.6143 20.4586 70.3635 20.0616C70.0969 19.6701 69.8183 19.287 69.5281 18.9126C69.2135 18.5523 68.8931 18.197 68.5669 17.8471C68.3909 17.6678 68.2098 17.4937 68.0238 17.3249C67.0879 16.5981 66.1189 15.9149 65.12 15.2775C64.9738 15.1938 64.8484 15.1314 64.702 15.0687C64.0127 14.63 63.3651 14.4001 62.7176 14.1913V14.1909Z" fill="#E0234E"/>
</svg>
