<svg width="97" height="100" viewBox="0 0 97 100" fill="none" xmlns="http://www.w3.org/2000/svg">
<g clip-path="url(#clip0)">
<path d="M96.584 59.8752C96.0026 58.1144 94.4797 56.888 92.5102 56.5937C91.5815 56.4551 90.5179 56.5142 89.2594 56.7736C87.0656 57.2262 85.4381 57.3986 84.2504 57.4319C88.7336 49.8626 92.3791 41.2309 94.4778 33.1055C97.8714 19.9671 96.0579 13.9817 93.9388 11.2744C88.3307 4.10844 80.1485 0.258827 70.2775 0.141035C65.0118 0.076648 60.3891 1.11632 57.9776 1.86397C55.7324 1.4678 53.3183 1.24661 50.7852 1.2057C46.0368 1.12995 41.8414 2.16508 38.2565 4.29251C36.2719 3.62137 33.0866 2.67525 29.4081 2.07152C20.7567 0.651212 13.7839 1.75792 8.6837 5.36097C2.5078 9.72341 -0.355168 17.303 0.174325 27.889C0.34249 31.25 2.2226 41.4763 5.18291 51.1746C6.88426 56.749 8.69847 61.3781 10.5752 64.9346C13.2367 69.9776 16.0845 72.9474 19.2815 74.0139C21.0734 74.6109 24.3291 75.029 27.7534 72.177C28.1874 72.7027 28.7665 73.225 29.535 73.7102C30.5111 74.3257 31.7045 74.8286 32.8964 75.1267C37.1918 76.2005 41.2153 75.9319 44.6479 74.4268C44.6691 75.0373 44.6854 75.6206 44.699 76.1243C44.7218 76.9413 44.7445 77.7424 44.7744 78.4915C44.9778 83.5569 45.3225 87.4956 46.3436 90.2513C46.3996 90.4028 46.475 90.6339 46.5545 90.8789C47.064 92.4386 47.9158 95.0497 50.083 97.0946C52.3271 99.2129 55.0416 99.8625 57.5277 99.8625C58.7745 99.8625 59.9642 99.6989 61.0076 99.4754C64.727 98.6781 68.9512 97.4639 72.0069 93.1128C74.896 88.9996 76.3004 82.8044 76.5546 73.0428C76.5875 72.7667 76.6178 72.5031 76.647 72.252L76.7076 71.7361L77.3882 71.796L77.5636 71.8077C81.3518 71.9804 85.9839 71.1771 88.8287 69.8557C91.0766 68.8126 98.28 65.0095 96.584 59.8752" fill="black"/>
<path d="M90.1064 60.8734C78.8424 63.197 78.0678 59.3834 78.0678 59.3834C89.9606 41.7363 94.9324 19.3358 90.6423 13.8534C78.9374 -1.1015 58.6762 5.97127 58.338 6.15459L58.2293 6.17428C56.0037 5.71221 53.5135 5.43724 50.7141 5.39141C45.6177 5.30808 41.7514 6.72764 38.8176 8.95241C38.8176 8.95241 2.67347 -5.93776 4.35474 27.6793C4.71228 34.8309 14.6052 81.7925 26.4048 67.6079C30.7176 62.4209 34.885 58.0354 34.885 58.0354C36.9545 59.4102 39.4323 60.1117 42.0298 59.8598L42.2316 59.6886C42.1688 60.3325 42.1975 60.9624 42.3123 61.7081C39.2725 65.1044 40.1659 65.7005 34.0893 66.9515C27.9403 68.2188 31.5524 70.4747 33.9109 71.0648C36.7701 71.7795 43.3845 72.7922 47.8538 66.5357L47.6758 67.2496C48.8666 68.2037 49.7029 73.4547 49.5627 78.2152C49.4226 82.9753 49.329 86.2435 50.2672 88.7963C51.2061 91.3491 52.1412 97.0928 60.1298 95.3813C66.8045 93.9507 70.2637 90.2439 70.7451 84.0604C71.0863 79.6647 71.8593 80.3146 71.9078 76.3843L72.5278 74.5239C73.2425 68.565 72.6415 66.6425 76.7536 67.5367L77.7535 67.6246C80.7797 67.7621 84.7414 67.1375 87.0665 66.0569C92.0729 63.7337 95.0423 59.8541 90.1056 60.8734H90.1064" fill="#336791"/>
<path d="M40.9334 30.8776C39.9183 30.7363 38.9991 30.8669 38.534 31.2192C38.2727 31.4173 38.1916 31.6468 38.1697 31.8047C38.1113 32.2233 38.4045 32.6861 38.5848 32.9247C39.0946 33.6004 39.8392 34.0647 40.5762 34.167C40.683 34.1821 40.7895 34.189 40.8951 34.189C42.1242 34.189 43.2419 33.2319 43.3404 32.5255C43.4634 31.6407 42.1791 31.051 40.9334 30.8779V30.8776ZM74.5603 30.9056C74.4634 30.2121 73.2294 30.0144 72.0583 30.1772C70.8887 30.3401 69.7548 30.8681 69.8494 31.5631C69.9252 32.1036 70.9012 33.0262 72.0564 33.0262C72.1541 33.0262 72.2526 33.0198 72.3518 33.0057C73.123 32.8989 73.6888 32.4092 73.9577 32.127C74.3668 31.6968 74.6039 31.2173 74.5603 30.9056" fill="white"/>
<path d="M93.8554 60.6094C93.4259 59.3107 92.0434 58.893 89.7467 59.3672C82.9273 60.7746 80.4851 59.7997 79.6833 59.2092C84.9839 51.1343 89.3444 41.3731 91.6969 32.2661C92.8111 27.9521 93.4266 23.9457 93.477 20.6801C93.5327 17.096 92.9221 14.4622 91.6632 12.8532C86.5872 6.36715 79.1371 2.88795 70.1191 2.79251C63.9193 2.72282 58.6812 4.3094 57.6658 4.75557C55.5274 4.22381 53.1962 3.89732 50.6582 3.85566C46.0041 3.78029 41.981 4.89457 38.6503 7.16594C37.2034 6.62735 33.4644 5.34377 28.8918 4.6071C20.9865 3.3345 14.7046 4.2988 10.2217 7.47462C4.87259 11.2644 2.40314 18.0387 2.8815 27.609C3.04247 30.8287 4.87713 40.7338 7.7723 50.2196C11.5833 62.7047 15.726 69.7726 20.0847 71.2266C20.5949 71.3966 21.1831 71.5156 21.8319 71.5156C23.4219 71.5156 25.3713 70.799 27.3995 68.3606C29.8733 65.3929 32.4324 62.4973 35.0734 59.6773C36.7868 60.597 38.6692 61.1105 40.5944 61.162C40.5982 61.2124 40.6031 61.2628 40.6077 61.3128C40.2763 61.708 39.9517 62.1089 39.6343 62.5153C38.3003 64.2087 38.0227 64.5613 33.7288 65.4453C32.5073 65.6976 29.2633 66.3661 29.2156 68.6401C29.1641 71.1247 33.0505 72.1681 33.4932 72.2787C35.0362 72.6651 36.5228 72.8556 37.9405 72.8556C41.3883 72.8556 44.4224 71.7224 46.8472 69.5298C46.7726 78.3872 47.1418 87.1151 48.2054 89.7743C49.0765 91.9514 51.2043 97.2717 57.9256 97.2713C58.9119 97.2713 59.9974 97.1566 61.1916 96.9005C68.2064 95.3969 71.2527 92.2964 72.431 85.4611C73.0616 81.8081 74.1437 73.0851 74.6527 68.406C75.7269 68.7412 77.1097 68.8946 78.6046 68.8942C81.7225 68.8942 85.3202 68.2318 87.5764 67.1846C90.111 66.0074 94.6848 63.119 93.8554 60.6094V60.6094ZM77.1502 28.9914C77.1271 30.3727 76.937 31.6267 76.7355 32.9357C76.5185 34.3435 76.2942 35.7991 76.2378 37.5659C76.1821 39.2854 76.3969 41.0731 76.6044 42.8021C77.0241 46.2942 77.4547 49.8893 75.7878 53.4367C75.511 52.9461 75.2643 52.439 75.0493 51.9183C74.8421 51.4161 74.3922 50.6093 73.7691 49.4928C71.3455 45.1462 65.6699 34.9677 68.5753 30.8143C69.4408 29.5781 71.6371 28.307 77.1502 28.9914V28.9914ZM70.4675 5.58958C78.5478 5.76797 84.9396 8.79077 89.4649 14.5735C92.9358 19.0091 89.1138 39.1915 78.0494 56.603C77.9381 56.4616 77.8262 56.3205 77.7138 56.18L77.5737 56.005C80.4328 51.2831 79.8738 46.6112 79.3761 42.4692C79.1716 40.7694 78.9784 39.1639 79.0277 37.6557C79.0784 36.0574 79.2898 34.6863 79.4943 33.3607C79.7454 31.7271 80.0011 30.0368 79.9306 28.0441C79.9833 27.8351 80.0045 27.5881 79.9768 27.295C79.7969 25.3842 77.6153 19.6654 73.1688 14.4894C70.7365 11.6583 67.1895 8.49005 62.3464 6.35314C64.4295 5.92136 67.2781 5.51875 70.4675 5.58958V5.58958ZM25.2531 66.5759C23.0185 69.2628 21.4755 68.7477 20.9679 68.5787C17.6615 67.4758 13.8247 60.4871 10.4421 49.4049C7.51513 39.8157 5.80469 30.1731 5.6691 27.4692C5.24187 18.9178 7.31477 12.9582 11.8306 9.75545C19.1799 4.54385 31.2628 7.66323 36.118 9.24527C36.0483 9.31421 35.9755 9.37859 35.9066 9.44866C27.9392 17.4948 28.1282 31.2419 28.1479 32.0824C28.1472 32.4066 28.1744 32.8656 28.2115 33.497C28.3487 35.8093 28.6039 40.1126 27.9222 44.986C27.2889 49.5147 28.685 53.9472 31.7517 57.1473C32.0665 57.4751 32.3973 57.7871 32.7429 58.0821C31.3779 59.544 28.4111 62.777 25.2531 66.5759V66.5759ZM33.767 55.2161C31.2953 52.6368 30.1727 49.0492 30.6867 45.3723C31.4063 40.2244 31.1408 35.7407 30.998 33.3319C30.9779 32.9948 30.9601 32.6994 30.9499 32.4664C32.1138 31.4343 37.5076 28.5445 41.3542 29.4258C43.1093 29.8277 44.1789 31.023 44.6235 33.0789C46.9248 43.7229 44.9281 48.1592 43.3237 51.7244C42.993 52.4588 42.6806 53.153 42.4139 53.8711L42.2071 54.4264C41.6837 55.83 41.1966 57.1352 40.8947 58.3744C38.267 58.3669 35.7108 57.2443 33.767 55.2157V55.2161ZM34.1704 69.5707C33.4031 69.379 32.713 69.0461 32.3081 68.77C32.6463 68.6109 33.2482 68.3943 34.292 68.1792C39.3434 67.1395 40.1236 66.4055 41.8272 64.2424C42.2177 63.7463 42.6605 63.1842 43.2737 62.4994L43.2744 62.4987C44.1876 61.476 44.6054 61.6495 45.3629 61.9639C45.9768 62.2176 46.5749 62.9872 46.8173 63.8341C46.932 64.2341 47.0608 64.9931 46.6392 65.584C43.0805 70.5668 37.8947 70.5028 34.1704 69.5707V69.5707ZM60.6068 94.1712C54.4271 95.4954 52.2391 92.3423 50.7972 88.7377C49.8666 86.4107 49.409 75.917 49.7336 64.3284C49.7378 64.1742 49.7158 64.0254 49.6734 63.8853C49.6355 63.6085 49.5778 63.3349 49.5007 63.0664C49.0182 61.3802 47.8422 59.9697 46.4313 59.385C45.8708 59.1528 44.8421 58.7267 43.6058 59.0429C43.8694 57.9567 44.3266 56.7299 44.8224 55.4016L45.0303 54.843C45.2644 54.2131 45.5583 53.5605 45.8689 52.8697C47.5479 49.1398 49.8473 44.0308 47.3517 32.4892C46.4169 28.1661 43.2953 26.055 38.5632 26.5454C35.7263 26.839 33.1307 27.9835 31.8362 28.6399C31.5578 28.7808 31.3033 28.9172 31.0654 29.0497C31.4268 24.6941 32.7918 16.554 37.8981 11.4038C41.1133 8.16167 45.3951 6.56031 50.612 6.64667C60.8912 6.81483 67.483 12.0901 71.2031 16.4862C74.4088 20.2741 76.1446 24.09 76.8374 26.1481C71.6277 25.6183 68.0845 26.6466 66.2884 29.2145C62.3809 34.8003 68.4261 45.6416 71.3315 50.8521C71.8644 51.8069 72.3242 52.6322 72.4689 52.9829C73.415 55.2759 74.6399 56.8068 75.5341 57.9241C75.8083 58.2665 76.0742 58.5987 76.2764 58.8888C74.6986 59.3437 71.8644 60.3947 72.1227 65.6483C71.9144 68.2844 70.4331 80.6264 69.6805 84.9869C68.687 90.7477 66.5672 92.8933 60.6068 94.1716V94.1712ZM86.4012 64.653C84.7877 65.4018 82.0876 65.9635 79.5227 66.0843C76.6897 66.2168 75.2474 65.7669 74.908 65.49C74.7489 62.2161 75.9674 61.8741 77.257 61.512C77.4597 61.4552 77.6574 61.3995 77.8482 61.3329C77.9668 61.4294 78.0967 61.5253 78.2391 61.6192C80.5162 63.1221 84.5775 63.2842 90.3114 62.1006L90.3743 62.0881C89.6009 62.8111 88.2775 63.7815 86.4012 64.653Z" fill="white"/>
</g>
<defs>
<clipPath id="clip0">
<rect width="96.96" height="100" fill="white"/>
</clipPath>
</defs>
</svg>
