<svg width="297" height="609" viewBox="0 0 297 609" fill="none" xmlns="http://www.w3.org/2000/svg">
<path d="M294.672 354.666C295.862 354.666 294.672 339.53 294.672 326.776C294.672 314.021 285.318 185.965 285.318 185.965C285.318 185.965 282.852 112.754 275.794 105.697C268.736 98.6383 261.51 94.9836 259.638 90.7316C257.768 86.4796 255.726 76.4463 252.666 75.7663C252.666 75.7663 255.726 67.2623 256.408 63.0103C257.088 58.7596 262.02 52.977 259.978 42.7743C257.937 32.5716 261.849 13.8636 241.953 3.99963C222.056 -5.86304 207.6 4.33966 202.328 14.8837C197.056 25.4277 198.926 32.2303 197.397 37.1623C195.866 42.0943 194.165 44.4743 194.165 48.7263C194.165 52.9783 196.462 58.3343 197.906 59.7797C197.906 59.7797 200.798 66.753 200.798 72.5356C200.798 78.317 204.2 87.4997 209.81 88.3517C215.422 89.201 213.892 95.1516 213.892 98.5543C213.892 101.954 203.177 113.35 201.646 120.664C200.117 127.976 198.926 143.452 198.926 143.452C198.926 143.452 188.893 174.401 189.744 193.958C189.744 193.958 188.893 203.141 187.022 208.074C185.152 213.006 186.341 227.972 184.132 235.113C181.921 242.256 179.369 253.481 176.477 263.854C173.588 274.228 163.554 316.573 162.533 322.525C162.533 322.525 150.969 332.728 145.866 339.87C140.764 347.014 134.642 353.816 132.941 359.598C131.242 365.381 114.916 388.848 109.304 396.161C103.692 403.473 96.5491 405.856 92.8078 426.944C89.0651 448.03 77.8424 485.445 70.5291 506.702C63.2158 527.96 63.3851 555.169 63.3851 555.169C63.3851 555.169 55.3931 561.802 52.6731 567.925C49.9504 574.048 47.5704 577.788 47.5704 577.788C47.5704 577.788 37.0264 590.032 29.5438 592.922C22.0611 595.814 8.11443 596.154 3.01443 596.154C3.01443 596.154 -2.42824 601.086 1.31309 602.277C5.05442 603.468 22.7424 608.229 45.5291 606.868C68.3171 605.508 78.1811 600.065 78.1811 600.065L78.6904 606.189C78.6904 606.189 106.241 604.657 107.772 604.657C109.302 604.657 110.662 603.976 109.981 601.426C109.302 598.876 110.152 592.413 110.152 592.413C110.152 592.413 114.317 573.792 112.193 571.666C110.068 569.54 103.433 563.76 105.56 561.633C107.686 559.506 116.444 527.11 119.505 519.797C122.565 512.484 142.633 457.724 142.633 457.724C142.633 457.724 149.604 465.546 154.366 476.43C159.129 487.316 168.653 515.716 178.346 528.81C188.04 541.905 201.729 569.029 213.889 581.189C213.889 581.189 213.548 590.712 203.856 593.773C194.162 596.833 185.658 598.874 185.658 602.786C185.658 606.698 192.633 608.738 211.509 608.738C230.384 608.738 238.889 606.357 242.29 606.357C245.69 606.357 253.854 604.488 257.254 604.488C260.654 604.488 270.521 604.658 269.5 599.386C268.478 594.113 265.248 582.04 265.248 580.678C265.248 579.317 263.546 566.053 258.954 561.461C254.364 556.87 245.521 554.998 245.521 552.109C245.521 549.217 240.162 534.338 232.765 526.94C225.366 519.541 222.902 492.417 215.588 481.193C208.276 469.969 207.425 460.786 203.174 456.533C198.924 452.282 189.356 440.337 192.204 437.488C195.054 434.638 205.045 407.726 209.128 401.944C213.206 396.162 221.71 374.394 223.412 369.462C225.112 364.532 242.46 347.185 242.46 347.185C242.46 347.185 275.96 347.866 279.532 346.676C279.532 346.676 290.076 375.585 290.076 382.218C290.076 388.85 290.924 390.721 293.477 390.721C296.028 390.721 296.197 387.489 296.197 383.748C296.197 380.008 294.497 373.205 294.497 373.205C294.497 373.205 296.197 372.185 296.197 368.953C296.197 365.722 294.672 354.666 294.672 354.666Z" fill="black"/>
</svg>
