<svg width="457" height="599" viewBox="0 0 457 599" fill="none" xmlns="http://www.w3.org/2000/svg">
<path d="M256.916 106.432C254.652 96.756 254.858 74.5227 262.886 68.964C262.886 68.964 268.651 57.0239 271.532 59.9066C274.415 62.7879 275.648 54.964 278.326 57.6414C281.003 60.3187 284.914 52.7 286.767 54.5533C288.62 56.4067 291.663 52.156 293.766 54.2587C295.87 56.3627 299.428 52.804 302 55.3773C304.574 57.9507 309.515 53.8333 311.471 55.7893C313.426 57.744 317.235 55.7894 319.087 57.6414C320.94 59.4934 326.911 56.4053 326.911 60.7293C326.911 65.0533 326.91 69.9934 325.47 71.4347C324.028 72.876 320.734 75.5533 321.97 78.8467C323.206 82.1387 326.086 92.432 328.351 94.6973C330.616 96.9613 329.587 101.285 329.587 101.285C329.587 101.285 333.703 99.2253 337.614 97.3733C341.527 95.52 349.76 91.608 356.142 89.3453C362.524 87.08 370.347 83.716 381.876 80.0453C393.404 76.376 418.622 64.9506 423.872 59.7013C429.122 54.4506 435.607 43.848 437.666 31.0853C439.723 18.3213 440.342 0 444.047 0C447.752 0 446.516 4.94135 446.516 4.94135C446.516 4.94135 446.715 7.82267 446.715 17.2933V31.0853C446.715 31.0853 451.046 31.0853 449.811 37.056C448.576 43.0253 448.987 45.2906 448.987 50.6426C448.987 55.9946 447.548 62.172 439.519 66.9053C431.49 71.6413 361.702 120.843 359.026 120.843C359.026 120.843 363.966 124.136 360.878 127.224C357.79 130.312 343.38 139.575 340.086 139.575C336.792 139.575 325.984 143.383 325.058 144.311C324.131 145.236 316.411 148.84 314.559 150.692C312.707 152.544 314.559 157.691 314.559 157.691C314.559 157.691 327.735 160.161 332.264 160.161C336.792 160.161 340.294 158.309 344.204 158.309C348.115 158.309 360.158 156.56 362.319 158.721C364.482 160.883 373.231 160.985 374.878 160.985C376.524 160.985 412.139 157.28 420.991 155.839C429.843 154.397 438.9 154.811 441.164 140.605C443.43 126.4 447.752 111.785 447.752 109.932C447.752 108.077 449.604 95.932 452.075 95.932C454.547 95.932 454.34 99.02 454.34 99.02C454.34 99.02 455.378 104.167 454.344 107.667C454.344 107.667 457.222 108.489 455.78 116.931C454.34 125.372 456.184 143.9 456.184 149.457C456.184 155.016 451.458 160.161 445.899 162.839C440.342 165.513 378.171 192.893 373.436 192.893C368.7 192.893 362.319 195.981 360.878 195.981C359.436 195.981 353.672 203.187 347.496 203.187C341.32 203.187 325.263 202.159 321.97 200.717C318.675 199.276 302.619 198.864 302.619 198.864C302.619 198.864 299.736 222.333 284.503 233.243C269.27 244.153 265.564 254.24 261.035 262.681C256.504 271.123 245.594 286.767 243.331 294.796C241.066 302.824 231.595 319.088 231.595 321.764C231.595 324.44 243.742 345.439 251.564 366.849C259.388 388.259 268.239 395.257 271.944 402.463C275.651 409.668 274.21 425.313 271.534 442.195C268.859 459.075 264.947 472.868 264.947 484.808C264.947 496.748 261.447 524.952 261.447 528.04C261.447 531.127 263.3 538.125 261.859 543.068C260.418 548.008 263.506 551.301 265.976 553.773C268.446 556.243 279.974 569.211 290.062 571.476C300.15 573.74 308.384 570.24 309.826 575.799C311.266 581.356 314.147 585.061 308.384 587.325C302.619 589.592 269.27 591.443 258.358 587.325C247.448 583.209 246.419 586.504 246.419 586.504C246.419 586.504 222.746 591.033 220.48 577.033C218.215 563.035 224.186 555.419 225.42 550.065C226.656 544.712 228.611 538.229 226.45 536.068C224.29 533.904 221.715 518.156 226.039 506.423C230.362 494.689 229.332 469.985 229.332 460.309C229.332 450.633 230.155 429.843 226.862 424.283C223.567 418.724 193.306 381.465 188.16 376.319C183.012 371.171 175.395 362.112 175.395 362.112C175.395 362.112 145.752 387.64 137.928 402.668C130.104 417.696 112.195 435.605 106.019 439.517C99.8431 443.429 85.2285 456.604 80.4925 465.868C75.7565 475.132 65.8752 490.779 63.4058 501.688C60.9352 512.599 50.4365 525.98 50.4365 531.332C50.4365 536.684 44.8778 545.536 44.8778 545.536C44.8778 545.536 40.1431 555.419 47.1418 564.683C54.1418 573.947 61.1418 579.504 63.4058 583.621C65.6698 587.739 70.4045 596.384 60.7285 597.62C51.0538 598.856 23.8805 600.297 17.2925 590.621C10.7045 580.945 8.85381 579.917 3.49915 572.711C-1.85285 565.507 0.205824 562.005 1.44049 558.095C2.67649 554.183 5.66047 545.229 7.82181 543.067C9.98447 540.904 5.66048 534.729 10.4991 529.891C15.3365 525.053 12.7618 522.069 17.0858 522.069C21.4098 522.069 20.9978 517.333 20.9978 517.333C20.9978 517.333 22.0271 495.513 30.8805 479.248C39.7311 462.985 48.5831 440.545 53.3178 435.812C58.0525 431.077 61.1404 416.255 68.7578 414.401C76.3751 412.549 82.9631 391.14 87.9031 389.905C92.8431 388.669 103.96 344.821 106.843 335.351C109.724 325.881 116.723 296.648 122.488 286.151C128.251 275.652 126.192 274.004 128.458 267.416C130.722 260.829 150.382 242.816 155.22 237.98C160.056 233.141 173.232 208.027 179.1 202.159C184.966 196.291 205.656 161.4 212.656 157.281C219.656 153.164 219.347 131.239 222.126 128.46C224.906 125.681 235.712 117.756 239.418 117.756C243.124 117.756 252.387 114.256 254.24 112.403C256.094 110.551 256.916 106.432 256.916 106.432Z" fill="url(#paint0_linear)"/>
<defs>
<linearGradient id="paint0_linear" x1="228.092" y1="598.508" x2="228.092" y2="0" gradientUnits="userSpaceOnUse">
<stop/>
<stop offset="1" stop-opacity="0"/>
</linearGradient>
</defs>
</svg>
