<svg xmlns="http://www.w3.org/2000/svg" viewBox="0 0 512.08 512.08"><path d="M244.04 4.648h24v489.92h-24z"/><path d="M11.672 244.04h493.624v24H11.672zM255.752 196.688c-128.36 0-179.528-106.68-181.64-111.216l21.752-10.144L84.992 80.4l10.864-5.088c1.872 3.976 47.152 97.376 159.896 97.376 113.168 0 158.168-95.272 158.608-96.232l21.816 10c-2.064 4.496-52.016 110.232-180.424 110.232zM95.864 436.752l-21.752-10.144c2.112-4.536 53.28-111.216 181.64-111.216 128.408 0 178.36 105.736 180.424 110.232l-21.816 10c-1.816-3.904-45.928-96.232-158.608-96.232-113.224 0-159.44 96.384-159.888 97.36z"/><path d="M242.648 510.696c-4.848-4.44-118.752-110.36-118.752-254.656 0-144.512 116.504-246.512 121.472-250.792l15.664 18.176c-1.136.984-113.136 99.296-113.136 232.616 0 133.832 109.84 235.936 110.952 236.952l-16.2 17.704z"/><path d="M269.432 510.696L253.224 493c1.112-1.024 110.96-103.416 110.96-236.96 0-133.624-112-231.624-113.128-232.6l15.656-18.184c4.96 4.272 121.472 106.272 121.472 250.784 0 144.296-113.904 250.216-118.752 254.656z"/><path d="M256.04 512.08c-141.16 0-256-114.864-256-256.04S114.88 0 256.04 0s256 114.864 256 256.04-114.84 256.04-256 256.04zm0-488.08c-127.92 0-232 104.096-232 232.04s104.08 232.04 232 232.04 232-104.096 232-232.04S383.96 24 256.04 24z"/></svg>