<svg width="73" height="80" viewBox="0 0 73 80" fill="none" xmlns="http://www.w3.org/2000/svg">
<g clip-path="url(#clip0)">
<path d="M67.8368 39.3508C67.8368 35.2422 64.5062 31.9116 60.3976 31.9116C60.1333 31.9116 59.8727 31.9257 59.6157 31.9526L69.8334 1.81689H26.4118L36.615 31.9266C36.4655 31.9175 36.3151 31.9116 36.163 31.9116C32.0545 31.9116 28.7239 35.2422 28.7239 39.3508C28.7239 42.6717 30.9003 45.4833 33.9044 46.4399C32.3176 49.1882 30.3213 51.6634 28.0547 53.8016C24.9726 56.7093 21.4453 58.914 17.6304 60.2726C13.0882 57.9393 10.9432 52.7498 12.8788 48.1999C13.0973 47.6863 13.3203 47.1653 13.5338 46.6469C16.8242 45.8788 19.2762 42.9287 19.2762 39.4042C19.2762 35.2956 15.9456 31.965 11.8371 31.965C7.72824 31.965 4.39764 35.2956 4.39764 39.4042C4.39764 41.9238 5.65135 44.1488 7.56739 45.4946C5.72598 49.6871 3.01954 54.0744 2.17629 59.1594C1.16569 65.2538 2.17318 71.7228 7.44386 75.3759C19.7192 83.8836 33.0439 70.1019 47.093 66.6373C52.1845 65.3816 57.7735 65.584 62.2594 62.9858C65.6282 61.0347 67.8489 57.8014 68.4793 54.1711C69.1018 50.585 68.1941 47.0144 66.1068 44.1191C67.1863 42.8278 67.8368 41.1656 67.8368 39.3508ZM43.6016 39.377C43.6016 39.3683 43.6024 39.3595 43.6024 39.3508C43.6024 36.6528 42.1658 34.2901 40.0163 32.9861L48.1373 16.5646L56.2724 33.1602C54.2747 34.4939 52.9582 36.7684 52.9582 39.3508C52.9582 39.405 52.9613 39.4585 52.9624 39.5124L43.6016 39.377Z" fill="#C63D14"/>
<path d="M69.6534 39.3507C69.6534 34.8319 66.3977 31.0615 62.1091 30.2561L72.3675 0H23.8773L34.1512 30.3175C30.0119 31.2387 26.9069 34.9379 26.9069 39.3507C26.9069 42.6646 28.6581 45.5754 31.2828 47.211C30.0204 49.0917 28.5233 50.8616 26.8076 52.48C24.0871 55.0468 21.0558 56.9934 17.788 58.2739C14.4967 56.2064 13.1053 52.3076 14.5504 48.9108L14.6635 48.6451C14.7341 48.4789 14.8051 48.3121 14.8758 48.1453C18.4908 46.8848 21.0929 43.4437 21.0929 39.4041C21.0929 34.3002 16.9405 30.1481 11.8366 30.1481C6.73273 30.1481 2.58065 34.3002 2.58065 39.4041C2.58065 41.9802 3.6393 44.3129 5.34333 45.9926C5.03436 46.6513 4.70955 47.3207 4.3757 48.0065C2.81754 51.2068 1.0516 54.8342 0.383614 58.8622C-0.943029 66.8619 1.19662 73.2568 6.40849 76.869C9.57118 79.0609 12.7828 79.9231 16.0147 79.9228C22.1006 79.9225 28.2567 76.8653 34.2779 73.8745C38.6146 71.7207 43.0985 69.4934 47.5279 68.4011C49.176 67.9946 50.8718 67.7501 52.6672 67.4912C56.2273 66.9775 59.909 66.4466 63.17 64.558C66.9498 62.3686 69.5375 58.696 70.2691 54.482C70.8973 50.8644 70.1411 47.2415 68.2974 44.1688C69.157 42.7644 69.6534 41.1146 69.6534 39.3507ZM66.0198 39.3507C66.0198 42.4509 63.4977 44.9733 60.3972 44.9733C57.2973 44.9733 54.7749 42.4509 54.7749 39.3507C54.7749 36.2505 57.2973 33.7283 60.3972 33.7283C63.4977 33.7283 66.0198 36.2505 66.0198 39.3507ZM67.2987 3.63364L58.24 30.3511C57.8474 30.4452 57.4646 30.564 57.0929 30.7067L48.1442 12.4514L39.1695 30.5987C38.7816 30.465 38.3825 30.3551 37.9732 30.2736L28.9456 3.63364H67.2987ZM36.1628 33.7283C39.263 33.7283 41.7852 36.2505 41.7852 39.3507C41.7852 42.4509 39.263 44.9733 36.1628 44.9733C33.0629 44.9733 30.5405 42.4509 30.5405 39.3507C30.5405 36.2505 33.0629 33.7283 36.1628 33.7283ZM11.8366 33.7818C14.9371 33.7818 17.4592 36.3039 17.4592 39.4041C17.4592 42.5043 14.9371 45.0267 11.8366 45.0267C8.73669 45.0267 6.21429 42.5043 6.21429 39.4041C6.21429 36.3039 8.73669 33.7818 11.8366 33.7818ZM66.6889 53.8604C66.1419 57.0117 64.1953 59.7648 61.3487 61.4134C58.6951 62.9504 55.5152 63.4092 52.1484 63.8946C50.3449 64.1546 48.4797 64.4237 46.6578 64.8732C41.8403 66.0611 37.174 68.3788 32.6615 70.6202C23.6311 75.1056 15.8321 78.9789 8.4786 73.8824C3.09202 70.1493 3.34079 63.2418 3.96835 59.4567C4.54983 55.95 6.12213 52.7203 7.6427 49.5969C7.90588 49.0564 8.16142 48.5269 8.41217 48.0008C9.16637 48.3025 9.96835 48.508 10.8043 48.6013C9.25655 53.7097 11.6908 59.2639 16.7997 61.8886L17.4988 62.2479L18.2394 61.9842C22.2785 60.5459 26 58.2375 29.3012 55.1231C31.4352 53.1101 33.269 50.8828 34.7768 48.5029C35.2291 48.571 35.6919 48.6069 36.1628 48.6069C41.2667 48.6069 45.4191 44.4548 45.4191 39.3507C45.4191 36.6058 44.2168 34.1374 42.3127 32.4407L48.1298 20.6776L54.0059 32.6649C52.2428 34.3514 51.1412 36.724 51.1412 39.3507C51.1412 44.4548 55.2933 48.6069 60.3972 48.6069C62.3582 48.6069 64.1773 47.9924 65.6755 46.9481C66.7158 49.0776 67.1033 51.4736 66.6889 53.8604Z" fill="white"/>
</g>
<defs>
<clipPath id="clip0">
<rect width="72.3675" height="80" fill="white"/>
</clipPath>
</defs>
</svg>
