<svg width="67" height="80" viewBox="0 0 67 80" fill="none" xmlns="http://www.w3.org/2000/svg">
<g clip-path="url(#clip0)">
<path d="M5.74417 6.56607C9.37624 2.61994 14.5854 0.0972853 19.9755 0.0153587C24.0991 -0.148494 28.2671 1.00189 31.691 3.3129C36.1184 6.21105 39.3511 10.8467 40.6107 15.9774C40.8804 16.9571 40.8053 18.1587 41.6519 18.8721C43.2597 19.2579 44.9392 18.9779 46.5641 19.2749C50.7082 20.2683 54.5144 22.5827 57.3272 25.7813C58.0031 26.5186 58.5424 27.372 58.9281 28.2937C61.048 32.6597 61.3825 37.5787 62.2632 42.2826C63.0791 48.5876 64.1919 54.8481 65.2331 61.1189C66.1821 66.922 67.1618 72.79 66.8784 78.6887C65.5676 78.2006 64.4343 77.197 63.9803 75.8554C63.3283 73.7288 63.1235 71.5031 62.8538 69.3047C62.7514 68.3762 61.9799 67.4853 60.9831 67.5877C59.5358 67.5638 58.9043 69.3935 59.3412 70.5644C60.0819 72.3087 61.4269 73.6878 62.6797 75.0703C63.3658 75.8008 63.6287 76.7976 64.1749 77.6203C64.8815 78.4669 65.8987 78.9482 66.8955 79.368C66.5405 79.5797 66.2503 79.9825 65.7861 79.921C64.2807 79.9927 62.7753 79.9108 61.2699 79.9347C59.4197 79.9142 57.5491 80.1429 55.7194 79.7572C53.1592 73.3976 50.22 67.1985 47.4243 60.938C46.052 57.7941 44.6524 54.6604 43.2221 51.5437C41.6143 48.0858 40.2352 44.5254 38.5284 41.1152C38.2758 39.9204 37.5726 38.9066 37.1118 37.7937C36.4052 36.0494 35.6166 34.3323 34.7154 32.6802C30.2402 41.0367 25.9561 49.4922 21.6243 57.9204C17.9819 65.1743 14.0119 72.2712 10.67 79.6753C7.27346 79.6514 3.88034 79.5729 0.483801 79.549C9.28749 62.9725 17.8352 46.2629 26.4921 29.6079C27.2499 28.123 28.0726 26.6654 28.6597 25.1019C26.987 25.5867 25.4646 26.5186 23.727 26.7985C20.1359 27.529 16.4697 26.7644 13.1073 25.4604C17.347 21.5689 23.3925 20.1078 29.0284 20.3878C28.5539 18.8687 27.8712 17.4077 26.8846 16.1515C28.0555 14.0248 29.9364 12.475 31.7627 10.9389C29.1171 10.6283 26.8471 12.4067 25.2256 14.3013C24.2186 13.6118 23.1536 13.0144 22.051 12.4989C22.2319 10.5736 23.0785 8.83612 23.9728 7.15662C21.8325 7.66184 20.566 9.72707 19.9482 11.6933C18.6066 11.4919 17.248 11.4714 15.8928 11.5533C15.6573 10.0343 15.647 8.49476 15.787 6.96546C14.1041 7.98272 14.1553 10.2016 14.1416 11.9288C12.8786 12.3897 11.6736 12.9905 10.5198 13.6766C9.83708 12.6286 9.33528 11.4851 8.83007 10.3449C7.99373 11.8162 8.62866 13.5469 9.22605 14.984C8.5365 15.9842 7.91522 17.0288 7.35539 18.1075C6.46102 17.6569 5.59397 17.1585 4.71667 16.6738C4.95904 17.93 5.7783 18.937 6.83652 19.6095C6.54295 20.9237 6.42006 22.2618 6.40982 23.6034C5.51546 23.6853 4.61768 23.7399 3.7199 23.8253C4.45382 24.6138 5.51204 24.7981 6.53271 24.8835C6.79556 25.9588 7.11302 27.0238 7.50217 28.0615C6.94576 28.6043 6.38593 29.1402 5.8534 29.7069C6.61464 29.5943 7.3588 29.4099 8.08931 29.1778C9.03147 30.0619 10.1887 30.6456 11.2981 31.2874C11.2435 31.5468 11.1308 32.0657 11.0762 32.3251C11.4483 32.0828 11.817 31.8404 12.1891 31.598C14.285 32.2022 16.5687 32.4992 18.6749 31.7687C19.9687 31.3625 21.0166 30.4374 22.2933 29.9971C21.8154 32.2227 19.9482 33.9022 17.9649 34.8546C15.0667 36.2269 11.6941 35.8446 8.77545 34.7488C6.77849 34.1719 5.17068 32.7484 3.84279 31.2055C1.7127 28.7886 0.296052 25.7164 0.0434456 22.494C-0.338878 16.7011 1.82193 10.8228 5.74417 6.56607ZM48.2743 38.2204C48.0661 39.3025 48.107 40.4529 48.4654 41.4975C49.4144 44.1191 52.1829 45.3378 54.487 46.5257C54.3164 45.9454 54.1491 45.3651 53.9852 44.7848C51.0018 44.481 49.3154 40.2208 51.6503 38.1487C51.3636 37.4797 51.0734 36.8106 50.7867 36.1381C49.8206 36.6229 48.6054 37.0803 48.2743 38.2204ZM52.1521 40.0331C51.9098 41.2483 52.1487 42.7401 53.5005 43.1702C53.1762 42.0846 52.9373 40.9001 52.1521 40.0331Z" fill="#FFAA00"/>
</g>
<defs>
<clipPath id="clip0">
<rect width="66.9281" height="80" fill="white"/>
</clipPath>
</defs>
</svg>
