<svg width="67" height="80" viewBox="0 0 67 80" fill="none" xmlns="http://www.w3.org/2000/svg">
<g clip-path="url(#clip0)">
<path d="M62.255 10.5732C54.8346 -0.0472438 40.1795 -3.19518 29.5831 3.55611L10.9732 15.417C5.88987 18.6151 2.38852 23.8062 1.32778 29.7174C0.440053 34.6419 1.22032 39.7217 3.54504 44.1527C1.95208 46.5691 0.865609 49.2835 0.351296 52.1316C-0.719698 58.1564 0.681265 64.3586 4.23791 69.338C11.6598 79.9595 26.3151 83.106 36.9098 76.3551L55.5196 64.4942C60.6034 61.2965 64.1048 56.1052 65.1651 50.1938C66.0527 45.2694 65.273 40.1897 62.9495 35.7582C64.542 33.3418 65.628 30.6276 66.1419 27.7796C67.2136 21.7548 65.8125 15.5524 62.2552 10.5732" fill="#FF3E00"/>
<path d="M27.7634 70.3482C21.763 71.9084 15.4264 69.5597 11.8926 64.4654C9.75273 61.4702 8.90976 57.7392 9.55411 54.1149C9.66212 53.5259 9.81076 52.9451 9.99897 52.3766L10.3495 51.3076L11.3033 52.0081C13.5058 53.6264 15.9685 54.8569 18.5852 55.6464L19.277 55.8563L19.2133 56.5468C19.1288 57.5291 19.3948 58.5097 19.9641 59.3146C21.0276 60.8491 22.9354 61.5572 24.7425 61.0882C25.1471 60.98 25.5327 60.8106 25.886 60.5857L44.5018 48.7226C45.4228 48.1427 46.0575 47.2022 46.2508 46.1311C46.4437 45.0388 46.1898 43.9147 45.546 43.0114C44.4819 41.4766 42.5736 40.7682 40.7658 41.2368C40.3617 41.345 39.9766 41.5143 39.6238 41.739L32.5202 46.2674C31.3521 47.0101 30.0773 47.5699 28.7401 47.9274C22.7397 49.4875 16.4033 47.1387 12.8696 42.0445C10.7296 39.0494 9.88659 35.3184 10.531 31.6941C11.169 28.1385 13.2754 25.0161 16.3334 23.0931L34.9476 11.229C36.1162 10.4851 37.3919 9.92458 38.7303 9.56701C44.7306 8.00693 51.067 10.3557 54.6007 15.4498C56.7406 18.445 57.5836 22.176 56.9392 25.8003C56.8307 26.3892 56.6821 26.97 56.4944 27.5387L56.1438 28.6076L55.1906 27.9082C52.9882 26.2889 50.5253 25.0579 47.9082 24.2683L47.2163 24.0583L47.28 23.3678C47.3638 22.3856 47.0979 21.4053 46.5292 20.6001C45.4657 19.0656 43.5579 18.3575 41.7508 18.8265C41.3462 18.9347 40.9606 19.1041 40.6074 19.3291L21.9916 31.1926C21.0707 31.7721 20.4363 32.7125 20.2439 33.7833C20.0498 34.8756 20.3033 36.0001 20.9473 36.9035C22.0115 38.4382 23.9197 39.1466 25.7276 38.678C26.132 38.5697 26.5176 38.4002 26.8709 38.1755L33.9736 33.6488C35.1413 32.9051 36.416 32.3448 37.7534 31.9875C43.7537 30.4273 50.0901 32.7761 53.6239 37.8703C55.7639 40.8654 56.6068 44.5965 55.9624 48.2207C55.324 51.7766 53.2178 54.8992 50.16 56.8232L31.5457 68.6862C30.3771 69.4301 29.1014 69.9906 27.7631 70.3482" fill="white"/>
</g>
<defs>
<clipPath id="clip0">
<rect width="66.4935" height="80" fill="white"/>
</clipPath>
</defs>
</svg>
