<svg width="81" height="80" viewBox="0 0 81 80" fill="none" xmlns="http://www.w3.org/2000/svg">
<g clip-path="url(#clip0)">
<path fill-rule="evenodd" clip-rule="evenodd" d="M78.8769 59.3789L78.5154 60.3186C72.3581 72.3114 61.443 79.6713 45.8754 79.9933C38.6009 80.1445 31.6615 78.2782 27.1338 76.2476C17.3556 71.8579 9.13479 63.7094 4.64653 55.0089C-1.79342 42.5364 -2.95655 25.1814 10.4359 12.2227C10.6396 12.2227 8.81279 15.0352 9.0165 15.0352L8.64851 16.2378C-1.00485 46.453 28.7306 72.3442 57.6316 69.3871C64.5841 68.6643 73.4423 64.8594 78.8769 59.3789Z" fill="#21609B"/>
<path fill-rule="evenodd" clip-rule="evenodd" d="M61.3838 46.887C68.6583 46.9396 76.2482 43.5356 80.7496 38.7648C76.8134 48.7533 65.4186 55.1736 50.1401 53.1299C37.3457 51.4147 25.1623 38.5414 23.9072 25.6418C22.9872 16.2513 26.2597 10.6525 31.6548 3.85107C29.782 7.40619 29.0789 10.1465 28.908 11.8944C26.8512 32.2132 45.1262 46.7819 61.3838 46.887Z" fill="#21609B"/>
<path fill-rule="evenodd" clip-rule="evenodd" d="M80.02 21.6658C78.8897 24.2615 72.384 29.1572 69.5058 29.7684C58.1241 32.1932 50.8365 26.7981 47.0185 20.6539C46.4534 19.7339 45.402 17.2302 45.2114 16.5927C43.7328 11.5591 44.4097 3.94283 48.8256 0C47.4982 3.74569 47.3011 8.10251 48.0042 10.9348C48.4314 12.6433 49.7194 15.6333 51.0139 17.5127C53.3665 20.9364 54.8582 21.7644 57.8876 23.5847C59.2479 24.3995 60.7133 25.0567 61.3441 25.2407C64.2092 26.0818 70.2615 28.3029 80.02 21.6658Z" fill="#21609B"/>
</g>
<defs>
<clipPath id="clip0">
<rect width="80.7491" height="80" fill="white"/>
</clipPath>
</defs>
</svg>
