<svg width="80" height="80" viewBox="0 0 80 80" fill="none" xmlns="http://www.w3.org/2000/svg">
<mask id="mask0" mask-type="alpha" maskUnits="userSpaceOnUse" x="0" y="0" width="80" height="80">
<path d="M40 0C62.1091 0 80 17.8909 80 40C80 62.1091 62.1091 80 40 80C17.8909 80 0 62.1091 0 40C0 17.8909 17.8909 0 40 0Z" fill="white"/>
</mask>
<g mask="url(#mask0)">
<g filter="url(#filter0_d)">
<path d="M40 0.9375C61.5909 0.9375 79.0625 18.4091 79.0625 40C79.0625 61.5909 61.5909 79.0625 40 79.0625C18.4091 79.0625 0.9375 61.5909 0.9375 40C0.9375 18.4091 18.4091 0.9375 40 0.9375Z" fill="black"/>
</g>
<path d="M40 0.9375C61.5909 0.9375 79.0625 18.4091 79.0625 40C79.0625 61.5909 61.5909 79.0625 40 79.0625C18.4091 79.0625 0.9375 61.5909 0.9375 40C0.9375 18.4091 18.4091 0.9375 40 0.9375Z" fill="white"/>
<path d="M40.0005 2.30811C60.8338 2.30811 77.6924 19.1667 77.6924 40C77.6924 60.8333 60.8338 77.6919 40.0005 77.6919C19.1671 77.6919 2.30859 60.8333 2.30859 40C2.30859 19.1667 19.1671 2.30811 40.0005 2.30811Z" fill="#353535"/>
<g style="mix-blend-mode:screen">
<path d="M60.0113 56.5843C58.6407 60.8332 56.5848 63.9857 53.7065 66.3157C50.8282 68.6457 46.9905 69.8793 42.1933 70.2905L41.2339 63.9857C44.3863 63.5745 46.7163 62.8892 48.224 61.7927C48.7723 61.3815 49.8688 60.1479 49.8688 60.1479L38.4927 23.6896H47.9499L54.5288 50.9648L61.519 23.6896H70.7021L60.0113 56.5843ZM26.9795 22.4561C29.1725 22.4561 31.2284 22.7302 32.8731 23.4155C34.6549 24.1008 36.2997 25.0602 37.9444 26.4308L34.1067 31.6392C33.0102 30.8168 31.9137 30.2686 30.9543 29.8574C29.9948 29.4462 28.7613 29.3091 27.6648 29.3091C23.0047 29.3091 20.6747 32.8727 20.6747 40.137C20.6747 43.8376 21.2229 46.4418 22.4565 47.9495C23.69 49.5942 25.3348 50.2795 27.6648 50.2795C28.7613 50.2795 29.8578 50.1425 30.8172 49.7313C31.7766 49.3201 32.8731 48.7718 34.2438 47.9495L38.0815 53.4319C34.9291 56.0361 31.3655 57.2696 27.2536 57.2696C23.9641 57.2696 21.2229 56.5843 18.7558 55.2137C16.4258 53.8431 14.5069 51.7872 13.2734 49.183C12.0398 46.5789 11.3545 43.5635 11.3545 39.9999C11.3545 36.5734 12.0398 33.421 13.2734 30.8168C14.5069 28.0756 16.4258 26.0197 18.7558 24.512C21.0859 23.2784 23.8271 22.4561 26.9795 22.4561Z" fill="#896A40"/>
</g>
</g>
<defs>
<filter id="filter0_d" x="-3.0625" y="-3.0625" width="86.125" height="86.125" filterUnits="userSpaceOnUse" color-interpolation-filters="sRGB">
<feFlood flood-opacity="0" result="BackgroundImageFix"/>
<feColorMatrix in="SourceAlpha" type="matrix" values="0 0 0 0 0 0 0 0 0 0 0 0 0 0 0 0 0 0 127 0"/>
<feOffset/>
<feGaussianBlur stdDeviation="2"/>
<feColorMatrix type="matrix" values="0 0 0 0 0 0 0 0 0 0 0 0 0 0 0 0 0 0 0.3 0"/>
<feBlend mode="normal" in2="BackgroundImageFix" result="effect1_dropShadow"/>
<feBlend mode="normal" in="SourceGraphic" in2="effect1_dropShadow" result="shape"/>
</filter>
</defs>
</svg>
