<svg width="100" height="100" viewBox="0 0 100 100" fill="none" xmlns="http://www.w3.org/2000/svg">
<path fill-rule="evenodd" clip-rule="evenodd" d="M0 50V0H100V100H0V50Z" fill="#007ACC"/>
<path fill-rule="evenodd" clip-rule="evenodd" d="M21.9238 50.1707V54.2479H34.9202V91.2514H44.1488V54.2479H57.1452V50.244C57.1452 47.9979 57.1452 46.1668 57.0475 46.118C57.0475 46.0447 49.1211 46.0203 39.4938 46.0203L21.9971 46.0936V50.1951L21.9238 50.1707ZM80.3467 45.9959C82.8939 46.5981 84.847 47.7456 86.5967 49.5685C87.5244 50.5695 88.8997 52.3191 88.9974 52.7667C88.9974 52.9132 84.6761 55.8429 82.0475 57.4705C81.9499 57.5438 81.5511 57.1206 81.1442 56.4695C79.8421 54.6222 78.5156 53.8165 76.4404 53.6701C73.4375 53.4666 71.4437 55.0454 71.4437 57.6658C71.4437 58.4634 71.5902 58.9191 71.8913 59.562C72.5667 60.9373 73.82 61.7593 77.6937 63.4601C84.847 66.5363 87.9476 68.5626 89.8193 71.4598C91.9434 74.7068 92.4154 79.8094 90.9912 83.6342C89.388 87.8091 85.4899 90.6329 79.9154 91.5607C78.1657 91.8618 74.1618 91.813 72.29 91.4874C68.2943 90.7387 64.4613 88.7368 62.1175 86.1652C61.1898 85.1642 59.4157 82.4868 59.5215 82.3159L60.4736 81.7137L64.2253 79.5408L67.0492 77.8888L67.7002 78.7677C68.5221 80.0698 70.3776 81.8195 71.4518 82.4217C74.6989 84.0981 79.0527 83.8703 81.2012 81.9253C82.1289 81.0789 82.5277 80.1756 82.5277 78.9223C82.5277 77.7749 82.3486 77.2459 81.779 76.3751C80.9814 75.2765 79.3783 74.3732 74.8779 72.3794C69.7022 70.1821 67.5049 68.7824 65.4541 66.6258C64.2822 65.3237 63.208 63.2973 62.7035 61.629C62.3291 60.1805 62.207 56.6323 62.557 55.2C63.6312 50.2033 67.4072 46.7039 72.8109 45.7029C74.5605 45.353 78.6865 45.4995 80.4118 45.9552L80.3467 45.9959Z" fill="white"/>
</svg>
