<svg width="94" height="70" viewBox="0 0 94 70" fill="none" xmlns="http://www.w3.org/2000/svg">
<g clip-path="url(#clip0)">
<path d="M80.3113 40.2914C77.0642 40.3084 74.2421 41.0905 71.879 42.2465C71.012 40.5295 70.145 38.9994 69.992 37.8774C69.822 36.5683 69.618 35.7693 69.822 34.2052C70.026 32.6412 70.944 30.4141 70.927 30.2441C70.91 30.0741 70.723 29.2751 68.8529 29.2581C66.9829 29.2411 65.3678 29.6151 65.1808 30.1081C64.9938 30.6011 64.6368 31.7231 64.3988 32.8792C64.0758 34.5792 60.6586 40.6485 58.7036 43.8276C58.0745 42.5865 57.5305 41.4985 57.4115 40.6315C57.2415 39.3224 57.0375 38.5234 57.2415 36.9593C57.4455 35.3953 58.3636 33.1682 58.3466 32.9982C58.3296 32.8282 58.1425 32.0291 56.2725 32.0121C54.4024 31.9951 52.7874 32.3692 52.6004 32.8622C52.4133 33.3552 52.2093 34.5112 51.8183 35.6333C51.4273 36.7553 46.8881 46.8877 45.6981 49.5058C45.0861 50.8488 44.5591 51.9199 44.185 52.6509C44.185 52.6509 44.168 52.7019 44.117 52.7869C43.794 53.4159 43.607 53.7559 43.607 53.7559C43.607 53.7559 43.607 53.7559 43.607 53.7729C43.352 54.2319 43.08 54.657 42.944 54.657C42.842 54.657 42.655 53.4329 42.978 51.7669C43.658 48.2477 45.2731 42.7735 45.2561 42.5865C45.2561 42.4845 45.5621 41.5325 44.202 41.0395C42.876 40.5465 42.4 41.3625 42.281 41.3625C42.162 41.3625 42.077 41.6515 42.077 41.6515C42.077 41.6515 43.556 35.4973 39.2549 35.4973C36.5688 35.4973 32.8626 38.4384 31.0266 41.0905C29.8705 41.7195 27.4054 43.0625 24.7704 44.5076C23.7673 45.0686 22.7303 45.6296 21.7612 46.1567C21.6932 46.0887 21.6252 46.0037 21.5572 45.9356C16.3551 40.3764 6.73271 36.4493 7.14072 28.986C7.29373 26.2659 8.22876 19.1257 25.6204 10.4554C39.9349 3.40013 51.3253 5.3552 53.2974 9.69035C56.1195 15.8786 47.1942 27.371 32.4036 29.037C26.7594 29.6661 23.8013 27.49 23.0533 26.674C22.2713 25.8239 22.1523 25.7729 21.8632 25.9429C21.3872 26.1979 21.6932 26.963 21.8632 27.405C22.3053 28.561 24.1243 30.6011 27.2014 31.6041C29.9215 32.4882 36.5348 32.9812 44.5421 29.8871C53.5014 26.419 60.5056 16.7796 58.4486 8.70432C56.3915 0.510024 42.791 -2.19307 29.9215 2.38009C22.2713 5.10019 13.975 9.38434 8.00775 14.9605C0.918499 21.5908 -0.20354 27.354 0.255476 29.7681C1.90453 38.3364 13.72 43.9126 18.4461 48.0437C18.2081 48.1797 17.9871 48.2987 17.8001 48.4007C15.437 49.5738 6.4267 54.2829 4.18262 59.2641C1.63253 64.9083 4.59063 68.9545 6.5457 69.4985C12.6149 71.1815 18.8541 68.1554 22.2033 63.1573C25.5524 58.1591 25.1444 51.6648 23.5973 48.6897C23.5803 48.6557 23.5633 48.6217 23.5293 48.5877C24.1413 48.2307 24.7704 47.8567 25.3824 47.4997C26.5894 46.7857 27.7795 46.1227 28.7995 45.5786C28.2215 47.1597 27.7965 49.0468 27.5925 51.7669C27.3374 54.963 28.6465 59.1111 30.3636 60.7432C31.1286 61.4572 32.0296 61.4742 32.6076 61.4742C34.6137 61.4742 35.5147 59.8081 36.5178 57.8361C37.7418 55.422 38.8469 52.6169 38.8469 52.6169C38.8469 52.6169 37.4698 60.1992 41.2099 60.1992C42.57 60.1992 43.947 58.4311 44.5591 57.5301V57.5471C44.5591 57.5471 44.5931 57.4961 44.6611 57.3771C44.7971 57.156 44.8821 57.02 44.8821 57.02V56.986C45.4261 56.034 46.6501 53.8749 48.4692 50.2878C50.8153 45.6636 53.0764 39.8834 53.0764 39.8834C53.0764 39.8834 53.2804 41.2945 53.9774 43.6406C54.3854 45.0176 55.2354 46.5307 55.9155 47.9927C55.3714 48.7577 55.0314 49.1828 55.0314 49.1828C55.0314 49.1828 55.0314 49.1828 55.0484 49.1998C54.6064 49.7778 54.1304 50.4068 53.6034 51.0188C51.7503 53.2289 49.5402 55.762 49.2342 56.493C48.8772 57.3601 48.9622 57.9891 49.6422 58.4991C50.1353 58.8731 51.0193 58.9241 51.9203 58.8731C53.5864 58.7541 54.7594 58.3461 55.3374 58.0911C56.2385 57.7681 57.2925 57.275 58.2786 56.544C60.0976 55.201 61.2027 53.2799 61.1007 50.7468C61.0496 49.3528 60.5906 47.9587 60.0296 46.6497C60.1996 46.4117 60.3526 46.1737 60.5226 45.9356C63.3957 41.7365 65.6228 37.1293 65.6228 37.1293C65.6228 37.1293 65.8268 38.5404 66.5238 40.8865C66.8639 42.0765 67.5609 43.3686 68.1729 44.6266C65.4698 46.8197 63.8037 49.3698 63.2087 51.0358C62.1377 54.1299 62.9707 55.524 64.5518 55.847C65.2658 56 66.2858 55.66 67.0339 55.337C67.9859 55.031 69.1079 54.504 70.179 53.7219C71.998 52.3789 73.7491 50.5088 73.6471 47.9757C73.5961 46.8197 73.2901 45.6806 72.8651 44.5756C75.1602 43.6236 78.1183 43.0965 81.8924 43.5386C89.9847 44.4906 91.5827 49.5398 91.2767 51.6648C90.9707 53.7899 89.2707 54.946 88.7096 55.303C88.1486 55.66 87.9616 55.779 88.0126 56.034C88.0806 56.408 88.3526 56.391 88.8286 56.323C89.4917 56.204 93.0788 54.606 93.2318 50.6958C93.4868 45.6976 88.7266 40.2404 80.3113 40.2914ZM17.8851 61.3382C15.199 64.2623 11.4589 65.3673 9.84382 64.4323C8.10976 63.4293 8.78978 59.1111 12.0879 56.017C14.094 54.1299 16.6781 52.3789 18.3951 51.3078C18.7861 51.0698 19.3642 50.7298 20.0612 50.3048C20.1802 50.2368 20.2482 50.2028 20.2482 50.2028C20.3842 50.1178 20.5202 50.0328 20.6562 49.9478C21.8632 54.3679 20.7072 58.2611 17.8851 61.3382ZM37.4358 48.0437C36.5008 50.3218 34.5457 56.153 33.3557 55.83C32.3356 55.558 31.7066 51.1378 33.1517 46.7687C33.8827 44.5756 35.4297 41.9575 36.3308 40.9375C37.7928 39.3054 39.4079 38.7614 39.7989 39.4244C40.2919 40.2914 38.0138 46.6157 37.4358 48.0437ZM53.5694 55.762C53.1784 55.966 52.8044 56.102 52.6344 56C52.5153 55.932 52.8044 55.66 52.8044 55.66C52.8044 55.66 54.8274 53.4839 55.6265 52.4979C56.0855 51.9199 56.6295 51.2398 57.2075 50.4748V50.6958C57.2075 53.2969 54.6914 55.048 53.5694 55.762ZM66.0138 52.9229C65.7248 52.7189 65.7758 52.0389 66.7449 49.9138C67.1189 49.0808 68.0029 47.6867 69.516 46.3437C69.686 46.8877 69.805 47.4147 69.788 47.9077C69.771 51.1888 67.4249 52.4129 66.0138 52.9229Z" fill="#BA6332"/>
</g>
<defs>
<clipPath id="clip0">
<rect width="93.3333" height="70" fill="white"/>
</clipPath>
</defs>
</svg>
