<svg width="99" height="100" viewBox="0 0 99 100" fill="none" xmlns="http://www.w3.org/2000/svg">
<path fill-rule="evenodd" clip-rule="evenodd" d="M-1 0H99V100H-1V0Z" fill="#F7DF1E"/>
<path fill-rule="evenodd" clip-rule="evenodd" d="M25.2939 83.5692L32.9437 78.9386C34.4167 81.5591 35.7594 83.7726 38.9821 83.7726C42.0664 83.7726 44.0195 82.5682 44.0195 77.8644V45.9064H53.4189V77.9946C53.4189 87.7277 47.7142 92.1548 39.389 92.1548C31.8695 92.1548 27.5075 88.2648 25.2939 83.5692ZM58.5215 82.5601L66.1712 78.133C68.1894 81.4207 70.8018 83.8377 75.4323 83.8377C79.3223 83.8377 81.8125 81.8927 81.8125 79.2072C81.8125 75.9845 79.2653 74.8452 74.9684 72.9653L72.6165 71.9562C65.8376 69.0672 61.3372 65.4458 61.3372 57.7961C61.3372 50.7485 66.7083 45.3774 75.0986 45.3774C81.0719 45.3774 85.3688 47.4608 88.4531 52.897L81.137 57.5926C79.5257 54.7036 77.7842 53.5643 75.0986 53.5643C72.348 53.5643 70.5983 55.3058 70.5983 57.5926C70.5983 60.4084 72.3398 61.5558 76.3682 63.2974L78.72 64.3065C86.7116 67.7326 91.2038 71.2238 91.2038 79.077C91.2038 87.5324 84.555 92.1629 75.6276 92.1629C66.9118 92.1629 61.2721 87.9963 58.5215 82.5601Z" fill="black"/>
</svg>
