<svg width="90" height="90" viewBox="0 0 90 90" fill="none" xmlns="http://www.w3.org/2000/svg">
<g clip-path="url(#clip0)">
<path d="M88.3026 40.9905L49.0078 1.69774C46.7462 -0.565264 43.0759 -0.565264 40.8115 1.69774L32.6517 9.85751L43.0028 20.2086C45.4082 19.3958 48.1665 19.941 50.0839 21.8584C52.0105 23.7882 52.5519 26.5701 51.7194 28.9832L61.695 38.9592C64.1085 38.1277 66.8932 38.6656 68.8208 40.5964C71.5148 43.2893 71.5148 47.654 68.8208 50.3487C66.1261 53.0438 61.7614 53.0438 59.0653 50.3487C57.0389 48.3202 56.5383 45.3442 57.5641 42.8478L48.2611 33.5447L48.26 58.0265C48.9344 58.3599 49.5504 58.8004 50.0839 59.3308C52.778 62.0238 52.778 66.3888 50.0839 69.0856C47.3892 71.7793 43.0225 71.7793 40.3316 69.0856C37.6376 66.3888 37.6376 62.0241 40.3316 59.3311C40.9772 58.6852 41.7445 58.1737 42.589 57.8261V33.1162C41.7432 32.7709 40.9755 32.2591 40.3316 31.6111C38.2904 29.5728 37.7996 26.5778 38.8455 24.0715L28.6418 13.8667L1.69805 40.8087C-0.566016 43.0738 -0.566016 46.7445 1.69805 49.0079L40.9936 88.3013C43.2559 90.5647 46.9255 90.5647 49.1906 88.3013L88.3023 49.1903C90.5657 46.9263 90.5657 43.2535 88.3023 40.9905" fill="#DE4C36"/>
</g>
<defs>
<clipPath id="clip0">
<rect width="90" height="90" fill="white"/>
</clipPath>
</defs>
</svg>
