<svg width="46" height="100" viewBox="0 0 46 100" fill="none" xmlns="http://www.w3.org/2000/svg">
<g clip-path="url(#clip0)">
<path d="M34.855 96.952L35.8138 80.975L38.4614 76.4555C38.4614 76.4555 32.4356 78.9206 22.3474 78.9206C12.2591 78.9206 6.32461 76.5011 6.32461 76.5011L9.29175 81.4312L10.3414 96.952C10.3414 98.616 15.8289 99.9647 22.5983 99.9647C29.3674 99.9647 34.855 98.616 34.855 96.952V96.952ZM31.8304 22.3416L33.843 14.3866L44.988 2.65941L42.0506 0.157471L30.2513 12.6499L27.9145 22.1539C26.1559 22.095 24.3963 22.0657 22.6366 22.0661C10.2098 22.0661 0.135742 23.4824 0.135742 25.229C0.135742 26.9758 10.2098 28.3919 22.6366 28.3919C35.0633 28.3919 45.1372 26.9758 45.1372 25.229C45.1372 23.9428 39.6735 22.8357 31.8304 22.3416" fill="#D34A47"/>
<path d="M30.6605 26.7966C30.6605 26.7966 30.2247 26.8943 28.9425 26.8998C27.66 26.9051 26.7494 26.8915 26.3867 26.5611C26.2892 26.4724 26.2358 26.2963 26.2363 26.177C26.2374 25.95 26.3985 25.8163 26.6038 25.7325L26.798 26.0371C26.7135 26.0663 26.6653 26.1007 26.6651 26.1375C26.6644 26.3099 27.9764 26.4279 28.98 26.4152C29.9837 26.4028 31.1964 26.3201 31.1975 26.1502C31.1975 26.0988 31.1058 26.0504 30.9462 26.0122L31.1395 25.7097C31.3996 25.7905 31.6266 25.9465 31.6261 26.2164C31.6236 26.6754 31.0395 26.7452 30.6605 26.7966" fill="white"/>
<path d="M44.9661 2.6829C45.2463 2.35923 44.8211 1.53131 44.0163 0.833965C43.2112 0.136969 42.3313 -0.165858 42.0506 0.157817C41.7702 0.481492 42.1956 1.30941 43.0007 2.0064C43.8055 2.70358 44.6857 3.00676 44.9661 2.6829ZM34.3189 57.9269C34.0548 55.3855 39.8776 51.705 38.3832 51.5871C35.1663 51.7711 33.5652 55.3571 31.9467 59.1129C31.3536 60.4894 29.3241 66.359 27.993 65.6364C26.6622 64.9142 29.7182 60.0875 30.5748 57.2211C29.5864 57.9458 25.9619 60.7619 25.0278 58.1246C23.526 59.4 20.317 60.091 20.679 56.7407C19.8801 58.1559 18.087 60.1317 15.9347 59.3106C13.1082 58.2327 17.5725 49.229 18.6825 49.6832C19.7928 50.1373 18.4585 52.1884 18.109 52.9848C17.3405 54.7377 16.4527 56.9412 17.0458 57.3923C18.0619 58.165 20.8269 54.4688 20.8884 54.3875C21.4055 53.7043 22.8788 49.2345 24.0663 49.7477C25.2537 50.261 21.1045 56.1626 22.6559 57.3338C22.9688 57.5702 24.249 57.188 25.0278 56.3454C25.5317 55.8004 25.3583 54.5931 27.038 50.5875C28.7177 46.582 30.2147 41.5937 31.3666 41.9737C32.5186 42.3536 31.5691 44.9138 31.1559 45.8682C29.2166 50.3477 25.8633 57.7483 27.4447 57.188C29.0262 56.6279 29.8497 56.5951 31.3983 54.7829C32.9469 52.9707 32.8755 49.9857 33.9076 50.0492C34.9401 50.1128 34.7668 51.0698 34.5165 51.7986C35.5324 50.6361 39.332 48.1877 40.2493 50.6126C41.3359 53.4834 34.8131 57.6302 36.4394 57.4188C38.0251 57.2126 40.594 55.5855 41.6908 54.1062L44.7099 26.9638C44.7099 26.9638 41.6719 29.478 22.3444 29.478C3.01664 29.478 0.292969 27.0161 0.292969 27.0161L2.86329 51.7907C4.2276 47.9131 7.46735 40.07 12.5741 40.3332C14.897 40.453 17.9981 44.926 15.3417 45.0776C14.2173 45.1416 14.1032 42.8449 12.7718 42.5076C11.811 42.2642 10.4734 43.0453 9.60887 43.8916C7.88484 45.5788 4.17689 52.2359 4.66682 55.5548C5.29103 59.7861 10.5057 54.0845 11.388 52.3917C12.0094 51.1993 12.4292 47.6665 13.7882 48.0371C15.1474 48.4078 13.6696 52.0537 12.6845 55.2772C11.5778 58.8969 10.996 62.7151 9.60887 62.2758C8.22159 61.837 10.4813 57.1642 10.3995 56.3454C9.09562 57.5484 6.6935 60.594 3.62035 59.0866L5.21664 74.4714C5.21664 74.4714 9.45922 77.8235 22.2396 77.8235C35.02 77.8235 39.4196 74.5237 39.4196 74.5237L41.4018 56.7045C39.7801 58.2836 34.6476 61.0878 34.3189 57.9269" fill="#D34A47"/>
</g>
<defs>
<clipPath id="clip0">
<rect width="45.24" height="100" fill="white"/>
</clipPath>
</defs>
</svg>
