<svg width="100" height="100" viewBox="0 0 100 100" fill="none" xmlns="http://www.w3.org/2000/svg">
<g clip-path="url(#clip0)">
<path d="M99.9625 47.3029C99.9289 46.0201 99.861 44.7037 99.7938 43.4209C99.7262 42.1045 99.6922 40.7881 99.5575 39.4717C99.3211 37.6818 99.0848 35.8592 98.6797 34.1037C98.3758 32.6521 97.8696 31.2682 97.3633 29.8842C96.7219 28.2635 96.0805 26.6096 95.2703 25.0568C93.9535 22.5588 92.2321 20.3307 90.6453 18.0014C89.5985 16.5158 88.2489 15.3006 87.236 13.7818C86.6618 12.9041 85.818 12.1611 84.9743 11.4861C83.6239 10.406 82.2059 9.42675 80.7883 8.48221C79.7078 7.73885 78.6278 7.03026 77.4797 6.38885C76.5684 5.88221 75.5891 5.47714 74.6438 5.03846C73.5641 4.53182 72.5176 3.9244 71.3024 3.68807C70.9985 3.6205 70.7282 3.51932 70.4246 3.41854C69.6481 3.14784 68.9051 2.84432 68.1289 2.608C66.9477 2.2369 65.8 1.79745 64.5844 1.49393C63.4032 1.19003 62.1879 0.987292 60.9727 0.818542C59.6223 0.616199 58.2383 0.549011 56.8879 0.413464C56.0102 0.312292 55.1325 0.211121 54.2883 0.177136C53.0059 0.109949 51.6891 0.109949 50.4063 0.0759643C49.7649 0.0423705 49.0899 -0.0252076 48.4485 0.00838615C47.4696 0.0423705 46.4907 0.143542 45.511 0.278699C44.5664 0.380261 43.6211 0.548621 42.7094 0.683777C41.5957 0.818542 40.4817 0.886121 39.3676 1.02128C38.3207 1.15643 37.241 1.35878 36.1946 1.52753C35.8231 1.5951 35.4516 1.73065 35.0805 1.79745C34.2703 1.96659 33.4262 2.03417 32.6157 2.30409C31.1645 2.74276 29.7129 3.2494 28.295 3.78925C26.9785 4.32948 25.6957 4.90331 24.4469 5.5787C23.1641 6.28729 21.9489 7.13143 20.7332 7.94198C19.5856 8.71776 18.4379 9.52831 17.3239 10.406C16.2438 11.2498 15.2309 12.1951 14.252 13.1404C13.7118 13.6803 13.2731 14.3217 12.7664 14.9295C11.9227 15.9084 11.0785 16.8537 10.2684 17.8662C9.59339 18.7103 8.98519 19.5881 8.34457 20.4658C7.19613 22.0185 6.21761 23.6728 5.30628 25.3267C4.9348 26.0017 4.5973 26.6771 4.25941 27.3521C3.75316 28.365 3.21331 29.3443 2.74066 30.3904C2.40316 31.0994 2.13285 31.8756 1.9305 32.6521C1.45335 34.3131 0.992004 35.9785 0.546518 37.6482C0.14144 39.1334 0.0398774 40.6869 0.00628365 42.2057C-0.0277007 43.5557 0.107456 44.8724 0.242612 46.2228C0.276206 46.5603 0.0738618 46.9654 0.47894 47.2353C0.512534 47.2353 0.47894 47.3705 0.444955 47.4041C0.343393 47.6072 0.444956 47.8092 0.64769 47.8767C0.64769 47.8767 0.681284 47.9107 0.681284 47.9443H0.512534C0.410971 48.2482 0.748862 48.4846 0.613706 48.8221C0.580112 48.8896 0.715268 49.0244 0.782455 49.126C0.782455 49.2275 0.748862 49.3623 0.782455 49.4635C0.81644 49.7674 0.951596 50.0709 0.951596 50.4088C0.951596 50.6451 1.15394 50.915 1.22113 51.1514C1.25511 51.2529 1.22113 51.4213 1.15394 51.4889C0.951596 51.7252 0.98519 51.9279 1.2891 52.0631C1.35667 52.0967 1.45785 52.2314 1.45785 52.299C1.45785 52.5021 1.39027 52.7041 1.35628 52.9068C1.42386 52.9744 1.45785 53.0416 1.42386 53.1092C1.42386 53.2107 1.3223 53.3123 1.35667 53.3795C1.62621 53.9193 1.72777 54.5271 1.76175 55.1346C1.76175 55.2697 1.82933 55.4049 1.89652 55.5736C1.9305 55.5736 2.03167 55.5736 2.09925 55.6072L1.89613 56.215C2.06527 56.1135 2.20042 56.0799 2.36878 56.0123C2.47035 56.4514 2.57191 56.8564 2.70667 57.2275C2.74066 57.2951 2.80824 57.3627 2.90941 57.4307C2.87542 57.4978 2.87542 57.6326 2.80785 57.6666C2.943 58.274 3.01058 58.8482 3.24691 59.4221C3.28089 59.4221 3.31449 59.3881 3.34808 59.3881C3.24652 58.7807 3.17933 58.1392 3.07816 57.5314V57.3291C3.07816 57.3291 3.14574 57.2951 3.17933 57.2951C3.21331 57.4303 3.28089 57.599 3.28089 57.7002C3.55042 57.7002 3.95589 57.8689 4.22581 57.8689C4.2598 57.7678 4.29339 57.6326 4.32738 57.5654C4.12425 57.3627 3.95589 57.0588 3.75316 56.8564C3.82074 57.1264 3.75316 57.2275 3.75316 57.3291C3.61839 57.2615 3.44964 57.1939 3.2805 57.1264C3.41566 56.9576 3.55081 56.7889 3.75316 56.5861C3.75316 56.2826 3.58441 56.0123 3.11175 56.0463C3.31449 55.9787 3.51722 55.8775 3.75316 55.81C3.78714 55.9115 3.82074 56.0123 3.85472 56.0799C4.12425 55.6072 3.71957 55.2361 3.71957 54.7635C3.75316 54.1896 3.41566 53.6158 3.31449 53.008C3.14574 52.0627 3.17933 50.6451 3.07816 49.6998C3.07816 49.6322 2.9766 49.5646 2.90941 49.4971C2.87542 49.531 2.70628 49.9697 2.67308 50.0037C2.77425 50.8139 2.87542 51.624 2.94261 52.4342C2.90941 52.4342 2.87542 52.4342 2.87542 52.4678C2.74066 51.7588 2.6055 51.0162 2.43675 50.206C2.40316 50.4424 2.36917 50.5435 2.36917 50.6787C2.26761 50.6451 2.23441 50.6111 2.06527 50.5435C2.20042 50.8475 2.33558 51.0502 2.43636 51.2865C2.20042 51.185 1.9305 51.2189 1.9305 51.2189V52.1643C1.593 51.8264 1.49144 51.5564 1.32269 51.3205C1.25511 51.0502 1.22113 50.7799 1.15394 50.51L1.25511 50.476C1.22152 50.3412 1.15355 50.2396 1.15355 50.1385C1.11579 49.869 1.08219 49.5989 1.05277 49.3283C1.08636 49.2947 1.22152 49.2607 1.2891 49.1935L1.01878 48.7885C1.2891 48.8221 1.45785 48.8557 1.6266 48.8557C1.6266 48.7885 1.66019 48.7545 1.6266 48.7209C1.2891 48.417 1.52503 48.1467 1.66019 47.8771C1.72777 47.7416 1.9641 47.708 2.03128 47.5728C2.3016 47.0666 2.74066 46.6615 2.74066 46.0201C2.74066 45.7162 2.84183 45.3787 2.87542 45.0748C2.943 44.501 3.01058 43.9271 3.04456 43.3533C3.11175 42.6111 3.04456 41.8678 3.21331 41.1592C3.48285 39.9775 3.82074 38.7959 4.19222 37.6146C4.46175 36.7709 4.76605 35.9603 5.10355 35.1166C5.61019 33.8002 6.08246 32.4838 6.72386 31.2342C7.63558 29.4115 8.68206 27.656 9.69456 25.867C10.336 24.7529 11.011 23.7068 11.72 22.626C12.3953 21.5795 13.0703 20.4994 13.8469 19.5205C14.927 18.1365 16.1086 16.8537 17.425 15.7057C18.7754 14.4908 20.0578 13.2416 21.5098 12.1275C23.4004 10.676 25.3918 9.39315 27.5188 8.27909C29.2403 7.36776 31.0293 6.65878 32.8188 5.98339C33.9664 5.54471 35.2153 5.34276 36.3969 4.97089C37.7473 4.53182 39.0977 4.32948 40.5153 4.2955C41.427 4.2619 42.3043 4.16073 43.216 4.05956C44.0262 3.99198 44.8364 3.9244 45.7141 3.82323C45.6484 3.90691 45.5918 3.9974 45.5453 4.09315C45.1739 4.63339 44.7688 5.17323 44.3977 5.71346C44.0938 6.15253 43.7563 6.62479 43.4524 7.06385C42.9121 7.77284 42.3383 8.48182 41.8321 9.2244C41.0555 10.3385 40.3465 11.4861 39.5364 12.6002C38.7262 13.6803 37.8485 14.6932 37.0047 15.7396C35.8907 17.1912 34.8442 18.6764 33.7301 20.1279C32.7172 21.5123 31.6371 22.8287 30.6582 24.2127C29.7805 25.4279 29.0039 26.7107 28.1602 27.9599C26.911 29.8166 25.6621 31.6396 24.4129 33.4959C23.4341 34.9105 22.4438 36.3172 21.4422 37.7158C21.3746 37.8174 21.2735 37.851 21.1723 37.9182C21.1047 37.9857 20.9692 38.0533 20.9692 38.1213C20.9024 38.3572 20.9024 38.5939 20.8008 38.7959C20.5309 39.3025 20.261 39.8088 19.9571 40.2814C19.7883 40.5514 19.552 40.7877 19.3493 41.0576C19.2817 41.024 19.2477 40.9904 19.1805 40.9904C19.3157 40.6525 19.8895 40.4502 19.6196 39.9439C19.4508 40.2139 19.2817 40.4502 19.1129 40.7201L18.7078 41.5303C18.843 41.6318 19.0789 41.699 18.843 41.9017C18.7414 42.0705 18.6399 42.2728 18.5391 42.442C18.5731 42.442 18.5731 42.4756 18.6067 42.4756C18.7078 42.3404 18.8094 42.2392 18.9106 42.1045C18.9442 42.1045 18.9782 42.1381 19.0118 42.1381C18.9102 42.4756 18.7078 42.7795 18.5391 43.0834C18.4039 43.3533 18.0664 43.556 17.8301 43.7584C17.8641 43.792 18.1004 43.8935 18.134 43.9271C18.2352 43.792 18.2692 43.8596 18.3703 43.7248C18.4379 43.8264 18.5391 43.6572 18.5731 43.7584C18.6743 43.6232 18.7754 43.5221 18.8094 43.4209C18.9442 43.0834 19.1469 42.8131 19.4844 42.6787C19.6196 42.6107 19.7207 42.5092 19.8219 42.408C20.8348 41.3615 21.8813 40.3494 22.7926 39.2349C24.2106 37.5131 25.4934 35.724 26.8434 33.9685C27.4176 33.2264 28.0926 32.4834 28.7 31.7744C28.7676 31.8084 28.8352 31.8084 28.8692 31.842C28.8016 32.551 28.734 33.2935 28.7 34.0025C28.5985 35.2514 28.5313 36.5006 28.4301 37.7838C28.3965 38.2896 28.4301 38.7959 28.3965 39.3025C28.3965 39.4373 28.295 39.5385 28.295 39.6736C28.295 40.0111 28.3965 40.3826 28.3965 40.7205C28.295 41.9693 28.1602 43.1846 28.0586 44.4334C28.025 44.7037 28.1602 44.9736 28.2278 45.2099C28.1938 45.1764 28.1602 45.1424 28.0586 45.0748C28.0586 47.033 28.4297 48.9576 28.1262 50.8814C28.2614 50.8474 28.3289 50.8139 28.3289 50.7463C28.3625 50.51 28.4301 50.2736 28.4301 50.0373C28.4641 49.835 28.4301 49.6322 28.4301 49.3959V49.0584C28.4641 48.4506 28.5989 47.8092 28.5313 47.2017C28.4641 46.5264 28.4641 45.8853 28.5989 45.2435C28.6664 44.974 28.5653 44.6361 28.734 44.2986V44.8049C28.7 46.7291 28.7676 48.6533 28.4977 50.5775C28.4641 50.7463 28.5989 51.0502 28.2278 51.0162C28.1938 51.0162 28.1602 51.185 28.0926 51.2865C27.9239 51.624 28.295 52.0627 27.9575 52.4002C27.8899 52.4678 28.025 52.7717 28.0586 52.9744C28.0586 53.0416 28.0926 53.1092 28.0586 53.1432C27.9239 53.3795 27.9239 53.3795 28.1262 53.4131C28.1602 54.1557 28.2278 54.831 28.2614 55.5396H28.3625C28.8016 54.2568 28.5313 52.9404 28.7676 51.624C28.8016 52.1639 28.8352 52.7041 28.8016 53.2779C28.8016 54.1557 28.7676 54.9998 28.734 55.8775C28.734 56.0463 28.7 56.215 28.6664 56.3838C28.5649 56.8564 28.5313 57.3291 28.3625 57.7678C28.2278 58.1053 28.295 58.6119 28.295 59.017V60.2994C28.295 60.3334 28.3965 60.4346 28.3965 60.5697C28.4301 60.8736 28.2614 61.1775 28.3625 61.515C28.3965 61.5826 28.3289 61.6838 28.295 61.7514C28.2614 61.8529 28.2278 61.9537 28.2614 62.0549L28.3625 62.5615C28.3625 62.5951 28.3965 62.6291 28.4301 62.6963C28.4641 62.5615 28.4641 62.4599 28.4641 62.4267C29.0379 62.4939 28.7336 63.0002 29.0039 63.2705C28.8692 63.3377 28.7676 63.3721 28.7676 63.4053C28.8016 63.5404 28.8692 63.6416 28.8692 63.7768C28.8692 64.0803 28.8352 64.351 28.8016 64.6545C28.8016 65.4307 28.7676 66.2072 28.7676 66.9498C28.7676 67.0514 28.8016 67.1529 28.8016 67.2537C28.8016 67.3213 28.7676 67.3889 28.7676 67.49V68.199H28.9028C28.8352 68.3006 28.7676 68.4014 28.6664 68.5025C28.6328 68.5025 28.5313 68.5025 28.5313 68.4689V64.2154H28.025C27.9575 66.2408 28.1262 68.0639 27.7551 69.9541C27.35 69.9881 27.2149 70.0557 26.7762 70.0557C25.7293 70.0557 24.6832 70.0557 23.6368 70.0892C22.3875 70.0892 21.1719 70.1232 19.9231 70.1232C19.3157 70.1232 18.6743 70.1904 18.0664 70.1904C17.2563 70.1904 16.4125 70.0892 15.6024 70.0892C14.3532 70.0892 13.1375 70.1908 11.8891 70.2244C10.9774 70.258 10.066 70.258 9.15472 70.292C8.54691 70.3256 7.9391 70.3596 7.33167 70.4268C7.06175 70.4607 6.82542 70.5619 6.48753 70.6631C6.38597 70.6631 6.15003 70.6295 5.94769 70.6631C5.61019 70.7307 5.30628 70.9334 4.96878 71.0006C4.46214 71.1021 4.32738 71.2369 4.39456 71.7435V72.081C4.32432 72.0137 4.24472 71.9569 4.15824 71.9123C4.12464 71.9123 4.09105 71.9459 4.09105 71.9459C4.12464 72.0475 4.19222 72.1146 4.22581 72.2162C4.36097 72.1486 4.52972 71.9799 4.66488 71.9799H5.13753C5.06996 71.9799 5.03597 72.1822 4.93441 72.351C5.13812 72.2747 5.34087 72.1959 5.54261 72.1146C5.57621 72.2162 5.57621 72.351 5.57621 72.385C6.04886 72.351 6.48753 72.2162 6.89261 72.3174C8.20902 72.6549 9.5598 72.79 10.9098 72.9248C11.7875 72.9924 12.6317 73.0264 13.5094 73.06C14.7582 73.1275 16.0075 73.1951 17.2563 73.1951C18.3028 73.1951 19.3157 73.0939 20.3618 73.0939C21.8137 73.0939 23.2653 73.1611 24.7168 73.1955C25.0207 73.1955 25.3582 73.1611 25.6957 73.1611H28.1602C30.3543 73.0939 32.5485 73.06 34.743 72.9924C35.9918 72.9588 37.2743 72.8912 38.5239 72.8576L42.3715 72.756C43.8575 72.7225 45.3426 72.7225 46.7942 72.6885C47.9082 72.6885 48.9887 72.6549 50.1024 72.6213C51.3516 72.5873 52.6344 72.4861 53.8832 72.4185C54.5586 72.385 55.2336 72.3174 55.909 72.2498C56.7192 72.1822 57.5629 72.081 58.3731 72.0471C59.5879 71.9799 60.8375 71.9459 62.0528 71.8783C63.5719 71.7771 65.0911 71.642 66.6438 71.6088C68.0618 71.5408 69.5133 71.5748 70.9309 71.5408C72.1801 71.5072 73.4289 71.4396 74.7118 71.406L76.8387 71.3045C76.8387 71.3045 78.2563 71.2709 78.9653 71.2033C80.1801 71.1357 81.3957 71.0006 82.611 70.967C83.3875 70.9334 84.1641 70.967 84.9403 70.9334C86.1895 70.8994 87.4723 70.8318 88.7211 70.8318C89.1938 70.8318 89.7004 70.8994 90.3078 70.9334C90.0379 71.1697 89.8692 71.3045 89.6664 71.4732C89.8016 71.5072 89.936 71.5748 90.0715 71.642C90.0715 71.676 90.0379 71.7096 90.0379 71.7771C89.8692 71.7771 89.7004 71.8111 89.5313 71.8111C89.4641 71.9799 89.3965 72.0471 89.3289 72.3853H89.9364C89.7004 72.3853 89.4977 72.6885 89.2614 72.8912C89.2953 72.9248 89.3289 72.9248 89.3625 72.9588C88.9914 72.8236 88.7551 72.8912 88.62 73.2627C88.7211 73.2963 88.7887 73.2963 88.8895 73.2963C88.8563 73.3978 88.8227 73.4994 88.7887 73.6338C88.7551 73.7014 88.7211 73.7689 88.7211 73.8701L88.6196 73.7689C88.6196 73.7014 88.6196 73.6338 88.5864 73.5662C88.3832 73.7693 88.0797 73.9041 88.2485 74.3428C88.1137 74.4103 87.945 74.4779 87.7758 74.5791C87.8098 74.6467 87.8774 74.7143 87.911 74.8154C87.6075 74.849 87.3035 74.917 87.3711 75.2881C87.5059 75.3217 87.6407 75.3896 87.7422 75.4228C87.5735 75.4904 87.4047 75.5916 87.236 75.6592C87.202 75.7267 87.1684 75.8955 87.1008 75.9295C86.6282 76.031 86.8985 76.1994 87.0332 76.3682C86.9317 76.4357 86.8309 76.5033 86.7297 76.5369C86.8309 76.5709 86.8985 76.6045 86.966 76.6721C86.8645 76.7396 86.7969 76.7736 86.7297 76.8072C86.7969 76.8408 86.8985 76.9088 86.9321 76.9088C86.7969 77.0096 86.6282 77.1447 86.4258 77.3135C86.4258 77.381 86.4258 77.415 86.4594 77.4822C86.3246 77.6174 86.1895 77.7521 86.0543 77.9549C85.9196 78.1572 85.852 78.4275 85.6832 78.6299C84.9743 79.4064 84.4676 80.3178 83.5563 80.9256C83.2188 81.1619 82.9149 81.4654 82.611 81.7693C82.0035 82.3435 81.4633 82.9846 80.8219 83.5248C79.9782 84.2338 79.1004 84.8752 78.1887 85.517C77.075 86.2928 75.961 87.0693 74.8469 87.8119C74.2391 88.217 73.5641 88.5209 72.9227 88.8924C72.2813 89.2635 71.6739 89.6014 71.0321 89.9724C70.627 90.2428 70.2559 90.6139 69.8168 90.8166C68.7028 91.2893 67.5215 91.6943 66.3739 92.133C66.2723 92.1666 66.2051 92.2006 66.1036 92.2346C65.2598 92.6057 64.4496 93.0107 63.6055 93.3146C62.8289 93.5846 62.0192 93.7873 61.2086 93.956C60.9387 94.0236 60.6344 93.956 60.3313 93.9896C59.7571 94.0912 59.1828 94.226 58.6094 94.2935C57.1243 94.4967 55.6387 94.631 54.1535 94.8338C53.2758 94.9353 52.4317 95.1037 51.5539 95.2049C50.9465 95.2389 50.3051 95.1713 49.6973 95.1713C49.2586 95.1713 48.786 95.2728 48.3469 95.2049C47.6383 95.1037 46.9289 94.9353 46.2203 94.7998C46.0516 94.7662 45.8153 94.6986 45.6801 94.7662C45.4102 94.901 45.1739 94.6986 44.9039 94.7662C44.7352 94.7998 44.5664 94.665 44.3973 94.665C44.2625 94.631 44.0938 94.6986 43.9246 94.665C43.5535 94.5635 43.2161 94.4287 42.811 94.4623C42.4059 94.4963 42.0008 94.2935 41.5618 94.1928C40.9543 94.0572 40.3805 93.9221 39.7727 93.7873C39.5364 93.7197 39.334 93.6185 39.0977 93.4834C39.0301 93.517 38.9285 93.5849 38.7938 93.5849C38.2196 93.4834 37.6461 93.4498 37.1059 93.2471C36.6332 93.0783 36.1946 92.842 35.6879 92.9096C35.5532 92.9432 35.4516 92.8756 35.3168 92.8756C35.2153 92.7408 35.1137 92.4705 35.0129 92.4705C34.3371 92.5045 33.9325 91.9307 33.3586 91.7619C33.0547 91.6603 32.8188 91.3228 32.5149 91.2217C31.7723 90.9178 31.1645 90.2764 30.3207 90.1752C30.0504 90.1412 29.7805 90.0064 29.4766 89.9049C29.5778 90.04 29.6453 90.1412 29.7461 90.2428L29.6789 90.31C28.7676 89.7701 27.8563 89.2299 26.9446 88.724C26.8098 88.6896 26.7086 88.5549 26.6071 88.4873L25.6957 87.8795C25.5942 87.8119 25.3918 87.7107 25.3918 87.7443C25.1895 87.981 24.9868 87.7783 24.852 87.7107C23.9403 87.0693 22.8938 86.6642 22.0161 85.9553C21.645 85.6517 21.2059 85.449 20.936 85.0775C20.4633 84.5037 19.8891 84.0986 19.2481 83.7611C18.7418 83.4916 18.2692 83.1873 17.7965 82.8834C17.5602 82.7146 17.3239 82.5123 17.3239 82.1412C17.3239 81.9045 17.2223 81.6685 16.9188 81.8033C16.7836 81.6006 16.6489 81.3642 16.4801 81.2967C16.075 81.1279 15.8043 80.8244 15.5008 80.5545C15.1973 80.2842 14.961 79.9127 14.5895 79.7779C13.9145 79.5076 13.5094 78.9342 13.1043 78.4615C12.159 77.3471 11.3149 76.1318 10.4371 74.9502C10.37 74.849 10.2348 74.7814 10.1336 74.6807L10.0996 74.7143C10.2684 75.0518 10.4371 75.3557 10.6063 75.6932C10.5723 75.7267 10.5047 75.7607 10.4711 75.7947C10.268 75.558 10.0321 75.3221 9.82972 75.0853C9.79574 75.1193 9.76214 75.1529 9.72816 75.1529L12.159 79.0014C12.3614 79.3053 12.5301 79.6088 12.7328 79.9127C12.6945 79.9547 12.6487 79.9891 12.5977 80.0142C12.2266 79.9467 11.8891 79.6764 11.72 79.3725C11.4164 78.8326 11.0785 78.4951 10.4035 78.5623C10.336 78.326 10.2684 78.056 10.2348 77.8201C10.0996 77.8201 9.99847 77.8201 9.76214 77.7861C10.2348 78.5287 10.6399 79.1701 11.0785 79.9127C10.9098 79.8115 10.8086 79.7439 10.741 79.7103C11.3489 80.3517 11.7875 81.1619 12.5641 81.567C12.7328 82.3432 13.6106 82.7146 13.8129 83.4576C13.6442 83.4236 13.5094 83.3896 13.3403 83.356C13.0703 83.0185 12.766 82.681 12.4629 82.3096C12.5301 82.5459 12.6317 82.7482 12.7664 82.9174C13.1715 83.4236 13.543 83.9299 14.0157 84.3689C14.1844 84.5377 14.4207 84.6053 14.4207 84.9088C14.4883 84.8412 14.5559 84.8076 14.6903 84.74C14.6231 84.8752 14.5895 84.9432 14.5559 85.0439C14.6907 85.0439 14.7922 85.0775 14.8934 85.0775C14.961 85.2807 14.8594 85.5842 15.2645 85.5166C15.2985 85.5166 15.3321 85.5502 15.366 85.5842C15.5348 86.0228 15.8047 86.0228 16.1762 85.8541C16.2438 85.8205 16.4125 85.8541 16.4457 85.9217C16.6149 86.2928 16.8512 86.3268 17.1551 86.0568C17.1551 86.2256 17.1887 86.3943 17.1887 86.5295H17.3239C17.3239 86.4619 17.2903 86.3603 17.2903 86.1916C17.459 86.3267 17.5598 86.3947 17.6278 86.4619C17.9653 86.9346 18.2692 87.3732 18.7418 87.7443C19.3832 88.2846 19.9567 88.8584 20.5645 89.3654C21.7461 90.3439 23.0625 91.1545 24.3793 91.8967C25.9996 92.808 27.5524 93.7873 29.2067 94.6646C31.1981 95.7115 33.325 96.4201 35.5192 96.9267C36.3293 97.0955 37.1059 97.2643 37.9161 97.4666C38.625 97.6697 39.334 97.9732 40.0426 98.1424C41.1231 98.3783 42.2371 98.5807 43.3172 98.7834C43.5535 98.817 43.7899 98.851 44.0594 98.885V98.9521C44.3637 98.9521 44.7352 98.817 44.8028 98.9182C44.9715 99.1885 45.1063 99.0533 45.309 99.0197C45.5453 98.9521 45.8153 98.9521 46.0852 98.9521C47.0305 98.9857 47.9418 99.1885 48.8871 99.1209C49.0899 99.1209 49.3938 98.9521 49.5625 99.2896C49.6301 99.2557 49.6637 99.2221 49.7313 99.1885C49.866 99.1545 50.0352 99.1545 50.17 99.1209V99.1885C50.1024 99.2221 50.0352 99.2221 49.9 99.256C50.0688 99.2896 50.1696 99.3232 50.2711 99.3576C50.2039 99.4248 50.1696 99.4248 50.1024 99.4584C50.0352 99.492 49.9336 99.526 49.7989 99.6271C51.0137 99.8635 52.1618 99.8975 53.1746 99.6271V99.4248H53.3094C53.3094 99.492 53.3434 99.5596 53.377 99.6271C54.9297 99.7623 56.4489 99.5596 57.9004 99.0533C58.0356 99.2221 58.1368 99.4584 58.3395 99.1209C58.4071 99.0197 58.5758 98.9857 58.7106 98.9521C59.0145 98.8846 59.386 98.7494 59.6559 98.851C59.9598 98.9525 60.061 98.6818 60.2973 98.6818C60.6821 98.6832 61.0663 98.6493 61.445 98.5807C61.6477 98.5471 61.85 98.4455 62.0864 98.3783C62.0864 98.3443 62.0864 98.3107 62.0528 98.2767C61.8164 98.2432 61.5465 98.2096 61.3438 98.2096C61.7489 98.0068 62.1203 97.8385 62.4914 97.6693C62.4914 97.7029 62.5254 97.7029 62.5254 97.7369C62.4239 97.7705 62.3567 97.9057 62.2215 97.9057H62.6942C62.5926 97.9057 62.4578 98.2096 62.2891 98.4119C63.5039 98.108 64.6184 97.8381 65.6985 97.5682V97.5006C65.5637 97.5342 65.4621 97.5342 65.361 97.5682C65.3274 96.8592 66.1032 97.0955 66.3739 96.6904C66.036 96.792 65.6981 96.8928 65.361 96.9603V96.8928C66.5086 96.3865 67.6903 95.8803 68.8375 95.3736C68.8375 95.4076 68.8719 95.4076 68.8719 95.4412C68.6688 95.5764 68.4668 95.6775 68.1629 95.8463C68.3653 95.8803 68.5004 95.8803 68.6016 95.9139C68.6016 96.0154 68.6016 96.0826 68.568 96.117C69.1418 96.0826 69.0067 95.5764 69.1754 95.2725C69.277 95.306 69.4118 95.374 69.5133 95.34C69.8168 95.2725 70.0871 95.1713 70.3907 95.0705C70.7285 94.9689 71.0661 94.8674 71.4036 94.7322C71.9438 94.4959 72.45 94.1924 72.9903 93.9221C73.0914 93.8885 73.2598 93.9221 73.3953 93.9221C73.4965 93.9221 73.5641 93.8545 73.6317 93.7873C73.7664 93.6857 73.9012 93.4834 74.0028 93.517C74.4754 93.5846 74.8129 93.4158 74.9481 92.9771C74.9821 92.9771 74.9821 92.9432 75.0157 92.9432C75.1844 92.8084 75.3532 92.6736 75.5219 92.5721C76.2649 92.1666 76.9735 91.7619 77.7164 91.3564C77.75 91.3228 77.8176 91.3564 77.8852 91.3564C77.9864 91.3564 78.1215 91.3564 78.1887 91.3228C78.6278 91.1201 79.0325 90.8842 79.4379 90.6478C79.3364 90.6139 79.4379 90.5803 79.1004 90.5463V90.4787C79.4379 90.4115 79.5391 90.3775 79.7418 90.31L79.6743 90.2428C80.552 89.365 81.6661 88.7236 82.5098 87.981C82.6786 88.0146 82.7461 88.0482 82.8473 88.0482C82.8813 87.9471 82.8813 87.8459 82.8813 87.7787C83.016 87.6096 83.1508 87.4068 83.32 87.2721C84.0621 86.5967 84.8731 86.0228 85.5481 85.3139C86.527 84.335 87.4723 83.3225 88.35 82.276C89.1602 81.3307 89.9703 80.3853 90.6453 79.3389C91.5907 77.8873 92.4008 76.4021 93.2446 74.883C93.8524 73.8025 94.3926 72.7228 95 71.642C95.0676 71.5408 95.2028 71.406 95.3039 71.406C96.2153 71.3045 97.127 71.2369 98.0047 71.1357C98.2071 71.1021 98.4434 70.967 98.6461 70.8662C98.5446 70.6971 98.477 70.4943 98.3758 70.3256C98.241 70.1228 98.0383 69.9545 97.9032 69.7517C97.7684 69.583 97.6672 69.3807 97.5657 69.1779C97.4641 69.0092 97.3633 68.874 97.2618 68.7053C97.0594 68.3342 96.8567 67.9631 96.6875 67.5576C96.6543 67.456 96.5868 67.2873 96.6203 67.1865C97.2282 65.8701 97.4641 64.4521 98.0383 63.1357C98.6121 61.785 98.7805 60.2658 99.0512 58.8142C99.2875 57.4303 99.4223 56.0463 99.5911 54.6619C99.6926 53.683 99.8274 52.7377 99.8614 51.7588C100.064 50.206 99.9961 48.7549 99.9625 47.3029V47.3029ZM15.0953 84.9764C14.8598 84.7068 14.6571 84.4025 14.4207 84.1326L14.5219 84.031C14.893 84.4365 15.2649 84.8412 15.636 85.2803C15.4336 85.1791 15.1973 85.1115 15.0957 84.9764H15.0953ZM15.636 85.2803C15.7371 85.2467 15.8387 85.2467 15.9399 85.2127C16.0411 85.3814 16.1086 85.5842 16.2094 85.7869C15.7368 85.7529 15.5008 85.5502 15.636 85.2803ZM50.7438 99.2221V99.1209C51.3852 99.0533 51.993 98.9857 52.6344 98.9185V99.0201C52.0082 99.1208 51.3771 99.1882 50.7438 99.2221V99.2221ZM59.2508 98.3443C58.7782 98.4459 58.2719 98.5131 57.7993 98.5807C57.6305 98.6146 57.4282 98.7838 57.3606 98.4795C57.293 98.5131 57.2254 98.5131 57.1575 98.5471C57.3266 99.0533 57.7317 98.6486 58.0692 98.851C57.3266 98.9525 56.6176 99.0197 55.909 99.1209V99.0533C56.1114 99.0197 56.3477 98.9857 56.5504 98.9521V98.851C56.2125 98.817 55.8746 98.7834 55.5375 98.7834C55.436 98.7834 55.3012 98.9185 55.2 98.9521C55.0649 98.9857 54.9297 99.0197 54.761 99.0197C54.1868 99.0533 53.6133 99.0533 53.0731 99.0873C53.0395 99.0873 52.9715 99.0533 52.9383 99.0533V98.9521C55.2 98.6482 57.4282 98.3443 59.6899 98.0408C59.7235 98.108 59.7235 98.1756 59.7571 98.2432C59.5547 98.2432 59.4196 98.3107 59.2508 98.3447V98.3443ZM59.7571 98.0068C60.5336 97.9057 61.2426 97.8381 61.9852 97.7373C60.4325 98.1756 59.9262 98.2432 59.7571 98.0068ZM30.3543 29.851C31.4348 28.3654 32.5485 26.8799 33.6289 25.3607C33.9664 24.9221 34.2364 24.4494 34.5743 24.0107C34.6754 23.8756 34.8102 23.808 34.9793 23.6728L34.9453 23.6057C35.0805 23.4365 35.2149 23.3017 35.2828 23.1666C35.4516 22.8971 35.5532 22.5928 35.6879 22.2889C35.7219 22.2213 35.8231 22.1541 35.8231 22.1541C36.2957 22.39 36.2957 21.8838 36.4645 21.715C36.767 21.3746 37.0597 21.0257 37.3422 20.6685C37.5446 20.399 37.7473 20.1623 37.9161 19.8584C37.9496 19.7572 37.8485 19.5889 37.8145 19.4533H37.7137C37.8149 19.3857 37.916 19.2846 38.0172 19.217C38.0512 19.217 38.0512 19.217 38.0848 19.1834C38.2875 18.8795 38.4899 18.5756 38.6926 18.3057C39.0977 17.7654 39.5364 17.2252 40.009 16.7525C39.9414 16.9213 39.8739 17.0904 39.8067 17.2252C39.8403 17.2252 39.8403 17.2592 39.8739 17.2592C40.2789 16.7189 40.7176 16.2127 41.1231 15.6724C41.0891 15.6389 41.0555 15.6049 41.0215 15.6049C40.8532 15.7736 40.718 15.9424 40.5489 16.1111C40.5153 16.0775 40.4817 16.0439 40.4473 16.0439C40.7856 15.6049 41.1231 15.1662 41.4606 14.6596C41.5282 14.7611 41.5957 14.8959 41.7301 15.1662C41.8657 14.8283 42.0008 14.592 42.102 14.356C42.0004 14.4576 41.8657 14.5584 41.7645 14.6596L41.6629 14.5584L42.2707 13.6471C42.9121 12.7353 43.5536 11.7904 44.195 10.8787C44.4313 10.5412 44.7352 10.2713 44.9371 9.93378C45.5789 8.65096 46.5918 7.63807 47.368 6.45643C47.5371 6.2205 47.7731 6.01776 47.9758 5.81503C48.1446 5.61268 48.2797 5.68026 48.4149 5.84901C49.3262 6.99667 50.2375 8.17831 51.1489 9.32596C51.8243 10.1701 52.4993 10.9803 53.1407 11.8576C53.9172 12.9381 54.6598 14.0182 55.4364 15.0986C56.3141 16.3474 57.1918 17.5967 58.0356 18.8799C59.3184 20.7697 60.5336 22.6603 61.8164 24.5506C62.7618 25.9349 63.7071 27.2849 64.6184 28.6693H62.8965C61.3102 28.6353 59.6895 28.5002 58.1032 28.5678C55.9426 28.6693 53.7485 28.9053 51.5875 29.074C48.8532 29.3103 46.0852 29.3443 43.3512 29.3443C42.3719 29.3443 41.393 29.4791 40.4137 29.5467C39.2325 29.6142 38.0848 29.6818 36.9032 29.7158C35.5192 29.783 34.1688 29.8174 32.7848 29.8506C32.0086 29.8846 31.1981 29.8506 30.3543 29.8506V29.851ZM69.0743 45.3791V45.683C69.0407 45.683 69.0067 45.7166 68.9391 45.7166C68.8043 45.2439 68.6692 44.7377 68.5004 44.265C68.1629 43.2861 67.7914 42.3072 67.184 41.4295C66.5082 40.4842 65.9012 39.5053 65.2258 38.5264C65.0571 38.29 64.8207 38.0873 64.6184 37.8849C63.9094 37.1084 63.2004 36.2982 62.2891 35.7248C60.9387 34.881 59.5547 34.1717 58.0692 33.5639C57.6641 33.3951 57.293 33.1928 56.8879 32.9564H57.6981L63.4707 32.8553C64.7196 32.8213 65.9348 32.8213 67.184 32.7537C67.4879 32.7537 67.6567 32.8553 67.8254 33.1252C68.1293 33.6314 68.4328 34.1377 68.7703 34.6447C68.8043 34.7115 68.8719 34.8131 68.8719 34.9142C68.8719 35.6568 68.8719 36.4338 68.9055 37.176C68.9395 37.9525 69.0067 38.6955 69.0407 39.4717C69.0407 40.2478 68.9731 41.058 69.0067 41.8682C69.0407 43.0166 69.0743 44.1974 69.0743 45.3791V45.3791ZM32.7508 34.0701C34.3375 34.0025 35.8563 33.901 37.4094 33.8338C38.6243 33.7662 39.8735 33.7322 41.0887 33.665C41.5953 33.631 42.068 33.5974 42.5743 33.665C42.034 33.9349 41.4942 34.2049 41.0215 34.5428C40.4137 34.9474 39.8399 35.4881 39.2321 35.9267C38.6246 36.3654 38.0844 36.9057 37.5782 37.4795C36.9368 38.256 36.2278 38.931 35.5528 39.6736C35.0801 40.2139 34.5399 40.7205 34.1348 41.2939C33.5606 42.0369 33.0547 42.8471 32.5145 43.6908C32.6832 40.4838 32.8856 37.3107 32.7508 34.0701V34.0701ZM54.7946 66.5447C53.7141 66.8146 52.6004 67.1189 51.486 67.2537C50.5407 67.3889 49.5621 67.3553 48.5832 67.3553C47.7055 67.3553 46.8614 67.3213 45.9836 67.2537C45.0047 67.1525 44.0258 67.051 43.0805 66.6123C42.2703 66.2412 41.4266 65.9033 40.6164 65.4982C39.8063 65.0932 38.9953 64.6205 38.3883 63.8779C37.9493 63.3377 37.3414 62.899 36.8016 62.4264C36.9 62.8332 37.1547 63.1849 37.5106 63.4053C37.3418 63.6084 37.1055 63.5068 36.768 62.9666C36.6664 63.0338 36.5649 63.0682 36.4977 63.1014C36.5993 62.865 36.7004 62.6291 36.8016 62.4264C36.6668 62.1568 36.4977 61.8525 36.3629 61.5826C36.0914 61.1399 35.8325 60.6896 35.5864 60.2322C35.5188 60.1307 35.5188 60.0295 35.4512 59.9283C35.2825 59.7256 35.1137 59.5232 34.9785 59.3205C34.7086 58.9154 34.4723 58.4767 34.1348 58.0717C34.1348 58.1732 34.1684 58.274 34.1684 58.4092C34.1348 58.4092 34.1012 58.4428 34.1012 58.4428L33.3922 56.7213C33.3582 56.7213 33.3582 56.7213 33.3246 56.7553L33.9325 58.983C33.8985 58.983 33.8649 59.017 33.8309 59.017C33.7293 58.8818 33.6286 58.7467 33.561 58.5779C33.4934 58.3084 33.2911 58.3084 33.1219 58.4092C33.0203 58.4768 32.9532 58.7131 32.9871 58.8142C33.2235 59.3885 33.4934 59.9619 33.7633 60.5361C33.8309 60.7385 33.8985 60.9072 33.9996 61.1103C34.0336 61.1775 34.1348 61.2447 34.1348 61.3463C34.27 61.6162 34.3711 61.8861 34.5399 62.1225C34.8438 62.5275 35.1813 62.9326 35.4852 63.3377C35.7891 63.7428 36.059 64.1818 36.3289 64.5869C36.3629 64.6545 36.4641 64.6545 36.4977 64.6885C36.6668 65.1943 37.2407 65.5658 37.6457 65.3635C37.7469 66.1396 38.5907 66.4103 38.9285 67.1525C38.5972 67.0175 38.2705 66.871 37.9493 66.7135C37.9157 66.7474 37.9157 66.781 37.8821 66.8486C38.2871 67.051 38.6922 67.2537 39.0633 67.49C39.4008 67.6924 39.7387 67.8951 40.0422 68.1314C40.4477 68.5025 40.92 68.7057 41.4942 68.8404C41.4602 68.7389 41.4266 68.7053 41.4266 68.7053C42.3213 69.1207 43.2103 69.5484 44.0934 69.9881C40.5825 70.0557 36.8356 70.1232 32.9528 70.1904C32.9528 69.549 32.9196 68.9416 32.9196 68.3002C32.9196 68.0307 32.9871 67.7939 32.9532 67.5236C32.8516 65.9709 32.8516 64.4182 32.6496 62.899C32.4465 61.2787 32.4465 59.692 32.4809 58.0717C32.5145 57.1939 32.4469 56.2826 32.4133 55.4049C32.4133 54.2232 32.4133 53.0756 32.4469 51.8939C32.4469 51.7252 32.5145 51.59 32.5821 51.4213H32.6832C32.7168 51.4889 32.6832 51.59 32.7508 51.6244C32.852 51.7252 33.0203 51.8939 33.0883 51.8603C33.2911 51.7252 33.5946 51.59 33.6621 51.3877C33.8309 50.9826 33.8985 50.5439 33.8985 50.1385C33.8985 49.835 34.0336 49.6322 34.168 49.4295C34.236 49.3283 34.2696 49.2271 34.3375 49.092C34.2024 48.9908 34.0672 48.9232 33.8985 48.7885C34.0336 48.4174 33.9996 47.9779 34.5063 47.7756C34.5739 47.7416 34.5739 47.5728 34.6075 47.4717C34.6411 47.2021 34.675 46.8978 34.7086 46.6279C34.7762 46.7295 34.8098 46.7627 34.8774 46.8303C34.9114 46.7627 34.945 46.7291 34.945 46.7291C34.945 46.5939 34.9114 46.324 34.945 46.324C35.35 46.2564 35.1813 45.8178 35.384 45.615C35.4176 45.5814 35.35 45.4799 35.35 45.4127C35.35 45.3451 35.35 45.2435 35.384 45.2435C35.8563 45.1424 35.7891 44.6361 36.0926 44.3998C36.1942 44.3322 36.2278 44.231 36.3629 44.0623C36.6325 44.5349 36.1598 44.7713 36.1266 45.1092C36.7004 44.7713 36.8688 43.9611 36.5317 43.7248C36.6668 43.6232 36.8012 43.4885 36.9028 43.3537C37.2739 42.9482 37.6793 42.5767 38.0168 42.1717C38.2532 41.8678 38.3879 41.4967 38.6246 41.1928C38.7598 41.024 39.0297 40.8889 39.2321 40.7877C39.8399 40.4502 40.4137 40.0787 40.7852 39.5049C40.8528 39.4373 40.9539 39.3697 41.0547 39.3025C41.1563 39.2349 41.359 39.2349 41.3926 39.1334C41.4266 39.0662 41.325 38.8974 41.2575 38.7959C41.3926 38.7283 41.5278 38.5935 41.7977 38.4584C41.6961 38.6615 41.6629 38.7959 41.5953 38.931L41.7641 39.0998C42.068 38.8635 42.5407 38.5935 42.8442 38.3908C42.8442 38.3572 42.6754 38.2221 42.6754 38.2221C42.4731 38.3236 42.1692 38.4924 41.8653 38.6271C41.9328 38.526 41.9328 38.4584 41.9664 38.4248C42.4391 38.1209 42.9118 37.817 43.418 37.581C44.5996 37.0404 45.7813 36.5006 46.9625 35.9939C47.1653 35.8928 47.4352 35.9603 47.6715 35.9603C47.7727 35.9603 47.8403 35.9603 47.9418 35.9267C48.4817 35.758 49.0219 35.5892 49.5621 35.4541C49.8039 35.3874 50.0535 35.3534 50.3043 35.3529C51.3176 35.3865 52.3301 35.3865 53.343 35.4545C53.7817 35.4877 54.1868 35.5892 54.5918 35.724C55.0985 35.8928 55.6383 36.1291 56.111 36.3654C56.6816 36.6707 57.2339 37.0089 57.7653 37.3783C58.7442 38.0197 59.6555 38.7283 60.6344 39.3025C61.5797 39.8767 62.3219 40.6525 62.9301 41.5303C63.6723 42.5771 64.5168 43.5224 64.8543 44.8049L65.3606 47.033C65.4618 47.4381 65.6981 47.8432 65.5969 48.3158C65.4282 49.1596 65.293 50.0373 65.1582 50.8814C65.0907 51.2189 65.0231 51.5564 65.0567 51.8939C65.1243 52.9408 64.7192 53.8517 64.3141 54.7971C64.1789 55.101 63.9766 55.4049 63.8078 55.7424C63.8414 55.776 64.0442 55.8775 64.0774 55.8775L64.3817 55.2697C64.4153 55.2697 64.4153 55.2697 64.4493 55.3037C64.2805 55.7764 64.1453 56.2826 63.9766 56.7553C63.5715 57.8021 63.1664 58.8818 62.6602 59.8947C62.3899 60.4689 61.9172 60.9416 61.5797 61.481C61.2422 61.9537 60.9723 62.4599 60.6344 62.899C60.3309 63.2705 60.027 63.6416 59.6219 63.9119C58.7102 64.5869 57.7653 65.2619 56.786 65.8025C56.1785 66.1736 55.4696 66.376 54.7946 66.5447V66.5447ZM36.8016 64.7557L36.768 64.7892C36.7004 64.7557 36.5993 64.7217 36.5317 64.6545L35.7215 63.4396C35.6539 63.3381 35.62 63.2365 35.6539 63.1014C36.017 63.666 36.3998 64.2178 36.8016 64.7557V64.7557ZM57.7989 69.3807C59.318 68.7389 60.5672 67.8275 61.7149 66.781C61.8836 66.6123 62.0524 66.4435 62.2551 66.3084C63.6727 65.4307 64.7192 64.2154 65.6645 62.865C66.7446 61.3123 67.4535 59.5568 68.3313 57.9029C68.3989 57.7678 68.4664 57.6326 68.534 57.5318C68.4664 61.3799 68.9051 65.1607 69.4114 68.9752C65.5969 69.1103 61.7149 69.2455 57.7989 69.3803V69.3807ZM92.0293 68.3678C91.9953 68.4353 91.9278 68.5025 91.8942 68.5701C91.8602 68.5025 91.8602 68.4014 91.8266 68.2666C91.6235 68.8064 91.1852 68.5365 90.8813 68.5365C89.0586 68.5701 87.2016 68.5701 85.3789 68.5701C83.6235 68.5701 81.8344 68.5701 80.0789 68.6041C79.5047 68.6041 78.8973 68.7389 78.3235 68.7728C76.9395 68.8404 75.5555 68.8744 74.1711 68.9076C74.0696 68.9076 73.9688 68.7389 73.8 68.6041C73.7664 68.6717 73.6985 68.7728 73.5969 68.9076C73.5637 68.8404 73.4961 68.7728 73.4286 68.6717C73.4003 68.7636 73.3664 68.8538 73.327 68.9416H73.2262C73.1586 68.4689 73.0231 68.0303 73.0231 67.5576C73.0231 66.5447 73.1246 65.5322 73.1586 64.5193C73.1922 64.0467 73.1586 63.608 73.1586 63.1689C73.2938 63.2705 73.395 63.3377 73.5297 63.4393C73.5973 63.3041 73.6649 63.2029 73.7325 63.1014C73.7325 63.1014 73.6649 63.0678 73.5973 63.0002C73.6649 62.9666 73.7325 62.899 73.7325 62.8654C73.7664 62.7639 73.8336 62.6627 73.8336 62.5951C73.8336 62.3588 73.7664 62.1564 73.7321 61.9537C73.7664 61.9537 73.8 61.9537 73.8336 61.9201L74.0364 62.9326H74.1375C74.0028 62.6963 74.4414 62.4939 74.07 62.2236C74.0364 62.19 74.1039 61.9873 74.1039 61.8861C74.0024 61.6838 73.9352 61.481 73.8336 61.2111C73.8676 61.1775 73.9688 61.1435 74.07 61.1099C73.9352 61.0424 73.8336 60.9748 73.7325 60.9408C74.07 60.6373 74.07 60.4685 73.7664 60.1307C73.8336 60.0971 73.9012 60.0971 73.9012 60.0635C73.9012 59.7596 73.9012 59.4557 73.8336 59.1517C73.7664 58.8142 73.9352 58.4096 73.4286 58.2068C73.4599 58.303 73.5055 58.394 73.5637 58.4767C73.5637 58.4767 73.4621 58.5103 73.3606 58.5783C72.9223 58.1728 73.1922 57.633 73.091 57.0252C73.3274 57.0928 73.4961 57.1603 73.6649 57.2275C73.5973 56.9916 73.4286 56.7213 73.3274 56.4174H73.1922V54.1896C73.1922 54.2232 73.4286 54.2232 73.5633 54.2568C73.5633 54.2232 73.5973 54.1896 73.5973 54.1557C73.4957 54.0205 73.361 53.8861 73.2262 53.717L73.2938 53.6494C73.0235 53.3119 73.1586 52.8392 73.1586 52.7381V50.3748C73.4961 50.7123 72.9899 51.1514 73.4961 51.3537V51.0162H73.4625C73.4285 50.51 73.4286 50.0037 73.395 49.4971H73.3274C73.2938 49.5646 73.2938 49.5986 73.2598 49.6658H73.1922C73.2598 46.999 73.3274 44.3322 73.395 41.5978C73.7325 42.0369 74.1039 42.442 74.3403 42.8807C75.1164 44.2986 76.1293 45.5139 77.0746 46.7967C77.8848 47.9107 78.6274 49.126 79.37 50.2736C80.2813 51.6576 81.159 53.0416 82.0707 54.426C82.7488 55.4742 83.4466 56.5096 84.1637 57.5314C84.8051 58.4428 85.4801 59.3205 86.1555 60.1982C86.7293 60.9748 87.3368 61.7514 87.9106 62.5275C88.586 63.4728 89.261 64.4182 89.9364 65.3295C90.2739 65.8021 90.645 66.2748 91.0164 66.7475C91.2188 67.0174 91.5227 67.2201 91.7254 67.3889C91.6914 67.3889 91.6578 67.3889 91.5903 67.3549C91.6914 67.49 91.759 67.5912 91.8266 67.6588C92.1977 67.8611 92.2317 68.0639 92.0293 68.3678V68.3678ZM93.7508 59.9283V59.692C93.7508 59.7596 93.7844 59.8607 93.7508 59.9283ZM94.8985 45.0416C94.8649 45.0416 94.6621 44.8385 94.6285 44.8049C94.5946 44.9064 94.6286 45.0072 94.561 45.1424C94.5274 45.0412 94.291 45.0748 94.291 44.9736C94.2571 45.4463 94.4934 45.9189 94.4598 46.3916C94.561 46.324 94.966 46.29 95.0672 46.1889C95.1012 46.2228 95.1684 46.2564 95.2024 46.2564C94.5274 46.7627 94.6961 47.2693 94.9993 47.8432C95.0672 47.9779 95.27 48.2482 95.0672 48.5182C94.9996 48.5857 95.1012 48.7885 95.1348 48.9572H95.236V49.0244L94.9325 49.126C94.8649 49.0244 94.4598 48.8221 94.4598 48.6533V50.3748C94.7973 50.4764 94.7973 50.949 94.9325 51.185C94.9996 51.0838 95.0336 51.0162 95.0672 50.9154L95.1012 50.9486C95.0672 51.1517 95.0336 51.3537 94.966 51.5564C94.8985 51.8603 94.8309 52.1307 94.7973 52.4342C94.7973 52.4678 94.8649 52.5357 94.8649 52.5689C94.4934 53.4131 94.6961 54.3584 94.561 55.2361C94.4594 55.8775 94.561 56.5525 94.4934 57.2275C94.4258 57.8017 94.2911 58.4092 94.1559 58.983C94.1223 59.0846 94.0543 59.1182 93.886 59.1861C93.9532 58.7807 93.9196 58.5103 93.852 58.1392C93.8184 58.1392 93.3793 57.9029 93.3457 57.9029C93.3457 58.3756 93.6153 59.017 93.7168 59.5568C93.6153 59.5232 93.2106 59.2873 93.177 59.2873C93.1094 59.692 93.1094 60.2326 93.0754 60.6709C93.0418 61.0084 92.7379 61.3123 92.7043 61.6838C92.7043 61.8861 92.9407 62.0213 92.9067 62.3588H93.177C93.177 61.6838 93.4809 61.076 93.4809 60.367H93.5821C93.6157 60.4346 93.7172 60.5021 93.6832 60.5361C93.6157 60.9072 93.4809 61.3123 93.5145 61.6838C93.5145 61.8861 93.6832 62.0889 93.6157 62.3252C93.5481 62.5275 93.5141 62.7303 93.4809 63.0338C93.4469 62.865 93.4133 62.7978 93.4133 62.6963C93.3793 62.6963 93.0758 62.6627 93.0418 62.6627C93.0082 62.865 93.2782 63.0678 93.2446 63.2369C93.2106 63.2705 93.177 63.2705 93.1094 63.3041L91.9953 61.6838C91.1176 60.401 90.2399 59.1182 89.3621 57.8017C89.1352 57.4794 88.9321 57.1409 88.7547 56.7889C87.7078 54.9998 86.5606 53.2779 85.2778 51.624C84.2985 50.3748 83.5223 49.0244 82.6106 47.708C81.7668 46.4592 80.9227 45.2435 80.0789 43.9947C79.775 43.5896 79.4039 43.2182 79.1336 42.7799C78.2559 41.3955 77.4797 39.9775 76.602 38.5935C75.8594 37.4455 75.0489 36.3318 74.2727 35.2178C73.9948 34.8293 73.7247 34.4353 73.4625 34.0361C73.4285 33.9685 73.395 33.901 73.395 33.7998C73.3274 33.0576 73.2598 32.3146 73.2262 31.6057C73.2262 30.9303 73.2938 30.2553 73.2938 29.5463V28.9389C73.2938 28.7701 73.3274 28.6349 73.3274 28.4662C73.361 28.4322 73.395 28.365 73.4286 28.331C72.4496 28.331 71.4371 28.2974 70.4578 28.331C69.8168 28.365 69.4789 28.0947 69.0399 27.6224C67.7575 26.1705 66.8121 24.517 65.6981 22.9639C64.6512 21.4783 63.5715 20.0267 62.4911 18.5752C61.6137 17.3935 60.736 16.2459 59.8582 15.0642C58.8793 13.7142 57.934 12.3639 56.9207 11.0135C55.7059 9.39315 54.4571 7.77284 53.2078 6.15253C52.6336 5.40956 51.9926 4.70096 51.3512 3.9244C51.7899 3.99198 52.195 4.05956 52.6004 4.09315L54.2207 4.19471C55.4356 4.29628 56.6512 4.36307 57.8664 4.53182C58.8793 4.66698 59.8918 4.86971 60.9383 5.03846C63.1664 5.40956 65.3602 6.01737 67.4875 6.72636C68.7364 7.13143 69.9516 7.67167 71.1668 8.17792C73.9012 9.29198 76.5008 10.642 79.066 12.0599C79.8766 12.4986 80.3489 13.2076 80.9567 13.849C81.8344 14.7607 82.7121 15.6721 83.5559 16.6174C84.5348 17.7314 85.4465 18.8791 86.3914 20.0267C87.2352 21.0396 88.1133 22.0521 88.9571 23.065C89.2274 23.3689 89.4297 23.74 89.666 24.0775C90.2063 24.8877 90.8137 25.6642 91.2864 26.5424C91.6243 27.1834 91.8266 27.926 92.0629 28.6349C92.4004 29.6818 92.7379 30.6943 93.0758 31.7408C93.3138 32.5302 93.5165 33.3298 93.6832 34.1373C93.8184 34.6775 93.7844 35.2514 93.9528 35.7916C94.1559 36.5006 93.9528 37.2767 94.1559 37.9857C94.1895 38.0533 94.2235 38.1545 94.2571 38.2221C94.3922 38.3572 94.4934 38.492 94.291 38.6947C94.2571 38.7283 94.2571 38.8635 94.291 38.9646C94.3582 38.8974 94.3922 38.8299 94.4598 38.7283C94.4598 38.7959 94.4934 38.8299 94.4934 38.8635C94.4934 38.9986 94.4598 39.1334 94.4934 39.2685C94.4934 39.3361 94.561 39.4373 94.5946 39.5049C94.6621 39.4373 94.7297 39.4037 94.8649 39.3025C95.1684 40.4502 95.2024 41.5978 95.2024 42.7795C95.2024 43.8935 95.4047 45.0072 94.9325 46.0881C95.0336 45.7162 94.7973 45.3787 94.8985 45.0412V45.0416Z" fill="#DD3735"/>
<path d="M73.4381 58.28C73.4717 58.28 73.5057 58.314 73.5057 58.314L73.4717 58.28C73.4717 58.2464 73.4717 58.2464 73.4381 58.28ZM78.7717 91.6328C78.4006 91.9027 78.0291 92.139 77.5565 92.2402C77.5229 92.2066 77.5229 92.1726 77.4889 92.139C77.8604 91.9027 78.2654 91.6664 78.6369 91.4301C78.6705 91.4976 78.7381 91.5652 78.7717 91.6328V91.6328ZM15.4764 45.891C15.8475 45.4183 16.2189 44.9457 16.624 44.4734C16.6576 44.507 16.9279 44.5746 16.9615 44.6082C16.5904 45.0808 16.0838 45.7222 15.7127 46.2285C15.6451 46.1613 15.5439 45.925 15.4764 45.891V45.891ZM5.88926 62.4324C5.61895 61.8586 5.34902 61.2507 5.0791 60.6769C5.1127 60.6433 5.34902 60.5418 5.38262 60.5418C5.7541 61.082 5.92285 61.7234 6.19277 62.2972C6.19277 62.2972 5.92285 62.4324 5.88926 62.4324ZM14.4975 46.2285C14.2947 46.5324 14.0924 46.8699 13.8896 47.1738C13.8561 47.1402 13.4846 47.3089 13.451 47.275C13.6533 46.9714 14.1596 46.4312 14.3623 46.1273C14.3959 46.1613 14.4299 46.1949 14.4975 46.2285ZM75.1596 93.0168C75.1936 93.0168 75.1936 92.9828 75.2272 92.9828C75.4635 93.0168 75.7338 93.0504 76.0037 93.0504C75.5647 93.3543 75.2947 93.3207 75.1596 93.0168ZM14.5646 47.6464C14.5986 47.5453 14.6662 47.4437 14.7334 47.3425C14.801 47.3425 14.9025 47.3089 14.9025 47.3089C15.0373 47.0726 15.0373 46.9039 15.1725 46.7011C15.1389 46.6675 15.1049 46.6675 15.0713 46.6335C14.8686 46.7687 14.6662 46.9375 14.4635 47.0726C14.5311 47.1402 14.5311 47.1738 14.5311 47.2414C14.2611 47.2078 14.1596 47.3425 14.0248 47.714C13.9908 47.8152 13.8221 47.8488 13.6533 47.9839C13.6197 48.0515 13.5857 48.2203 13.5182 48.389L13.5521 48.423C13.5032 48.4676 13.4458 48.502 13.3834 48.5242C13.1807 48.7265 12.9443 48.8957 12.742 49.098C12.708 49.1992 12.6744 49.3007 12.6744 49.4019C12.9107 49.1656 13.3158 48.7265 13.6197 48.4566L13.6533 48.4902C13.7885 48.2878 13.8896 48.0851 14.0248 47.8828C14.0584 47.9164 14.0584 47.9503 14.0924 47.9839C13.9908 48.2539 13.8896 48.5578 13.7885 48.8281C13.7209 48.8617 13.6197 48.9293 13.6197 48.8957C13.4846 48.9968 13.3834 49.1316 13.2482 49.2332L12.6408 49.6382C12.3029 49.9421 11.9654 50.2121 11.5943 50.516C11.358 50.8871 11.1217 51.2246 10.8514 51.6636C11.2564 51.5625 11.358 51.7312 11.324 52.0687C11.7967 52.1363 11.8303 51.7648 11.9654 51.4949C11.9994 51.4273 12.033 51.2921 12.1006 51.2585C12.4045 50.9886 12.742 50.7523 13.0795 50.482C13.1471 50.4144 13.1471 50.2796 13.1471 50.1781C13.1471 50.1445 12.9783 50.1445 12.8771 50.1109C13.1807 49.773 13.6197 49.1992 13.9236 48.8281C14.0924 48.7265 14.2611 48.5918 14.2611 48.4902C14.2271 48.1191 14.4635 48.0179 14.7334 47.8828C14.5986 47.7816 14.5646 47.68 14.5646 47.6464V47.6464Z" fill="#DD3735"/>
<path d="M15.2404 47.2748C15.1052 47.5111 14.9704 47.7139 14.8353 47.9502L14.6325 47.8486C14.4978 48.6252 14.0251 49.3006 13.5525 49.4354C13.6876 49.5029 13.8224 49.5705 13.924 49.5365C14.0251 49.5029 14.0927 49.3342 14.1599 49.233L15.0716 47.9162L15.3755 47.41L15.2404 47.2748V47.2748ZM3.99895 62.0943C4.1677 62.0943 4.33645 62.1283 4.53919 62.1283C4.53919 61.9932 4.70794 62.0272 4.70794 61.892H4.80911C4.80911 62.0607 4.84309 62.1959 4.84309 62.3647H4.13411C4.10012 62.3307 3.96536 62.1283 3.99895 62.0943ZM3.72903 60.5416C3.62786 60.4404 3.45872 60.3393 3.45872 60.2377C3.42512 60.1029 3.5263 59.9342 3.62786 59.7654C3.69505 60.0014 3.72903 60.2041 3.79661 60.4404C3.76262 60.474 3.72903 60.508 3.72903 60.5416ZM4.57278 58.3811C4.70794 58.7189 4.84309 59.09 4.97786 59.4275C4.94426 59.4275 4.74153 59.5291 4.70794 59.5627C4.57278 59.2252 4.40403 58.8537 4.26926 58.5162C4.30286 58.4826 4.5052 58.3811 4.57278 58.3811ZM79.7173 90.6537C79.8861 90.5861 80.0888 90.5522 80.3587 90.4846C80.0548 90.7209 79.8185 90.8897 79.6161 91.0924C79.5822 91.0584 79.5486 91.0248 79.515 91.0248C79.5822 90.8897 79.6497 90.7885 79.7173 90.6533V90.6537V90.6537ZM38.2294 19.3236C38.4318 19.1885 38.6005 19.0873 38.8032 18.9521L38.8708 19.0197C38.6681 19.29 38.4993 19.56 38.263 19.8975C38.2294 19.6611 38.2294 19.526 38.1954 19.3572C38.1618 19.3572 38.1954 19.3572 38.2294 19.3236ZM48.12 36.4049C48.424 36.2701 48.7279 36.135 49.0993 35.9662C49.0654 36.1686 49.0654 36.3037 49.0654 36.4389C48.9642 36.4049 48.829 36.3713 48.7279 36.3713C48.5255 36.4049 48.154 36.6752 47.9853 36.7088C47.9513 36.7088 48.12 36.4389 48.12 36.4049V36.4049ZM73.4384 65.0315C73.506 65.369 74.1474 65.5377 73.506 65.8752C73.6072 65.9428 73.7083 65.9768 73.8099 66.0443C73.8099 66.0779 73.7759 66.1455 73.7423 66.1791C73.6747 66.2131 73.5396 66.2807 73.472 66.2467C73.4384 66.2467 73.3708 66.1115 73.3708 66.0443C73.3708 65.7404 73.4048 65.4365 73.4384 65.0315Z" fill="#DD3735"/>
</g>
<defs>
<clipPath id="clip0">
<rect width="100" height="100" fill="white"/>
</clipPath>
</defs>
</svg>
