<svg width="113" height="70" viewBox="0 0 113 70" fill="none" xmlns="http://www.w3.org/2000/svg">
<g clip-path="url(#clip0)">
<path d="M56.1202 44.9159L41.8669 22.6362L41.8454 41.3558L17.281 0H0V69.8153H17.0877L17.1436 28.511L41.4546 67.9644L56.1202 44.9159Z" fill="white"/>
<path d="M41.8705 17.9466H58.9368L58.9754 17.7491V0H41.8877L41.8662 17.7491L41.8705 17.9466Z" fill="white"/>
<path d="M85.314 37.3018C81.2256 37.2243 77.5319 39.7309 76.0938 43.5588C78.4878 39.9786 83.0464 38.54 87.0618 40.0975C88.9171 40.8533 91.3563 42.073 93.2888 41.4202C91.4509 38.8409 88.4811 37.3072 85.314 37.3018Z" fill="#96D8E9"/>
<path d="M104.678 45.7019C104.678 43.6105 103.54 43.1252 101.178 42.2663C99.426 41.6565 97.4377 40.9694 95.9904 39.0798C95.707 38.7062 95.445 38.2853 95.1659 37.8387C94.5405 36.6819 93.6926 35.6603 92.6708 34.8326C91.2923 33.8191 89.4843 33.3252 87.1395 33.3252C82.4346 33.3285 78.1959 36.1684 76.4033 40.5184C78.6695 37.374 82.4356 35.6702 86.2936 36.0442C90.1515 36.4183 93.5202 38.8138 95.1401 42.335C95.9495 43.6705 97.5456 44.3082 99.0524 43.8982C101.359 43.4043 101.2 45.5859 104.682 46.3246L104.678 45.7019Z" fill="#48C4E5"/>
<path d="M112.283 45.2551V45.2079C112.232 31.3625 100.993 19.5183 87.1392 19.5183C78.6778 19.5124 70.7823 23.7677 66.1349 30.8386L66.0447 30.684L58.9331 19.5183L41.8711 19.5183L58.0827 44.9073L42.2619 69.8153H58.8343L66.0447 58.7398L73.384 69.8153H89.9607L74.93 46.1613C74.6805 45.7004 74.545 45.1865 74.5349 44.6625C74.5338 41.3216 75.8604 38.1171 78.2228 35.7547C80.5852 33.3923 83.7897 32.0656 87.1306 32.0668C94.0962 32.0668 95.2601 36.2324 96.7631 38.1907C99.7306 42.0557 105.657 40.3637 105.657 45.4054C105.675 46.5868 106.321 47.6691 107.353 48.2445C108.385 48.8199 109.646 48.8011 110.66 48.1951C111.674 47.5891 112.288 46.488 112.27 45.3067V45.2551H112.283Z" fill="white"/>
<path d="M112.301 48.8196C112.47 49.997 112.303 51.1981 111.82 52.2852C110.875 54.4711 109.299 53.7411 109.299 53.7411C109.299 53.7411 107.942 53.0797 108.767 51.8128C109.682 50.4 111.489 50.5631 112.301 48.8196Z" fill="white"/>
</g>
<defs>
<clipPath id="clip0">
<rect width="112.515" height="70" fill="white"/>
</clipPath>
</defs>
</svg>
