<svg width="90" height="90" viewBox="0 0 90 90" fill="none" xmlns="http://www.w3.org/2000/svg">
<g clip-path="url(#clip0)">
<path d="M1.85948 46.4062H62.0132C62.0132 46.4062 66.2728 46.537 69.0079 43.5938C69.0079 43.5938 63.5671 37.0195 70.4071 26.7188C70.4071 26.7188 78.801 32.3438 76.0026 39.375C76.0026 39.375 81.7542 34.8947 88.5928 40.7812C88.5928 40.7812 85.5468 49.2834 74.6034 47.8125C74.6034 47.8125 63.9707 80.0972 29.775 77.1539C-4.42083 74.212 1.85948 46.4062 1.85948 46.4062Z" fill="#85CBF8"/>
<path d="M67.5947 56.0334C65.6878 54.5807 62.9977 54.966 61.5085 56.8434C56.581 63.052 48.4767 69.6389 36.0511 70.2646C35.8444 70.2745 35.3058 70.2773 34.628 70.2731C32.2261 70.2576 30.211 72.09 30.0057 74.482C29.8791 75.9571 31.0252 77.2312 32.5046 77.2607C34.3032 77.2959 36.2986 77.2973 36.8485 77.265C52.6224 76.3382 62.4802 67.4789 68.1502 59.7164C69.0038 58.5478 68.7464 56.9095 67.5947 56.0334Z" fill="#7BBEEB"/>
<path d="M61.7244 60.1889C61.4024 60.1889 61.0803 60.0792 60.8159 59.8556L58.6714 58.0359C58.0794 57.5339 58.0063 56.6466 58.5083 56.0531C59.0103 55.4625 59.8977 55.3866 60.4911 55.89L62.6356 57.7097C63.2277 58.2117 63.3008 59.0991 62.7988 59.6925C62.5189 60.0202 62.1238 60.1889 61.7244 60.1889Z" fill="#8D6C9F"/>
<path d="M56.4838 65.3301C56.0746 65.3301 55.6682 65.1529 55.3912 64.8083L53.6207 62.623C53.1313 62.0198 53.2241 61.1338 53.8274 60.6458C54.4293 60.1565 55.3152 60.2493 55.8046 60.8526L57.5751 63.0379C58.0644 63.6412 57.9716 64.5271 57.3684 65.0151C57.1068 65.2274 56.7946 65.3301 56.4838 65.3301Z" fill="#8D6C9F"/>
<path d="M50.3069 69.3577C49.7951 69.3577 49.3001 69.0765 49.0526 68.5899L47.7771 66.0826C47.4255 65.3907 47.6997 64.5441 48.393 64.1912C49.0849 63.8368 49.9315 64.1152 50.2844 64.8071L51.5599 67.3144C51.9115 68.0063 51.6373 68.8529 50.944 69.2058C50.7401 69.3085 50.5221 69.3577 50.3069 69.3577Z" fill="#8D6C9F"/>
<path d="M43.3965 71.9607C42.7707 71.9607 42.1998 71.5402 42.0352 70.906L41.3321 68.1821C41.1381 67.4297 41.5895 66.6633 42.3418 66.4693C43.0927 66.2766 43.8605 66.728 44.0546 67.4789L44.7577 70.2029C44.9518 70.9552 44.5004 71.7216 43.7481 71.9157C43.6313 71.9466 43.5132 71.9607 43.3965 71.9607Z" fill="#8D6C9F"/>
<path d="M36.1166 73.0505C35.3727 73.0505 34.7512 72.467 34.7132 71.716L34.5712 68.9063C34.5318 68.1301 35.1281 67.4706 35.9043 67.4312C36.6665 67.396 37.3401 67.988 37.3795 68.7643L37.5229 71.574C37.5623 72.3502 36.966 73.0098 36.1898 73.0491C36.1659 73.0491 36.1406 73.0505 36.1166 73.0505Z" fill="#8D6C9F"/>
<path d="M34.0807 78.75C32.6478 78.75 31.1754 78.6881 29.6539 78.5559C18.0425 77.5575 9.66543 73.6439 4.75481 66.9291C-2.02191 57.6605 0.381373 46.5652 0.486841 46.0969C0.633091 45.4556 1.20262 45 1.85934 45H62.0131C62.0848 45.0042 64.955 45.0478 67.1768 43.3589C65.7931 40.8966 63.4868 34.598 69.2342 25.9397C69.4409 25.6275 69.7629 25.4124 70.13 25.3392C70.4942 25.2647 70.8767 25.3406 71.1875 25.5502C71.5179 25.7724 78.2792 30.3891 77.9825 36.8311C80.9159 35.9184 85.1782 35.9874 89.5081 39.7139C89.9497 40.0936 90.1114 40.7067 89.9145 41.2538C89.8807 41.3452 86.555 50.2059 75.53 49.3242C73.3573 54.7425 62.1171 78.75 34.0807 78.75ZM3.05184 47.8125C2.66934 50.6855 2.17434 58.6547 7.04278 65.2922C11.4556 71.3081 19.1436 74.828 29.8957 75.7533C31.3189 75.8756 32.7068 75.9333 34.047 75.9347C63.5107 75.9375 73.1703 47.6705 73.2687 47.3709C73.4797 46.7283 74.1125 46.3261 74.7917 46.4175C82.474 47.4469 85.7773 43.1241 86.8503 41.1849C81.3912 37.1475 77.0515 40.3425 76.8603 40.4874C76.3582 40.8684 75.6579 40.8713 75.1559 40.4888C74.6539 40.1063 74.464 39.4383 74.6975 38.8519C76.4609 34.4194 72.7639 30.4917 70.7768 28.7845C65.817 37.3514 70.047 42.6389 70.0934 42.6938C70.5434 43.238 70.5209 44.0311 70.04 44.5472C66.9054 47.9194 62.179 47.8167 61.9723 47.8083L3.05184 47.8125Z" fill="#8D6C9F"/>
<path d="M17.5781 61.875C19.5198 61.875 21.0938 60.301 21.0938 58.3594C21.0938 56.4177 19.5198 54.8438 17.5781 54.8438C15.6365 54.8438 14.0625 56.4177 14.0625 58.3594C14.0625 60.301 15.6365 61.875 17.5781 61.875Z" fill="#8D6C9F"/>
<path d="M15.4688 35.1562H4.21875V46.4062H15.4688V35.1562Z" fill="#85CBF8"/>
<path d="M26.7188 35.1562H15.4688V46.4062H26.7188V35.1562Z" fill="#85CBF8"/>
<path d="M37.9688 35.1562H26.7188V46.4062H37.9688V35.1562Z" fill="#85CBF8"/>
<path d="M49.2188 35.1562H37.9688V46.4062H49.2188V35.1562Z" fill="#85CBF8"/>
<path d="M26.7188 23.9062H15.4688V35.1562H26.7188V23.9062Z" fill="#85CBF8"/>
<path d="M37.9688 23.9062H26.7188V35.1562H37.9688V23.9062Z" fill="#85CBF8"/>
<path d="M49.2188 23.9062H37.9688V35.1562H49.2188V23.9062Z" fill="#85CBF8"/>
<path d="M49.2188 12.6562H37.9688V23.9062H49.2188V12.6562Z" fill="#85CBF8"/>
<path d="M60.4688 35.1562H49.2188V46.4062H60.4688V35.1562Z" fill="#85CBF8"/>
<path d="M60.4688 33.75H50.625V12.6562C50.625 11.8828 49.9922 11.25 49.2188 11.25H37.9688C37.1953 11.25 36.5625 11.8828 36.5625 12.6562V22.5H15.4688C14.6953 22.5 14.0625 23.1328 14.0625 23.9062V33.75H4.21875C3.44531 33.75 2.8125 34.3828 2.8125 35.1562V46.4062C2.8125 47.1797 3.44531 47.8125 4.21875 47.8125H60.4688C61.2422 47.8125 61.875 47.1797 61.875 46.4062V35.1562C61.875 34.3828 61.2422 33.75 60.4688 33.75ZM14.0625 45H5.625V36.5625H14.0625V45ZM25.3125 45H16.875V36.5625H25.3125V45ZM36.5625 45H28.125V36.5625H36.5625V45ZM36.5625 33.75H28.125V29.5312C28.125 28.755 27.495 28.125 26.7188 28.125C25.9425 28.125 25.3125 28.755 25.3125 29.5312V33.75H16.875V25.3125H36.5625V33.75ZM47.8125 45H39.375V36.5625H43.5938C44.3672 36.5625 45 35.9297 45 35.1562C45 34.3828 44.3672 33.75 43.5938 33.75H39.375V25.3125H47.8125V45ZM47.8125 22.5H39.375V14.0625H47.8125V22.5ZM59.0625 45H50.625V36.5625H59.0625V45Z" fill="#8D6C9F"/>
</g>
<defs>
<clipPath id="clip0">
<rect width="90" height="90" fill="white"/>
</clipPath>
</defs>
</svg>
