<svg width="75" height="100" viewBox="0 0 75 100" fill="none" xmlns="http://www.w3.org/2000/svg">
<g clip-path="url(#clip0)">
<path d="M5.02779 24.23C5.02779 24.23 6.73521 30.815 6.97876 33.0104C7.22288 35.2052 2.58887 40.0831 2.58887 42.522C2.58887 44.9612 3.56304 49.3511 8.92943 51.5465C14.2958 53.7416 15.0267 59.3506 15.0267 62.766C15.0267 66.1803 13.0758 72.7647 13.0758 72.7647C13.0758 72.7647 11.8569 89.1054 18.4413 92.032C25.0257 94.9583 23.563 94.9583 25.0257 94.9583C26.4887 94.9583 37.2203 99.3496 43.5612 97.6419C49.9026 95.9348 51.6086 93.9838 51.6086 93.9838C51.6086 93.9838 57.9503 94.4712 59.9013 88.861C61.8531 83.2519 63.072 71.5455 62.3399 66.1797C61.6081 60.8133 60.6331 53.7418 65.0224 51.3026C69.4137 48.8634 74.0469 45.9377 73.3151 43.4982C72.5833 41.059 68.6822 37.6444 68.6822 37.6444C68.6822 37.6444 67.7063 31.5477 68.4375 30.0841C69.1687 28.6208 73.5592 24.9615 71.12 22.2794C68.6825 19.5969 64.2912 19.5969 64.2912 19.5969L58.6821 20.084C58.6821 20.084 49.1705 11.5483 36.7321 12.036C24.2942 12.5237 16.4892 20.084 16.4892 20.084C16.4892 20.084 12.3434 18.6207 8.68473 20.084C5.02605 21.5479 4.29658 20.0837 5.02779 24.23V24.23Z" fill="#FBA919"/>
<path d="M27.3128 60.5429C27.3128 60.5429 22.4829 67.9277 18.9402 73.1685C18.3921 73.9794 22.4829 74.0355 22.4829 74.0355L27.3128 60.5426V60.5429ZM29.6122 45.2319C29.6122 45.2319 28.1562 48.8641 27.3587 50.7895C26.4932 52.8829 23.1923 53.9242 23.1923 53.9242C23.1923 53.9242 24.9032 52.1296 24.9032 47.5833C24.9032 45.6763 27.3657 44.9177 27.3657 44.9177L29.6122 45.2316V45.2319Z" fill="#E78724"/>
<path d="M28.1419 47.2856C28.1419 47.2856 25.159 50.8365 19.6208 48.8478C14.0812 46.8599 13.5133 39.7576 13.5133 37.7691C13.5133 35.7807 24.0235 39.7576 25.4443 40.61C26.8649 41.4624 29.5619 44.8705 28.1416 47.2856H28.1419ZM7.2207 9.34453C7.2207 9.34453 12.3337 8.34943 15.7418 11.0485C19.1517 13.7469 20.1448 15.8778 20.1448 15.8778L14.3994 20.4319C14.3994 20.4319 11.6234 19.145 10.7713 15.4517C9.91916 11.7588 10.4873 10.0548 7.2207 9.34453V9.34453Z" fill="#E78724"/>
<path d="M26.6496 37.0295C24.4484 33.9047 20.8205 32.5416 17.9239 32.3158C12.985 31.9296 10.6402 33.6756 10.6402 33.6756C10.6402 33.6756 18.7289 34.018 21.0603 37.08C25.4005 42.7792 31.7323 43.2422 32.7449 41.9904C31.5739 42.0488 30.2862 41.4688 28.9075 40.1653C28.0463 39.3498 27.3483 38.0214 26.6496 37.0295V37.0295ZM12.9949 48.0784C12.9949 48.0784 4.02036 44.9932 5.72604 41.8692C7.42997 38.7441 6.07363 37.0414 6.07363 37.0414C6.07363 37.0414 1.06238 40.7823 2.3391 44.7592C3.12407 47.1999 4.44061 48.9672 11.6702 52.3553C15.1379 58.7964 12.3863 70.39 12.5511 70.4444C12.8257 70.5356 17.4199 68.1737 17.1063 57.327C17.0104 53.9964 16.7442 49.4493 12.9949 48.0787V48.0784ZM24.7553 14.9021C20.9923 16.8139 15.8369 19.4763 15.8369 19.4763L17.866 20.4914C17.6722 20.805 17.5789 20.9922 17.5789 20.9922L19.6615 21.939C19.6615 21.939 24.7454 25.6218 27.86 27.9899C26.8216 24.7912 23.773 19.7672 23.773 19.7672C23.773 19.7672 22.9092 17.4588 24.7553 14.9019V14.9021ZM37.2568 92.8315C25.6899 92.8315 21.7723 86.9597 21.7723 86.9597L23.58 91.3615C24.263 93.2657 31.5519 99.1915 37.2394 99.1915" fill="#E78724"/>
<path d="M23.0403 82.992C23.0403 82.992 24.1045 89.4956 28.3657 89.4956C31.9866 89.4956 33.0534 84.002 33.0534 82.8665L23.0403 82.992V82.992ZM15.9493 73.1834C16.328 72.1413 17.6535 67.9278 18.0793 64.0933C18.5896 59.5005 18.4036 52.7836 18.4036 52.7836C18.4036 52.7836 17.2667 57.1866 16.2725 57.898C15.2788 58.6077 13.4319 63.4364 13.4319 63.4364C13.4319 63.4364 12.4426 70.6253 11.9718 73.0416C13.275 73.3023 14.3718 72.5348 15.9493 73.1834V73.1834ZM5.65943 44.6882C5.65943 44.6882 8.07336 43.8352 8.78423 38.5807C9.49422 33.3254 7.93153 28.7803 7.93153 28.7803C7.93153 28.7803 8.07336 36.0238 7.22153 37.4447C6.36884 38.8644 5.65943 39.2907 4.66462 41.1377C3.66981 42.9849 5.09038 44.1198 5.65943 44.6882V44.6882Z" fill="#E78724"/>
<path d="M8.54153 10.5873L8.04863 10.2751C6.59551 10.3243 8.54153 10.5873 8.54153 10.5873Z" fill="#FDC168"/>
<path d="M26.7207 13.3461C26.7207 13.3461 24.4492 12.9677 23.3123 11.2635C22.1753 9.55896 18.9567 6.14964 13.8251 6.11186C8.69383 6.07349 3.61719 7.47576 3.61719 7.47576L8.04864 10.2759C8.51742 10.2605 9.33698 10.2669 10.6922 10.3123C16.2539 10.4971 17.11 15.9981 17.11 15.9981L36.7104 13.299" fill="#FBA919"/>
<path d="M28.615 43.7301C28.615 43.7301 25.9633 46.3814 21.8911 45.5287C17.8192 44.6769 15.3567 42.8777 15.1675 39.7526C14.9783 36.6278 16.0205 35.397 16.0205 35.397C16.0205 35.397 20.565 36.8181 22.7441 38.7121C24.922 40.6056 26.5315 43.6356 28.6147 43.7301H28.615Z" fill="white"/>
<path d="M25.4054 42.783C25.4054 42.783 23.1057 43.8333 20.5354 42.9777C17.1708 41.8553 16.9467 38.3562 16.9467 38.3562C16.9467 38.3562 14.8824 44.4137 20.6696 45.5797C25.3112 46.5146 28.0565 43.8249 28.0565 43.8249L25.4054 42.7827V42.783Z" fill="#C9C9C9"/>
<path d="M27.0405 12.0609C26.7932 6.86631 31.0517 2.72897 32.5275 2.55256C32.6089 3.43286 32.4449 6.8666 33.9202 7.92244C34.3497 5.11791 35.802 2.02566 41.5369 0C40.3087 3.25762 41.3727 5.98629 41.8798 7.25109C45.7957 3.69675 48.4343 4.28381 48.4343 4.28381C48.4343 4.28381 45.7131 8.97915 46.7777 12.0601C38.9163 11.4437 27.0788 12.8953 27.0405 12.0612V12.0609ZM10.3743 19.9741C8.49832 18.4178 9.89652 16.9737 9.7483 15.2055C9.6678 14.2647 9.5934 13.3772 9.2833 12.8875C7.55699 10.162 3.48504 9.33488 3.44435 9.32616L1.5332 8.95183L2.79829 7.47197C2.96221 7.28016 8.15742 2.32297 16.1976 4.91883C21.8217 6.73262 25.9852 12.8834 26.1401 13.1319L23.3202 14.458C23.2871 14.4057 19.9954 8.62401 15.1705 7.06829C11.2703 5.80988 7.67527 7.00726 6.13583 7.79195C7.77263 8.44527 9.9125 9.63538 11.202 11.6712C11.8103 12.6329 11.9132 13.8433 12.0123 15.0157C12.1431 16.5677 12.2651 18.0327 13.4073 18.9816L10.3743 19.9741V19.9741ZM5.36451 42.6908C5.36451 42.6908 7.72758 39.7601 8.4277 34.0581C8.70263 31.8118 8.21409 27.3818 7.4326 25.6776C7.57472 29.8675 6.50957 34.0581 6.50957 34.0581C6.50957 34.0581 5.79144 41.8384 5.36451 42.6908Z" fill="#463014"/>
<path d="M17.8252 17.0144C17.8237 17.0083 17.0666 13.6999 14.9677 12.0296C12.0069 9.67442 8.39177 10.9273 8.3569 10.9384L7.83203 9.31666C8.00699 9.25999 12.1391 7.95799 15.9472 10.6349C19.7782 13.327 20.2379 15.7674 20.2778 16.0368L17.8249 17.0144H17.8252ZM12.786 40.5891C12.786 40.5891 11.5462 38.8142 11.7691 36.8624C11.8801 35.8984 12.3271 34.9088 13.1243 34.5577C14.6065 33.9067 15.2633 35.5865 15.2633 35.5865C15.2633 35.5865 13.1775 36.1012 12.786 40.5891V40.5891Z" fill="#463014"/>
<path d="M26.3986 43.2944C26.4503 43.3909 26.4771 43.4452 26.4771 43.4452C26.4771 43.4452 22.6097 46.3474 18.6468 43.4022C16.5252 41.8241 16.7257 37.9213 17.3756 36.2662C19.0658 36.6493 20.4992 37.3395 21.6972 38.1457C20.183 36.7943 18.8578 35.7995 18.8612 35.7765L17.1402 35.2894L13.7951 34.1423C13.7523 34.3975 12.5323 40.1164 16.0541 44.0131C17.6147 45.7412 24.9327 49.6106 28.4074 42.9942L26.3986 43.2941V43.2944Z" fill="#463014"/>
<path d="M26.0372 43.7194C28.2143 47.0331 33.7077 45.1394 33.6132 41.6362C33.6132 41.6362 29.9426 43.6619 26.6995 39.932C24.8061 37.7547 18.7393 31.7506 10.5117 33.7458C16.1934 34.9955 23.7157 40.186 26.0369 43.7194H26.0372Z" fill="#463014"/>
<path d="M9.74289 53.0719C10.2666 53.3744 12.1138 55.2876 12.115 58.1485C12.115 59.5833 11.9723 66.7908 11.262 71.1941C12.33 71.8881 13.074 72.0357 14.1377 72.7431C14.6702 67.6435 15.052 60.2523 14.8742 57.2685C14.6707 53.8673 12.8494 51.5847 11.1606 50.6114C10.6316 50.3071 10.0791 50.0081 9.5226 49.7073C6.63001 48.1443 3.63861 46.5273 3.63861 43.7666C3.63861 41.6067 4.47851 40.9313 5.36724 40.2152L5.46315 40.1376C6.05312 39.661 6.72039 39.1204 7.11593 38.2331C8.19503 35.807 8.37143 29.6263 7.11593 28.0575C6.48993 27.2757 4.81302 24.6467 5.29517 22.88C5.47884 22.2057 5.90345 21.7059 6.59484 21.3519C7.32635 20.977 8.31476 20.7872 9.53132 20.7872C11.9208 20.7872 14.5713 21.5146 15.9387 21.9477C20.825 23.4964 26.7212 27.9616 28.4112 29.2932C28.4597 29.3304 28.4882 29.3522 28.4934 29.3557L29.5749 30.1078L28.8986 28.9761C28.8567 28.9055 24.5732 21.8619 16.9138 19.2794C15.4237 18.7769 12.4963 17.9338 9.61909 17.9338C7.90643 17.9338 6.45273 18.2332 5.30214 18.8223C3.8993 19.5398 2.94953 20.6846 2.55487 22.1319C1.58767 25.6796 4.73775 29.6295 4.84499 29.7559C5.21234 30.4115 5.36812 35.174 4.51949 37.0799C4.40324 37.3432 4.08297 37.6016 3.67813 37.9285C3.55113 38.0311 3.4093 38.1378 3.25905 38.2517C2.06197 39.1553 0.251953 40.5203 0.251953 43.6669C0.251953 47.9723 4.6154 50.3066 8.12208 52.1834C8.69752 52.4929 9.24651 52.7859 9.74289 53.0719Z" fill="#463014"/>
<path d="M10.3743 19.9741C8.49832 18.4178 9.89652 16.9737 9.7483 15.2055C9.6678 14.2647 9.5934 13.3772 9.2833 12.8875C7.55699 10.162 3.48504 9.33488 3.44435 9.32616L1.5332 8.95183L2.79829 7.47197C2.96221 7.28016 8.15742 2.32297 16.1976 4.91883C21.8217 6.73262 25.9852 12.8834 26.1401 13.1319L23.3202 14.458C23.2871 14.4057 19.9955 8.62401 15.1705 7.06829C11.2703 5.80988 7.67527 7.00726 6.13583 7.79195C7.77263 8.44527 9.91251 9.63538 11.202 11.6712C11.8103 12.6329 11.9132 13.8433 12.0123 15.0157C12.1431 16.5677 12.2651 18.0327 13.4073 18.9816L10.3743 19.9741V19.9741Z" fill="#463014"/>
<path d="M10.3128 20.2929L10.1916 20.1924C8.80067 19.038 9.04741 17.9011 9.2863 16.8008C9.395 16.293 9.5095 15.7682 9.463 15.2296C9.38715 14.3244 9.3142 13.4702 9.0416 13.0392C7.39811 10.4439 3.42585 9.61274 3.38661 9.6046L1 9.13641L2.58216 7.28658C2.61123 7.2517 5.94702 3.88452 11.5965 3.88452C13.1368 3.88452 14.7146 4.14085 16.2843 4.64799C22.1543 6.54054 26.3416 12.918 26.3812 12.9811L26.5506 13.2519L23.2148 14.8207L23.0811 14.6086C22.7219 13.9965 19.559 8.78039 15.0846 7.33715C13.9857 6.98258 12.8279 6.80327 11.6444 6.80327C9.50078 6.80327 7.76255 7.38742 6.83749 7.77977C8.38333 8.47582 10.2582 9.64732 11.4439 11.5181C12.0891 12.537 12.1937 13.7823 12.296 14.9858C12.4216 16.482 12.5401 17.8892 13.5899 18.7605L13.986 19.0889L10.3131 20.2929H10.3128Z" fill="#463014"/>
<path d="M17.8252 17.0144C17.8237 17.0083 17.0666 13.6999 14.9677 12.0296C12.0069 9.67442 8.39177 10.9273 8.3569 10.9384L7.83203 9.31666C8.00699 9.25999 12.1391 7.95799 15.9472 10.6349C19.7782 13.327 20.2379 15.7674 20.2778 16.0368L17.8249 17.0144H17.8252Z" fill="#463014"/>
<path d="M17.6218 17.4013L17.548 17.0758C17.5404 17.0438 16.7979 13.8487 14.7905 12.2526C13.6463 11.3418 12.2667 10.8791 10.6921 10.8791C9.46307 10.8791 8.54963 11.1726 8.44995 11.2072L8.17879 11.2973L7.47461 9.13417L7.7446 9.04698C7.8655 9.00833 8.96232 8.66626 10.5137 8.66626C12.5603 8.66626 14.4952 9.26698 16.1117 10.4022C20.0389 13.1616 20.5184 15.7136 20.5591 15.9952L20.5937 16.2179L17.6218 17.4013V17.4013ZM10.6924 10.3121C12.3745 10.3121 13.9154 10.8294 15.1448 11.807C16.9272 13.2267 17.7656 15.7328 18.0191 16.6314L19.9511 15.8613C19.7762 15.1792 19.006 13.132 15.7847 10.8675C14.2436 9.78429 12.4707 9.23559 10.514 9.23559C9.44011 9.23559 8.60601 9.40648 8.19391 9.51052L8.54237 10.5876C8.94633 10.4789 9.72405 10.3121 10.6924 10.3121V10.3121ZM28.1874 87.9357C27.3481 87.9357 26.4917 87.6311 25.8982 87.1173C25.4437 86.7255 23.9068 85.3139 23.2291 83.5847C22.9763 82.9381 23.0329 82.4208 23.4 82.0485C23.6528 81.7933 24.178 81.4885 25.2437 81.4885L26.0019 81.4873C26.9055 81.4861 28.4266 81.4861 29.7269 81.4861H30.9737C31.7845 81.4861 32.3658 81.6617 32.6997 82.0034C33.1289 82.4443 32.9915 83.0052 32.8712 83.3005C32.6625 83.8178 31.7979 85.5008 30.3343 87.0655C29.8103 87.6264 29.0477 87.9357 28.1874 87.9357V87.9357ZM29.0672 43.9144L26.0371 43.7197C26.0371 43.7197 26.8116 45.0851 27.3135 46.8509C27.8803 48.8484 26.7954 51.7677 26.7954 51.7677C26.7954 51.7677 30.8356 47.1932 29.0672 43.9144V43.9144ZM25.2847 95.9366C14.4999 95.1077 10.7055 84.917 10.7055 82.7945L13.5219 82.7957L12.1139 82.7945H13.5219C13.5362 83.712 16.402 92.4293 25.5003 93.1291L25.2847 95.9366V95.9366Z" fill="#463014"/>
<path d="M22.2535 77.6785C22.0849 76.7046 22.0675 75.7807 22.273 74.8731C21.4534 74.2569 19.9829 74.0282 18.8793 73.6704C17.977 73.0994 13.3592 74.2558 10.0095 70.2015C5.81197 65.1249 6.69518 62.094 6.69518 62.094C5.619 63.2896 4.57594 62.8339 2.93566 68.4093C1.29275 73.9858 3.70668 77.8732 8.20556 81.776C10.3309 83.6194 13.3354 84.3791 15.9199 84.6697C15.0541 83.8008 17.3986 83.7136 19.0145 83.1091C18.8857 81.8042 19.1017 80.5376 20.0744 79.5178C20.6609 78.9029 21.4156 78.5355 22.1989 78.2426C22.2425 78.1414 22.2794 78.0478 22.3209 77.9508C22.2934 77.8613 22.2708 77.7704 22.2535 77.6785V77.6785Z" fill="white"/>
<path d="M18.993 83.0749C18.8994 82.8008 18.8288 82.5218 18.7596 82.2408C18.6849 81.9342 18.3129 81.0646 18.7713 82.0574C18.6536 81.8031 18.5765 81.5413 18.5199 81.2774C11.2339 81.2681 4.89538 76.2656 6.12007 65.7487C5.16624 64.4825 3.83053 68.3022 3.83053 68.3022C3.83053 68.3022 0.182893 78.8931 9.60321 82.9979C12.742 84.3667 15.516 85.3482 16.1705 84.952C17.5338 85.229 18.7643 84.2787 19.2258 83.6535C19.1395 83.4617 19.0604 83.2693 18.993 83.0749Z" fill="#C9C9C9"/>
<path d="M22.1218 76.1535C22.1332 75.266 22.3145 74.406 22.7438 73.5496C22.7737 73.4906 22.8083 73.4339 22.8405 73.3763C20.0369 73.3522 16.808 73.084 14.0584 71.9834C11.0362 70.7744 7.25577 66.6388 6.60622 61.7795C6.60622 61.7795 0.914618 66.1715 2.58687 75.5723C4.15683 84.3994 11.5436 87.2772 19.968 87.764C19.9726 87.7071 19.0206 85.7407 19.3214 84.5366C14.5377 84.8842 9.18842 83.0361 6.60622 78.7872C4.24198 74.8981 4.90519 68.2584 5.87675 67.2854C8.2468 74.7638 16.7749 76.284 22.1218 76.1535V76.1535Z" fill="#463014"/>
<path d="M23.0048 70.7999C21.4889 75.2485 18.3926 78.849 18.3926 78.849C18.3926 78.849 22.652 78.6552 22.8871 77.9016C23.0612 77.3459 26.7332 68.7498 28.1428 58.6797C26.8169 60.8579 23.1347 70.4189 23.0048 70.7999V70.7999Z" fill="#463014"/>
<path d="M47.1379 60.5429C47.1379 60.5429 51.9667 67.9277 55.5105 73.1685C56.0587 73.9794 51.9667 74.0355 51.9667 74.0355L47.1379 60.5426V60.5429ZM44.8379 45.2319C44.8379 45.2319 46.2939 48.8641 47.0902 50.7895C47.9563 52.8829 51.2567 53.9242 51.2567 53.9242C51.2567 53.9242 49.546 52.1296 49.546 47.5833C49.546 45.6763 47.0838 44.9177 47.0838 44.9177L44.8379 45.2316V45.2319Z" fill="#E78724"/>
<path d="M46.3082 47.2856C46.3082 47.2856 49.2909 50.8365 54.8308 48.8478C60.3707 46.8593 60.938 39.7576 60.938 37.7691C60.938 35.7807 50.4279 39.7576 49.007 40.61C47.5864 41.4624 44.8882 44.8705 46.3082 47.2856ZM67.2297 9.34453C67.2297 9.34453 62.1168 8.34943 58.7072 11.0485C55.299 13.7469 54.3042 15.8778 54.3042 15.8778L60.0499 20.4319C60.0499 20.4319 62.8271 19.1444 63.6792 15.4514C64.531 11.7588 63.9631 10.0545 67.2297 9.34453V9.34453Z" fill="#E78724"/>
<path d="M47.8 37.0294C50.0012 33.9046 53.6279 32.5416 56.5257 32.3158C61.4649 31.9295 63.8085 33.6756 63.8085 33.6756C63.8085 33.6756 55.7198 34.018 53.3878 37.08C49.0474 42.7791 42.7178 43.2421 41.7053 41.9904C42.8759 42.0488 44.1646 41.4687 45.5421 40.1653C46.403 39.3498 47.1016 38.0213 47.8 37.0294V37.0294ZM61.4547 48.0784C61.4547 48.0784 70.4283 44.9931 68.7238 41.8692C67.0199 38.7441 68.3751 37.0413 68.3751 37.0413C68.3751 37.0413 73.3875 40.7823 72.1096 44.7589C71.3246 47.1995 70.0081 48.9668 62.7785 52.3549C59.3108 58.7961 62.0624 70.3897 61.8985 70.444C61.6236 70.5353 57.03 68.1734 57.3435 57.3267C57.4389 53.9961 57.7054 49.449 61.4547 48.0784ZM49.6946 14.9021C53.4564 16.8138 58.6127 19.4762 58.6127 19.4762L56.5841 20.4914C56.7777 20.805 56.8713 20.9921 56.8713 20.9921L54.7887 21.939C54.7887 21.939 49.7045 25.6218 46.5895 27.9898C47.6271 24.7915 50.6757 19.7675 50.6757 19.7675C50.6757 19.7675 51.5412 17.459 49.6946 14.9021V14.9021ZM37.1934 92.8315C48.7582 92.8315 52.6761 86.9597 52.6761 86.9597L50.8696 91.3615C50.1866 93.2656 42.8969 99.1915 37.2111 99.1915" fill="#E78724"/>
<path d="M51.4104 82.992C51.4104 82.992 50.3449 89.4956 46.085 89.4956C42.4649 89.4956 41.3975 84.002 41.3975 82.8665L51.4104 82.992ZM58.5013 73.1834C58.1226 72.1413 56.7971 67.9278 56.3702 64.0933C55.8598 59.5005 56.047 52.7836 56.047 52.7836C56.047 52.7836 57.1833 57.1866 58.1767 57.898C59.1718 58.6077 61.0176 63.4364 61.0176 63.4364C61.0176 63.4364 62.0065 70.6253 62.4774 73.0416C61.1748 73.3023 60.0791 72.5348 58.5013 73.1834V73.1834ZM68.7921 44.6882C68.7921 44.6882 66.377 43.8352 65.6673 38.5807C64.9573 33.3254 66.5197 28.7803 66.5197 28.7803C66.5197 28.7803 66.377 36.0238 67.2297 37.4447C68.0824 38.865 68.7921 39.2907 69.7866 41.1377C70.7799 42.9843 69.3596 44.1198 68.7921 44.6882V44.6882Z" fill="#E78724"/>
<path d="M65.9082 10.5873L66.402 10.2751C67.8554 10.3243 65.9082 10.5873 65.9082 10.5873Z" fill="#FDC168"/>
<path d="M47.7294 13.3461C47.7294 13.3461 50.0024 12.9677 51.1382 11.2635C52.2745 9.55901 55.4946 6.14968 60.6265 6.11161C65.7578 6.07325 70.8344 7.47552 70.8344 7.47552L66.4026 10.2757C65.9339 10.2603 65.1143 10.2667 63.758 10.312C58.1971 10.4969 57.341 15.9978 57.341 15.9978L37.7412 13.2988" fill="#FBA919"/>
<path d="M45.8359 43.7301C45.8359 43.7301 48.4876 46.3814 52.559 45.5287C56.6312 44.6769 59.0934 42.8777 59.2829 39.7526C59.4718 36.6278 58.4308 35.397 58.4308 35.397C58.4308 35.397 53.8848 36.8181 51.7071 38.7121C49.5292 40.6061 47.9197 43.6356 45.8359 43.7301V43.7301Z" fill="white"/>
<path d="M49.0427 42.783C49.0427 42.783 51.3433 43.8333 53.9127 42.9777C57.2781 41.8553 57.5022 38.3562 57.5022 38.3562C57.5022 38.3562 59.5653 44.4137 53.7781 45.5797C49.1374 46.5146 46.3916 43.8249 46.3916 43.8249L49.0427 42.7827V42.783Z" fill="#C9C9C9"/>
<path d="M64.0752 19.9741C65.9512 18.4178 64.5542 16.9737 64.7024 15.2055C64.7814 14.2647 64.8558 13.3772 65.1662 12.8875C66.8925 10.162 70.9645 9.33488 71.0063 9.32616L72.918 8.95183L71.6524 7.47197C71.4885 7.28016 66.2932 2.32297 58.2517 4.91883C52.6287 6.73262 48.4654 12.8834 48.3105 13.1319L51.1296 14.458C51.1636 14.4057 54.4555 8.62401 59.2805 7.06829C63.1807 5.80988 66.7751 7.00726 68.314 7.79195C66.678 8.44527 64.5373 9.63538 63.2478 11.6712C62.6395 12.6329 62.5375 13.8433 62.4387 15.0157C62.3079 16.5677 62.1847 18.0327 61.0422 18.9816L64.0752 19.9741V19.9741ZM69.0841 42.6908C69.0841 42.6908 66.7222 39.7601 66.0221 34.0581C65.7472 31.8118 66.2348 27.3818 67.016 25.6776C66.8739 29.8675 67.9402 34.0581 67.9402 34.0581C67.9402 34.0581 68.6584 41.8384 69.0841 42.6908Z" fill="#463014"/>
<path d="M56.6244 17.0144C56.6255 17.0083 57.3826 13.6999 59.4818 12.0296C62.4424 9.67442 66.0578 10.9273 66.0915 10.9384L66.6178 9.31666C66.4422 9.25999 62.3107 7.95799 58.5015 10.6349C54.6705 13.327 54.2119 15.7674 54.1709 16.0368L56.6244 17.0144V17.0144ZM61.6632 40.5891C61.6632 40.5891 62.903 38.8142 62.6789 36.8624C62.5691 35.8984 62.1224 34.9088 61.3246 34.5577C59.8427 33.9067 59.1856 35.5865 59.1856 35.5865C59.1856 35.5865 61.2717 36.1012 61.6632 40.5891Z" fill="#463014"/>
<path d="M48.051 43.2943C47.9993 43.3908 47.9725 43.4452 47.9725 43.4452C47.9725 43.4452 51.8381 46.3473 55.8014 43.4021C57.9241 41.8241 57.7236 37.9212 57.0726 36.2661C55.3832 36.6492 53.9501 37.3394 52.7513 38.1456C54.2657 36.7942 55.5913 35.7994 55.5866 35.7764L57.3089 35.2893L60.6534 34.1428C60.6964 34.398 61.9161 40.1169 58.3932 44.0139C56.8325 45.7417 49.5146 49.6111 46.041 42.9947L48.051 43.294V43.2943Z" fill="#463014"/>
<path d="M48.4114 43.7194C46.2343 47.0331 40.7424 45.1394 40.8371 41.6362C40.8371 41.6362 44.5066 43.6619 47.7497 39.932C49.6428 37.7547 55.711 31.7506 63.9381 33.7458C58.2566 34.9955 50.7341 40.186 48.4114 43.7194V43.7194Z" fill="#463014"/>
<path d="M64.7072 53.0719C64.1829 53.3744 62.3348 55.2876 62.3348 58.1485C62.3336 59.5833 62.4766 66.7908 63.1878 71.1941C62.1194 71.8881 61.3754 72.0357 60.3117 72.7431C59.7793 67.6435 59.3963 60.2523 59.5756 57.2685C59.7787 53.8673 61.5992 51.5847 63.2877 50.6114C63.8167 50.3071 64.3694 50.0081 64.9272 49.7073C67.8197 48.1443 70.8112 46.5273 70.8112 43.7666C70.8112 41.6067 69.9707 40.9313 69.0819 40.2152L68.9872 40.1376C68.3972 39.661 67.7285 39.1204 67.3341 38.2331C66.2547 35.807 66.0777 29.6263 67.3329 28.0575C67.959 27.2757 69.637 24.6467 69.1549 22.88C68.97 22.2057 68.5451 21.7059 67.854 21.3519C67.1222 20.977 66.1356 20.7872 64.9176 20.7872C62.5295 20.7872 59.8775 21.5146 58.5113 21.9477C53.625 23.4964 47.7291 27.9616 46.0377 29.2932C45.9894 29.3304 45.9615 29.3522 45.9563 29.3557L44.874 30.1078L45.5503 28.9761C45.5933 28.9055 49.876 21.8619 57.5351 19.2794C59.0254 18.7769 61.9526 17.9338 64.8298 17.9338C66.5427 17.9338 67.9947 18.2332 69.1467 18.8223C70.5499 19.5398 71.4991 20.6846 71.8943 22.1319C72.8615 25.6796 69.7111 29.6295 69.6036 29.7559C69.2365 30.4115 69.0811 35.174 69.9282 37.0799C70.0451 37.3432 70.365 37.6016 70.771 37.9285C70.8978 38.0311 71.0384 38.1378 71.1898 38.2517C72.3872 39.1553 74.1964 40.5203 74.1964 43.6669C74.1964 47.9723 69.8329 50.3066 66.3274 52.1834C65.7517 52.4929 65.2018 52.7859 64.7069 53.0719H64.7072Z" fill="#463014"/>
<path d="M59.503 19.4673C58.809 18.2917 57.0339 16.022 52.9433 14.0274C48.3779 11.8024 43.0943 10.673 37.2368 10.6704V10.6689H37.2141V10.6695C31.3557 10.6724 26.071 11.8021 21.507 14.0268C17.4162 16.0217 15.6422 18.2912 14.9476 19.4667L14.6494 19.8611L18.1526 20.6409L18.2636 20.5005L18.3223 20.372C18.3764 20.1404 18.846 18.8904 22.7515 16.986C26.9269 14.9496 31.7969 13.917 37.2246 13.9152C42.6534 13.917 47.5214 14.9496 51.6962 16.986C55.6022 18.8904 56.0733 20.1404 56.1268 20.3718L56.1852 20.5005L56.2951 20.6409L59.7992 19.8611L59.5027 19.4673H59.503Z" fill="#463014"/>
<path d="M64.0752 19.9741C65.9512 18.4178 64.5542 16.9737 64.7024 15.2055C64.7814 14.2647 64.8558 13.3772 65.1662 12.8875C66.8925 10.162 70.9645 9.33488 71.0063 9.32616L72.918 8.95183L71.6524 7.47197C71.4885 7.28016 66.2932 2.32297 58.2517 4.91883C52.6287 6.73262 48.4654 12.8834 48.3105 13.1319L51.1296 14.458C51.1636 14.4057 54.4555 8.62401 59.2805 7.06829C63.1807 5.80988 66.7751 7.00726 68.314 7.79195C66.678 8.44527 64.5373 9.63538 63.2478 11.6712C62.6395 12.6329 62.5375 13.8433 62.4387 15.0157C62.3079 16.5677 62.1847 18.0327 61.0422 18.9816L64.0752 19.9741V19.9741Z" fill="#463014"/>
<path d="M60.4662 19.0906L60.8609 18.7619C61.9115 17.8906 62.0292 16.4834 62.1562 14.9872C62.2579 13.7835 62.3629 12.5379 63.0078 11.5195C64.1929 9.64933 66.0689 8.47753 67.6142 7.78061C66.6891 7.38884 64.9506 6.80469 62.8066 6.80469C61.6226 6.80469 60.4671 6.98371 59.3677 7.33857C54.8921 8.78181 51.7295 13.998 51.3714 14.61L51.2372 14.8222L47.9014 13.2534L48.0711 12.9825C48.1103 12.9194 52.2968 6.54225 58.1668 4.64941C59.7365 4.14227 61.3143 3.88623 62.8558 3.88623C68.5052 3.88623 71.8413 7.25428 71.8698 7.28829L73.4522 9.13812L71.0648 9.60602C71.0252 9.61416 67.0533 10.4451 65.4086 13.0409C65.136 13.4722 65.0645 14.3255 64.9872 15.2314C64.9422 15.7702 65.0552 16.2951 65.1654 16.8025C65.404 17.9028 65.6507 19.0409 64.2589 20.1941L64.138 20.2946L60.4662 19.0906V19.0906Z" fill="#463014"/>
<path d="M56.6244 17.0144C56.6255 17.0083 57.3826 13.6999 59.4818 12.0296C62.4424 9.67442 66.0578 10.9273 66.0915 10.9384L66.6178 9.31666C66.4422 9.25999 62.3107 7.95799 58.5015 10.6349C54.6705 13.327 54.2119 15.7674 54.1709 16.0368L56.6244 17.0144V17.0144Z" fill="#463014"/>
<path d="M53.8579 16.2178L53.891 15.9952C53.9326 15.7136 54.4124 13.1622 58.3387 10.4021C59.954 9.26694 61.8896 8.6665 63.9362 8.6665C65.4884 8.6665 66.5852 9.0077 66.7067 9.04693L66.9761 9.13412L66.2725 11.2972L66.0008 11.2071C65.8991 11.1729 64.9862 10.879 63.7577 10.879C62.1834 10.879 60.8047 11.3411 59.6605 12.2525C57.6529 13.8492 56.91 17.0444 56.903 17.0757L56.8292 17.4007L53.8579 16.2178ZM65.9078 10.5875L66.2574 9.51048C65.845 9.40585 65.01 9.23555 63.9362 9.23555C61.9797 9.23555 60.2063 9.78483 58.666 10.8674C55.4435 13.1325 54.6734 15.1791 54.4987 15.8612L56.4322 16.6314C56.6851 15.7322 57.5227 13.2261 59.3059 11.807C60.5364 10.829 62.0756 10.312 63.7574 10.312C64.7246 10.312 65.5038 10.4788 65.9081 10.5875H65.9078ZM44.1167 87.0655C42.6534 85.5011 41.7876 83.8175 41.5784 83.3004C41.4586 83.0058 41.3226 82.4443 41.7516 82.0031C42.0861 81.6616 42.6659 81.4861 43.4765 81.4861H44.7241C46.0244 81.4861 47.5446 81.4861 48.4488 81.4872L49.2073 81.4884C50.2721 81.4884 50.797 81.793 51.0496 82.0484C51.4169 82.4201 51.4742 82.9372 51.221 83.5847C50.5439 85.3142 49.0065 86.7258 48.5522 87.1172C47.957 87.6311 47.1026 87.9356 46.2633 87.9356C45.403 87.9356 44.6407 87.6264 44.1167 87.0655V87.0655ZM45.3832 43.9144L48.4116 43.7197C48.4116 43.7197 47.6382 45.085 47.1363 46.8508C46.5696 48.8483 47.6545 51.7676 47.6545 51.7676C47.6545 51.7676 43.6139 47.1932 45.3832 43.9144V43.9144Z" fill="#463014"/>
<path d="M37.2262 33.0965C35.295 33.0965 32.7771 33.0436 30.8877 31.6858C30.8877 31.6858 33.3615 36.0222 37.223 36.0222L37.2262 35.4735L37.2294 36.0222C41.0913 36.0222 43.5645 31.6861 43.5645 31.6861C41.6754 33.0433 39.1557 33.0965 37.2262 33.0965Z" fill="#E78724"/>
<path d="M42.5428 33.0752C40.6057 34.2476 38.8756 34.6539 37.2255 34.6899C35.5747 34.6539 33.8455 34.2476 31.9082 33.0752C31.9082 33.0752 34.7293 36.5176 37.2112 36.5441V36.5461C37.2156 36.5461 37.22 36.545 37.2252 36.545C37.2295 36.545 37.2339 36.5461 37.2391 36.5461V36.5441C39.7205 36.5176 42.5428 33.0752 42.5428 33.0752V33.0752ZM49.1658 95.9362L48.9499 93.1282C58.0459 92.4287 60.912 83.7114 60.9268 82.7936H63.7436C63.7447 84.916 59.9492 95.1074 49.1658 95.9362Z" fill="#463014"/>
<path d="M52.1964 77.6785C52.3659 76.7046 52.3824 75.7807 52.177 74.8731C52.9977 74.2569 54.4671 74.0282 55.5706 73.6704C56.473 73.0994 61.0919 74.2558 64.4419 70.2015C68.6391 65.1249 67.7548 62.094 67.7548 62.094C68.8318 63.2896 69.874 62.8339 71.5154 68.4093C73.1583 73.9858 70.7433 77.8732 66.2444 81.776C64.1193 83.6194 61.1146 84.3791 58.53 84.6697C59.3958 83.8008 57.0513 83.7136 55.4363 83.1091C55.5654 81.8042 55.3486 80.5376 54.3758 79.5178C53.7905 78.9029 53.0346 78.5355 52.2522 78.2426C52.2081 78.1414 52.1703 78.0478 52.1299 77.9508C52.1557 77.8621 52.1802 77.7726 52.1967 77.6785H52.1964Z" fill="white"/>
<path d="M55.4542 83.0749C55.5489 82.8008 55.6181 82.5218 55.6876 82.2408C55.7634 81.9342 56.1354 81.0646 55.6762 82.0574C55.7942 81.8031 55.8709 81.5413 55.9279 81.2774C63.2139 81.2681 69.5524 76.2656 68.3265 65.7487C69.2804 64.4825 70.617 68.3022 70.617 68.3022C70.617 68.3022 74.2646 78.8931 64.8443 82.9979C61.7055 84.3667 58.9321 85.3482 58.2773 84.952C56.9128 85.229 55.682 84.2787 55.2217 83.6535C55.3077 83.4617 55.3885 83.2693 55.4542 83.0749V83.0749Z" fill="#C9C9C9"/>
<path d="M52.3269 76.1535C52.3168 75.266 52.1342 74.406 51.7064 73.5496C51.6759 73.4906 51.6413 73.4339 51.6094 73.3763C54.4127 73.3522 57.6419 73.084 60.3915 71.9834C63.4134 70.7744 67.1939 66.6388 67.8437 61.7795C67.8437 61.7795 73.5353 66.1715 71.863 75.5723C70.2919 84.3994 62.906 87.2772 54.4819 87.764C54.4773 87.7071 55.4296 85.7407 55.1286 84.5366C59.9108 84.8842 65.2603 83.0361 67.844 78.7872C70.2068 74.8981 69.5441 68.2584 68.5723 67.2854C66.2031 74.7638 57.6741 76.284 52.3269 76.1535V76.1535Z" fill="#463014"/>
<path d="M55.7279 78.3677C54.7215 77.2796 52.8711 75.9828 48.6044 75.9828L37.2395 75.9758H37.2116C33.9363 75.9782 25.8453 75.9828 25.8453 75.9828C21.5795 75.9828 19.7291 77.2799 18.722 78.3677C17.2553 79.9513 17.0251 82.1539 18.0399 84.9073C20.7364 92.236 24.5258 99.6818 37.211 99.6923V99.6934C37.2157 99.6934 37.2197 99.6923 37.225 99.6923C37.2293 99.6923 37.2337 99.6934 37.2389 99.6934V99.6923C49.923 99.6812 53.7124 92.236 56.4097 84.9073C57.4246 82.1539 57.1938 79.9513 55.7279 78.3677ZM53.7531 84.3935C52.4685 88.0737 49.0156 96.9813 37.2247 96.9967C25.4323 96.9813 21.9808 88.074 20.696 84.3935C19.9851 82.3516 20.0392 80.8406 20.8622 79.9022C21.4246 79.2605 22.7161 78.4947 25.6596 78.4947L28.7347 78.4935C31.0033 78.4915 33.8517 78.4892 37.225 78.4877C40.5971 78.4892 43.447 78.4915 45.715 78.4935L48.7889 78.4947C51.7333 78.4947 53.0245 79.2602 53.5872 79.9022C54.4093 80.8415 54.464 82.3516 53.7528 84.3935H53.7531Z" fill="#463014"/>
<path d="M51.4437 70.7999C52.9596 75.2485 56.056 78.849 56.056 78.849C56.056 78.849 51.7966 78.6552 51.5611 77.9016C51.3882 77.3459 47.7162 68.7498 46.3066 58.6797C47.6313 60.8579 51.3135 70.4189 51.4437 70.7999V70.7999Z" fill="#463014"/>
</g>
<defs>
<clipPath id="clip0">
<rect width="74.4" height="100" fill="white"/>
</clipPath>
</defs>
</svg>
